<svg xmlns="http://www.w3.org/2000/svg" version="1.1" xmlns:xlink="http://www.w3.org/1999/xlink" width="512"
	height="512" x="0" y="0" viewBox="0 0 510 510" style="enable-background:new 0 0 512 512" xml:space="preserve"
	class="">
	<g>
		<linearGradient id="a">
			<stop offset="0" stop-color="#81b823"></stop>
			<stop offset="1" stop-color="#017b4e"></stop>
		</linearGradient>
		<linearGradient xlink:href="#a" id="f" x1="-366.986" x2="-266.079" y1="435.598" y2="435.598"
			gradientTransform="rotate(14.98 265.893 3210.508)" gradientUnits="userSpaceOnUse"></linearGradient>
		<linearGradient id="b">
			<stop offset="0" stop-color="#017b4e" stop-opacity="0"></stop>
			<stop offset="1" stop-color="#026841"></stop>
		</linearGradient>
		<linearGradient xlink:href="#b" id="g" x1="-316.532" x2="-316.532" y1="418.254" y2="547.014"
			gradientTransform="rotate(14.98 265.893 3210.508)" gradientUnits="userSpaceOnUse"></linearGradient>
		<linearGradient xlink:href="#b" id="h" x1="-316.532" x2="-316.532" y1="380.33" y2="513.068"
			gradientTransform="rotate(14.98 265.893 3210.508)" gradientUnits="userSpaceOnUse"></linearGradient>
		<linearGradient xlink:href="#b" id="i" x1="-316.532" x2="-316.532" y1="346.568" y2="446.852"
			gradientTransform="rotate(14.98 265.893 3210.508)" gradientUnits="userSpaceOnUse"></linearGradient>
		<linearGradient xlink:href="#b" id="j" x1="-293.037" x2="-331.886" y1="433.123" y2="437.285"
			gradientTransform="rotate(14.98 265.893 3210.508)" gradientUnits="userSpaceOnUse"></linearGradient>
		<linearGradient id="k" x1="436.646" x2="389.979" y1="384.325" y2="367.659" gradientUnits="userSpaceOnUse">
			<stop offset="0" stop-color="#01525a" stop-opacity="0"></stop>
			<stop offset="1" stop-color="#01525a"></stop>
		</linearGradient>
		<linearGradient xlink:href="#a" id="l" x1="-642.692" x2="-602.949" y1="547.668" y2="547.668"
			gradientTransform="rotate(150 -169.66 612.081)" gradientUnits="userSpaceOnUse"></linearGradient>
		<linearGradient xlink:href="#b" id="m" x1="-613.567" x2="-628.868" y1="546.693" y2="548.332"
			gradientTransform="rotate(150 -169.66 612.081)" gradientUnits="userSpaceOnUse"></linearGradient>
		<linearGradient id="c">
			<stop offset="0" stop-color="#bbec6c"></stop>
			<stop offset="1" stop-color="#81b823"></stop>
		</linearGradient>
		<linearGradient xlink:href="#c" id="n" x1="302.71" x2="398.21" y1="168.627" y2="173.627"
			gradientUnits="userSpaceOnUse"></linearGradient>
		<linearGradient id="o" x1="153.135" x2="305.529" y1="255.206" y2="407.6" gradientUnits="userSpaceOnUse">
			<stop offset="0" stop-color="#5a5a5a"></stop>
			<stop offset="1" stop-color="#444"></stop>
		</linearGradient>
		<linearGradient id="d">
			<stop offset="0" stop-color="#433f43" stop-opacity="0"></stop>
			<stop offset="1" stop-color="#1a1a1a"></stop>
		</linearGradient>
		<linearGradient xlink:href="#d" id="p" x1="52.966" x2="379.967" y1="190.323" y2="458.324"
			gradientUnits="userSpaceOnUse"></linearGradient>
		<linearGradient xlink:href="#d" id="q" x1="243.17" x2="291.17" y1="440.761" y2="458.095"
			gradientUnits="userSpaceOnUse"></linearGradient>
		<linearGradient xlink:href="#d" id="r" x1="263.8" x2="263.8" y1="240" y2="198.618"
			gradientUnits="userSpaceOnUse"></linearGradient>
		<linearGradient xlink:href="#d" id="s" x1="200.185" x2="156.185" y1="267.357" y2="272.69"
			gradientUnits="userSpaceOnUse"></linearGradient>
		<linearGradient xlink:href="#d" id="t" x1="189.677" x2="140.177" y1="424.4" y2="449.4"
			gradientUnits="userSpaceOnUse"></linearGradient>
		<linearGradient xlink:href="#d" id="u" x1="208.832" x2="175.832" y1="387.77" y2="353.27"
			gradientUnits="userSpaceOnUse"></linearGradient>
		<linearGradient xlink:href="#d" id="v" x1="255" x2="255" y1="444.667" y2="501.474"
			gradientUnits="userSpaceOnUse"></linearGradient>
		<linearGradient xlink:href="#d" id="w" x1="362.667" x2="400.667" y1="342.623" y2="342.623"
			gradientUnits="userSpaceOnUse"></linearGradient>
		<linearGradient id="x" x1="349.87" x2="339.204" y1="399.995" y2="366.328" gradientUnits="userSpaceOnUse">
			<stop offset="0" stop-color="#433f43" stop-opacity="0"></stop>
			<stop offset="1"></stop>
		</linearGradient>
		<linearGradient xlink:href="#a" id="y" x1="-859.331" x2="-819.588" y1="618.541" y2="618.541"
			gradientTransform="matrix(.866 .5 .5 -.866 640.613 1090.353)" gradientUnits="userSpaceOnUse">
		</linearGradient>
		<linearGradient xlink:href="#b" id="z" x1="-830.206" x2="-845.507" y1="617.566" y2="619.206"
			gradientTransform="matrix(.866 .5 .5 -.866 640.613 1090.353)" gradientUnits="userSpaceOnUse">
		</linearGradient>
		<linearGradient xlink:href="#c" id="A" x1="-768.959" x2="-729.216" y1="571.618" y2="571.618"
			gradientTransform="scale(-1 1) rotate(60 -331.922 817.018)" gradientUnits="userSpaceOnUse"></linearGradient>
		<linearGradient id="e">
			<stop offset="0" stop-color="#78a91f" stop-opacity="0"></stop>
			<stop offset=".163" stop-color="#73a620" stop-opacity=".163"></stop>
			<stop offset=".354" stop-color="#659e24" stop-opacity=".354"></stop>
			<stop offset=".559" stop-color="#4e912b" stop-opacity=".559"></stop>
			<stop offset=".774" stop-color="#2d8034" stop-opacity=".774"></stop>
			<stop offset=".994" stop-color="#036941" stop-opacity=".994"></stop>
			<stop offset="1" stop-color="#026841"></stop>
		</linearGradient>
		<linearGradient xlink:href="#e" id="B" x1="-739.833" x2="-755.134" y1="570.643" y2="572.282"
			gradientTransform="scale(-1 1) rotate(60 -331.922 817.018)" gradientUnits="userSpaceOnUse"></linearGradient>
		<linearGradient xlink:href="#c" id="C" x1="-764.75" x2="-725.007" y1="742.478" y2="742.478"
			gradientTransform="scale(-1 1) rotate(15 1964.112 1818.747)" gradientUnits="userSpaceOnUse">
		</linearGradient>
		<linearGradient xlink:href="#e" id="D" x1="-735.624" x2="-750.926" y1="741.503" y2="743.143"
			gradientTransform="scale(-1 1) rotate(15 1964.112 1818.747)" gradientUnits="userSpaceOnUse">
		</linearGradient>
		<linearGradient xlink:href="#c" id="E" x1="262.518" x2="415.851" y1="256.852" y2="327.518"
			gradientUnits="userSpaceOnUse"></linearGradient>
		<linearGradient xlink:href="#e" id="F" x1="252.411" x2="201.744" y1="99.186" y2="84.52"
			gradientUnits="userSpaceOnUse"></linearGradient>
		<linearGradient xlink:href="#c" id="G" x1="-848.616" x2="-747.709" y1="230.017" y2="230.017"
			gradientTransform="scale(-1 1) rotate(60 -312.367 732.485)" gradientUnits="userSpaceOnUse"></linearGradient>
		<linearGradient xlink:href="#e" id="H" x1="-798.162" x2="-798.162" y1="212.673" y2="341.433"
			gradientTransform="scale(-1 1) rotate(60 -312.367 732.485)" gradientUnits="userSpaceOnUse"></linearGradient>
		<linearGradient xlink:href="#e" id="I" x1="-798.162" x2="-798.162" y1="174.749" y2="307.486"
			gradientTransform="scale(-1 1) rotate(60 -312.367 732.485)" gradientUnits="userSpaceOnUse"></linearGradient>
		<linearGradient xlink:href="#e" id="J" x1="-798.162" x2="-798.162" y1="140.987" y2="241.271"
			gradientTransform="scale(-1 1) rotate(60 -312.367 732.485)" gradientUnits="userSpaceOnUse"></linearGradient>
		<linearGradient xlink:href="#e" id="K" x1="-774.667" x2="-813.516" y1="227.542" y2="231.704"
			gradientTransform="scale(-1 1) rotate(60 -312.367 732.485)" gradientUnits="userSpaceOnUse"></linearGradient>
		<linearGradient xlink:href="#e" id="L" x1="276.718" x2="232.385" y1="410.198" y2="457.532"
			gradientUnits="userSpaceOnUse"></linearGradient>
		<path fill="url(#f)"
			d="M373.34 366.063c-9.441 35.232-2.895 70.982 15.19 99.548 4.116 6.501 12.534 8.757 19.349 5.184 29.945-15.697 53.489-43.384 62.929-78.616 9.441-35.233 2.895-70.982-15.19-99.548-4.116-6.501-12.534-8.757-19.349-5.184-29.945 15.697-53.488 43.384-62.929 78.616z"
			opacity="1" data-original="url(#f)"></path>
		<path fill="url(#g)"
			d="M470.811 392.18a125.614 125.614 0 0 1-7.132 19.836l-6.609 2.337c-31.428 11.121-52.968 31.844-59.878 57.63 6.909-25.786-1.384-54.502-23.041-79.848l-4.555-5.329c.65-6.9 1.889-13.829 3.742-20.745 9.441-35.234 32.983-62.919 62.93-78.617 6.818-3.574 15.235-1.319 19.352 5.185 18.086 28.571 24.632 64.317 15.191 99.551z"
			opacity="1" data-original="url(#g)"></path>
		<path fill="url(#h)"
			d="M409.761 425.077c6.909-25.786 28.449-46.509 59.878-57.63l5.333-1.886c1.244-26.18-5.824-51.563-19.351-72.93-4.118-6.504-12.534-8.759-19.352-5.185-22.398 11.741-41.211 30.189-53.223 53.484l3.676 4.3c21.655 25.344 29.948 54.061 23.039 79.847z"
			opacity="1" data-original="url(#h)"></path>
		<path fill="url(#i)"
			d="M424.364 370.575c5.688-21.228 21.299-39.02 44.174-50.853a126.056 126.056 0 0 0-12.917-27.092c-4.118-6.504-12.534-8.759-19.352-5.185a126.03 126.03 0 0 0-24.733 17.003c13.892 21.686 18.516 44.899 12.828 66.127z"
			opacity="1" data-original="url(#i)"></path>
		<path fill="url(#j)"
			d="M407.879 470.796c29.945-15.697 53.489-43.384 62.929-78.616s2.895-70.982-15.19-99.548a14.74 14.74 0 0 0-8.662-6.37l-49.763 185.72c3.47.929 7.279.6 10.686-1.186z"
			opacity="1" data-original="url(#j)"></path>
		<path fill="url(#k)"
			d="M373.34 366.063c-9.441 35.232-2.895 70.982 15.19 99.548 4.116 6.501 12.534 8.757 19.349 5.184 29.945-15.697 53.489-43.384 62.929-78.616 9.441-35.233 2.895-70.982-15.19-99.548-4.116-6.501-12.534-8.757-19.349-5.184-29.945 15.697-53.488 43.384-62.929 78.616z"
			opacity="1" data-original="url(#k)"></path>
		<path fill="url(#l)"
			d="M272.209 431.334c-7.183-12.441-18.962-20.575-31.955-23.494a5.823 5.823 0 0 0-6.833 3.945c-3.968 12.711-2.814 26.979 4.369 39.42s18.962 20.575 31.955 23.494a5.821 5.821 0 0 0 6.832-3.945c3.969-12.711 2.815-26.978-4.368-39.42z"
			opacity="1" data-original="url(#l)"></path>
		<path fill="url(#m)"
			d="M233.422 411.785c-3.968 12.711-2.814 26.979 4.369 39.42s18.962 20.575 31.955 23.494a5.809 5.809 0 0 0 4.186-.638l-37.864-65.582a5.808 5.808 0 0 0-2.646 3.306z"
			opacity="1" data-original="url(#m)"></path>
		<path fill="url(#n)"
			d="M359.326 220.194c-10.648 0-20.659-4.146-28.189-11.676-18.698-18.698-18.698-49.123 0-67.821 10.968-10.968 25.551-17.008 41.062-17.008 15.512 0 30.095 6.04 41.062 17.008a7.5 7.5 0 0 1 0 10.606 7.5 7.5 0 0 1-10.606 0c-16.793-16.792-44.117-16.793-60.912 0-12.85 12.85-12.85 33.758 0 46.608 4.697 4.696 10.941 7.283 17.583 7.283s12.886-2.586 17.583-7.283c3.474-3.474 5.387-8.092 5.387-13.005s-1.913-9.531-5.387-13.005a7.5 7.5 0 0 1 0-10.606 7.5 7.5 0 0 1 10.606 0c6.307 6.307 9.781 14.692 9.781 23.612s-3.474 17.305-9.781 23.612c-7.529 7.528-17.541 11.675-28.189 11.675z"
			opacity="1" data-original="url(#n)"></path>
		<path fill="url(#o)"
			d="M244.46 175.44c-50.32 0-116.28 22.44-116.28 54.4 0 24.48 12.24 52.36 35.36 52.36 18.36 0 23.8-22.44 79.56-22.44 1.45 0 2.87.04 4.25.12l-.02-.12c29.59 0 53.57 23.99 53.57 53.57v3.55h-31.28c-93.84 0-159.12 22.44-159.12 102.68 0 61.88 40.12 90.44 87.04 90.44 47.6 0 78.88-25.84 103.36-54.4v14.96c0 18.36 20.4 32.64 46.92 32.64 29.92 0 51.68-14.28 51.68-32.64V308.72c0-68.68-43.52-133.28-155.04-133.28zm56.44 195.54c0 39.5-42.03 71.26-71.64 71.26-21.98 0-37.26-10.07-37.26-32.53 0-37.18 50.63-41.83 105.08-41.83h3.82z"
			opacity="1" data-original="url(#o)"></path>
		<path fill="url(#p)"
			d="M349.68 230.49c-23.34-23.26-58.74-35.05-105.22-35.05-22.75 0-49.28 5.23-69.24 13.64-19.7 8.31-27.04 17.14-27.04 20.76 0 16.63 7.47 32.36 15.36 32.36 1.16 0 4.49-2 7.71-3.93 12.3-7.37 30.88-18.51 71.85-18.51.98 0 1.95.01 2.91.04.44-.03.88-.04 1.32-.04 40.57 0 73.57 33 73.57 73.57v3.55c0 1.36-.14 2.69-.4 3.98-1.84 9.14-9.91 16.02-19.6 16.02h-31.28c-48.07 0-82.42 6.12-105.01 18.72-23.27 12.97-34.11 33.3-34.11 63.96 0 23.55 6.59 41.66 19.59 53.82 14.68 13.74 33.9 16.62 47.45 16.62 33.32 0 59.69-14.18 88.17-47.42 3.88-4.52 9.47-6.98 15.19-6.98v-11.24c-3.36 4.14-7.13 8.12-11.29 11.88-17.96 16.28-40.52 26-60.35 26-34.78 0-57.26-20.62-57.26-52.53 0-15 6.03-41.97 46.4-54.02 23.05-6.88 52.71-7.81 78.68-7.81h3.82c16.267 0 19.6-8.046 19.6-8.046l.4 130.726c0 5.15 10.49 12.64 26.92 12.64 20.5 0 31.68-8.35 31.68-12.64V308.72c0-22.13-5.17-53.67-29.82-78.23z"
			opacity="1" data-original="url(#p)"></path>
		<path fill="url(#q)"
			d="M229.26 442.24c-21.98 0-37.26-10.07-37.26-32.53 0-37.18 50.63-41.83 105.08-41.83H123.222c-8.258 13.704-12.722 30.716-12.722 51.68 0 61.88 40.12 90.44 87.04 90.44 47.6 0 78.88-25.84 103.36-54.4v-84.62c0 39.5-42.03 71.26-71.64 71.26z"
			opacity="1" data-original="url(#q)"></path>
		<path fill="url(#r)"
			d="M349.68 230.49c-23.34-23.26-58.74-35.05-105.22-35.05-9.52 0-19.7.92-29.79 2.6-14.01 2.33-27.84 6.15-39.45 11.04-19.7 8.31-27.04 17.14-27.04 20.76 0 16.63 7.47 32.36 15.36 32.36 1.16 0 4.49-2 7.71-3.93 9-5.39 21.37-12.81 43.42-16.39 8.08-1.32 17.45-2.12 28.43-2.12.98 0 1.95.01 2.91.04.44-.03.88-.04 1.32-.04 40.57 0 73.57 33 73.57 73.57v3.55h26.97c12.48 0 23.52-4.99 31.55-12.87-.73-21.74-6.79-50.65-29.74-73.52z"
			opacity="1" data-original="url(#r)"></path>
		<path fill="url(#s)"
			d="M349.68 230.49c-23.34-23.26-58.74-35.05-105.22-35.05-9.52 0-19.7.92-29.79 2.6-14.01 2.33-27.84 6.15-39.45 11.04-19.7 8.31-27.04 17.14-27.04 20.76 0 16.63 7.47 32.36 15.36 32.36 1.16 0 4.49-2 7.71-3.93 9-5.39 21.37-12.81 43.42-16.39 8.08-1.32 17.45-2.12 28.43-2.12.98 0 1.95.01 2.91.04.44-.03.88-.04 1.32-.04 40.57 0 73.57 33 73.57 73.57v3.55h26.97c12.48 0 23.52-4.99 31.55-12.87-.73-21.74-6.79-50.65-29.74-73.52z"
			opacity="1" data-original="url(#s)"></path>
		<path fill="url(#t)"
			d="M218.4 355.69c23.05-6.88 52.71-7.81 78.68-7.81h3.82v-11h-31.28c-48.07 0-82.42 6.12-105.01 18.72-23.27 12.97-34.11 33.3-34.11 63.96 0 23.55 6.59 41.66 19.59 53.82 14.68 13.74 33.9 16.62 47.45 16.62 33.32 0 59.69-14.18 88.17-47.42a19.991 19.991 0 0 1 9.133-6.036 424.265 424.265 0 0 0 6.057-10.563v-1.621c-3.36 4.14-7.13 8.12-11.29 11.88-17.96 16.28-40.52 26-60.35 26-34.78 0-57.26-20.62-57.26-52.53 0-15 6.03-41.97 46.4-54.02z"
			opacity="1" data-original="url(#t)"></path>
		<path fill="url(#u)"
			d="M218.4 355.69c23.05-6.88 52.71-7.81 78.68-7.81h3.82v-11h-31.28c-48.07 0-82.42 6.12-105.01 18.72-23.27 12.97-34.11 33.3-34.11 63.96 0 23.55 6.59 41.66 19.59 53.82 14.68 13.74 33.9 16.62 47.45 16.62 33.32 0 59.69-14.18 88.17-47.42a19.991 19.991 0 0 1 9.133-6.036 424.265 424.265 0 0 0 6.057-10.563v-1.621c-3.36 4.14-7.13 8.12-11.29 11.88-17.96 16.28-40.52 26-60.35 26-34.78 0-57.26-20.62-57.26-52.53 0-15 6.03-41.97 46.4-54.02z"
			opacity="1" data-original="url(#u)"></path>
		<path fill="url(#v)"
			d="M300.9 367.88v3.1c0 39.5-42.03 71.26-71.64 71.26-21.98 0-37.26-10.07-37.26-32.53 0-37.18 50.63-41.83 105.08-41.83H123.222c-8.258 13.704-12.722 30.716-12.722 51.68 0 61.88 40.12 90.44 87.04 90.44 47.6 0 78.88-25.84 103.36-54.4v14.96c0 18.36 20.4 32.64 46.92 32.64 29.92 0 51.68-14.28 51.68-32.64V367.88z"
			opacity="1" data-original="url(#v)"></path>
		<path fill="url(#w)"
			d="M300.9 182.047V470.56c0 18.36 20.4 32.64 46.92 32.64 29.92 0 51.68-14.28 51.68-32.64V308.72c0-55.61-28.539-108.54-98.6-126.673z"
			opacity="1" data-original="url(#w)"></path>
		<path fill="url(#x)"
			d="M344.77 362.88a149.56 149.56 0 0 1-15.68 4.76c-9.65 2.36-19.06 5.39-28.19 9.05v93.87c0 18.36 20.4 32.64 46.92 32.64 29.92 0 51.68-14.28 51.68-32.64V327.73c-15.29 15.54-33.92 27.57-54.73 35.15z"
			opacity="1" data-original="url(#x)"></path>
		<path fill="url(#y)"
			d="M205.681 125.015c7.183-12.441 18.962-20.575 31.955-23.494a5.823 5.823 0 0 1 6.833 3.945c3.968 12.711 2.814 26.979-4.369 39.42s-18.962 20.575-31.955 23.494a5.823 5.823 0 0 1-6.833-3.945c-3.968-12.711-2.814-26.978 4.369-39.42z"
			opacity="1" data-original="url(#y)"></path>
		<path fill="url(#z)"
			d="M244.468 105.466c3.968 12.711 2.814 26.979-4.369 39.42s-18.962 20.575-31.955 23.494a5.809 5.809 0 0 1-4.186-.638l37.864-65.582a5.808 5.808 0 0 1 2.646 3.306z"
			opacity="1" data-original="url(#z)"></path>
		<path fill="url(#A)"
			d="M337.931 315.806c12.441 7.183 20.575 18.962 23.494 31.955a5.821 5.821 0 0 1-3.945 6.832c-12.711 3.968-26.979 2.814-39.42-4.369s-20.575-18.962-23.494-31.955a5.823 5.823 0 0 1 3.945-6.833c12.71-3.967 26.978-2.813 39.42 4.37z"
			opacity="1" data-original="url(#A)"></path>
		<path fill="url(#B)"
			d="M357.479 354.593c-12.711 3.968-26.979 2.814-39.42-4.369s-20.575-18.962-23.494-31.955a5.809 5.809 0 0 1 .638-4.186l65.582 37.864a5.806 5.806 0 0 1-3.306 2.646z"
			opacity="1" data-original="url(#B)"></path>
		<path fill="url(#C)"
			d="M392.791 72.595c3.718 13.877 1.14 27.957-5.983 39.208a5.821 5.821 0 0 1-7.621 2.042c-11.794-6.182-21.067-17.087-24.785-30.964s-1.14-27.957 5.983-39.208a5.821 5.821 0 0 1 7.621-2.042c11.794 6.182 21.067 17.087 24.785 30.964z"
			opacity="1" data-original="url(#C)"></path>
		<path fill="url(#D)"
			d="M379.187 113.844c-11.794-6.182-21.067-17.087-24.785-30.964s-1.14-27.957 5.983-39.208a5.809 5.809 0 0 1 3.412-2.509l19.6 73.147a5.797 5.797 0 0 1-4.21-.466z"
			opacity="1" data-original="url(#D)"></path>
		<path fill="url(#E)"
			d="M427.78 292.32c-16.88 35.43-46.62 62.31-83.01 75.56a149.56 149.56 0 0 1-15.68 4.76 210.617 210.617 0 0 0-29.31 9.5 211.125 211.125 0 0 0-81.54 59.13c-5.63-1.06-10.55-3.01-14.58-5.91a226.166 226.166 0 0 1 91.38-67.48h.01c9.86-3.97 20.04-7.25 30.47-9.81 39.08-9.57 71.41-35.88 88.72-72.2 17.3-36.31 17.38-78 .2-114.38-29.59-62.68-103.49-92.41-168.25-67.69l-14.11 5.38c-48 18.33-102.3-2.11-126.3-47.54l13.26-7.01c20.46 38.73 66.76 56.16 107.69 40.54l14.11-5.39c35.06-13.38 73.53-13.03 108.34.97 34.81 14.01 62.81 40.41 78.83 74.34 19.1 40.46 19.02 86.84-.23 127.23z"
			opacity="1" data-original="url(#E)"></path>
		<path fill="url(#F)"
			d="m232.08 109.18 14.11-5.38c31.138-11.886 64.387-11.178 93.81-.277V87.408c-32.31-10.608-67.155-9.842-99.16 2.372l-14.11 5.39c-40.93 15.62-87.23-1.81-107.69-40.54l-13.26 7.01c24 45.43 78.3 65.87 126.3 47.54z"
			opacity="1" data-original="url(#F)"></path>
		<path fill="url(#G)"
			d="M145.353 16.821c31.589 18.238 52.239 48.145 59.65 81.132 1.687 7.508-2.67 15.055-10.016 17.348-32.274 10.075-68.499 7.145-100.088-11.092C63.311 85.971 42.661 56.064 35.25 23.077c-1.687-7.508 2.67-15.055 10.016-17.348 32.273-10.075 68.498-7.145 100.087 11.092z"
			opacity="1" data-original="url(#G)"></path>
		<path fill="url(#G)"
			d="M145.353 16.821c31.589 18.238 52.239 48.145 59.65 81.132 1.687 7.508-2.67 15.055-10.016 17.348-32.274 10.075-68.499 7.145-100.088-11.092C63.311 85.971 42.661 56.064 35.25 23.077c-1.687-7.508 2.67-15.055 10.016-17.348 32.273-10.075 68.498-7.145 100.087 11.092z"
			opacity="1" data-original="url(#G)"></path>
		<path fill="url(#H)"
			d="M94.898 104.211c6.2 3.58 12.573 6.57 19.07 8.983l6.326-3.021c30.087-14.359 59.972-14.937 83.09-1.589-23.119-13.348-37.561-39.517-40.169-72.753l-.547-6.989a125.567 125.567 0 0 0-17.315-12.023C113.764-1.419 77.541-4.348 45.265 5.727c-7.348 2.294-11.705 9.84-10.018 17.351 7.413 32.989 28.061 62.895 59.651 81.133z"
			opacity="1" data-original="url(#H)"></path>
		<path fill="url(#I)"
			d="M161.329 84.303c-23.119-13.348-53.003-12.77-83.09 1.589l-5.105 2.437C53.742 70.698 40.792 47.752 35.248 23.078 33.56 15.567 37.917 8.021 45.265 5.727c24.14-7.536 50.487-7.794 75.453.184l.442 5.639c2.608 33.236 17.05 59.406 40.169 72.753z"
			opacity="1" data-original="url(#I)"></path>
		<path fill="url(#J)"
			d="M112.464 56.091c-19.033-10.989-42.652-12.53-67.194-4.723a126.048 126.048 0 0 1-10.023-28.291c-1.687-7.51 2.67-15.056 10.018-17.35A126.014 126.014 0 0 1 74.777.262c5.51 25.157 18.654 44.841 37.687 55.829z"
			opacity="1" data-original="url(#J)"></path>
		<path fill="url(#K)"
			d="M194.987 115.301c-32.274 10.075-68.499 7.145-100.088-11.092C63.311 85.971 42.661 56.064 35.25 23.077a14.741 14.741 0 0 1 1.621-10.629l166.512 96.136a14.747 14.747 0 0 1-8.396 6.717z"
			opacity="1" data-original="url(#K)"></path>
		<path fill="url(#L)"
			d="M393.775 316.88c-17.789 20.165-41.432 34.622-68.255 41.19a225.457 225.457 0 0 0-30.47 9.81h-.01a226.166 226.166 0 0 0-91.38 67.48c4.03 2.9 8.95 4.85 14.58 5.91a211.125 211.125 0 0 1 81.54-59.13c9.48-3.86 19.27-7.04 29.31-9.5 5.35-1.31 10.58-2.9 15.68-4.76 27.421-9.984 51.063-27.711 68.275-51z"
			opacity="1" data-original="url(#L)"></path>
	</g>
</svg>