<svg xmlns="http://www.w3.org/2000/svg" x="0px" y="0px" width="100" height="100" viewBox="0,0,256,256">
<g fill="#3a82f6" fill-rule="nonzero" stroke="none" stroke-width="1" stroke-linecap="butt" stroke-linejoin="miter" stroke-miterlimit="10" stroke-dasharray="" stroke-dashoffset="0" font-family="none" font-weight="none" font-size="none" text-anchor="none" style="mix-blend-mode: normal"><g transform="scale(10.66667,10.66667)"><path d="M21.13,18.74l-8.8,5.12c-0.15,0.1 -0.33,0.14 -0.5,0.14c-0.17,0 -0.35,-0.04 -0.5,-0.13l-8.45,-4.88c-0.01,0 -0.01,0 -0.01,0c-0.03,-0.01 -0.06,-0.01 -0.08,-0.01c-0.54,-0.12 -0.88,-0.65 -0.77,-1.19l3.7,-17.03c0.09,-0.41 0.43,-0.72 0.85,-0.78c0.42,-0.04 0.83,0.16 1.02,0.54l2.34,4.62l1.09,-1.79c0.19,-0.31 0.53,-0.49 0.89,-0.47c0.36,0.01 0.69,0.22 0.85,0.54l1.83,3.55l3.25,-2.85c0.28,-0.24 0.66,-0.31 1,-0.19c0.34,0.13 0.59,0.43 0.65,0.78l2.12,13c0.07,0.41 -0.12,0.82 -0.48,1.03z" opacity="0.3"></path><path d="M21.612,17.714l-2.125,-13c-0.058,-0.355 -0.303,-0.652 -0.641,-0.777c-0.337,-0.121 -0.716,-0.059 -0.992,0.176l-3.294,2.79l-1.795,-3.485c-0.166,-0.321 -0.492,-0.528 -0.853,-0.541c-0.364,-0.013 -0.701,0.169 -0.89,0.478l-1.169,1.912l-2.25,-4.723c-0.185,-0.388 -0.594,-0.611 -1.019,-0.564c-0.424,0.049 -0.771,0.364 -0.861,0.782l-3.7,17.026c-0.002,0.007 0.001,0.014 0,0.021c-0.018,0.093 -0.027,0.188 -0.018,0.284c0.002,0.021 0.01,0.04 0.013,0.06c0.004,0.024 0.01,0.047 0.016,0.071c0.026,0.111 0.064,0.217 0.124,0.311c0.001,0.002 0.002,0.004 0.003,0.006c0.061,0.095 0.143,0.174 0.233,0.244c0.021,0.016 0.04,0.032 0.062,0.046c0.018,0.012 0.033,0.027 0.052,0.038l8.83,5c0.152,0.088 0.322,0.131 0.492,0.131c0.174,0 0.348,-0.045 0.503,-0.136l8.795,-5.125c0.358,-0.209 0.551,-0.616 0.484,-1.025zM11.801,5.915l1.192,2.314l-1.232,1.043l-0.881,-1.849zM10.097,10.43c0.029,0.06 0.077,0.102 0.115,0.153l-2.612,2.212l2.036,-3.334zM7.056,4.046l1.553,3.259l-3.511,5.749zM11.822,21.847l-7.082,-4.01l13.058,-11.058l1.729,10.578z"></path></g></g>
</svg>