<svg xmlns="http://www.w3.org/2000/svg" version="1.1" xmlns:xlink="http://www.w3.org/1999/xlink" width="512"
	height="512" x="0" y="0" viewBox="0 0 510 510" style="enable-background:new 0 0 512 512" xml:space="preserve"
	class="">
	<g>
		<linearGradient id="a">
			<stop offset="0" stop-color="#81b823"></stop>
			<stop offset="1" stop-color="#017b4e"></stop>
		</linearGradient>
		<linearGradient xlink:href="#a" id="g" x1="453.695" x2="599.149" y1="-157.993" y2="-157.993"
			gradientTransform="rotate(39.91 -382.096 -279.813)" gradientUnits="userSpaceOnUse"></linearGradient>
		<linearGradient id="b">
			<stop offset="0" stop-color="#017b4e" stop-opacity="0"></stop>
			<stop offset="1" stop-color="#026841"></stop>
		</linearGradient>
		<linearGradient xlink:href="#b" id="h" x1="526.422" x2="526.422" y1="-182.993" y2="2.61"
			gradientTransform="rotate(39.91 -382.096 -279.813)" gradientUnits="userSpaceOnUse"></linearGradient>
		<linearGradient xlink:href="#b" id="i" x1="526.422" x2="526.422" y1="-237.66" y2="-46.323"
			gradientTransform="rotate(39.91 -382.096 -279.813)" gradientUnits="userSpaceOnUse"></linearGradient>
		<linearGradient xlink:href="#b" id="j" x1="526.422" x2="526.422" y1="-286.327" y2="-141.771"
			gradientTransform="rotate(39.91 -382.096 -279.813)" gradientUnits="userSpaceOnUse"></linearGradient>
		<linearGradient xlink:href="#b" id="k" x1="560.29" x2="504.29" y1="-161.561" y2="-155.561"
			gradientTransform="rotate(39.91 -382.096 -279.813)" gradientUnits="userSpaceOnUse"></linearGradient>
		<linearGradient id="l" x1="234.768" x2="195.768" y1="406.004" y2="419.004"
			gradientTransform="rotate(24.9 252.73 367.226)" gradientUnits="userSpaceOnUse">
			<stop offset="0" stop-color="#01525a" stop-opacity="0"></stop>
			<stop offset="1" stop-color="#01525a"></stop>
		</linearGradient>
		<linearGradient id="m" x1="71.631" x2="428.143" y1="255" y2="255" gradientUnits="userSpaceOnUse">
			<stop offset="0" stop-color="#5a5a5a"></stop>
			<stop offset="1" stop-color="#444"></stop>
		</linearGradient>
		<linearGradient id="c">
			<stop offset="0" stop-color="#433f43" stop-opacity="0"></stop>
			<stop offset="1" stop-color="#1a1a1a"></stop>
		</linearGradient>
		<linearGradient xlink:href="#c" id="n" x1="-31.504" x2="291.195" y1="119.095" y2="396.654"
			gradientUnits="userSpaceOnUse"></linearGradient>
		<linearGradient xlink:href="#c" id="o" x1="216.168" x2="538.865" y1="119.095" y2="396.654"
			gradientUnits="userSpaceOnUse"></linearGradient>
		<linearGradient xlink:href="#c" id="p" x1="373.428" x2="345.243" y1="255" y2="255"
			gradientUnits="userSpaceOnUse"></linearGradient>
		<linearGradient xlink:href="#c" id="q" x1="137.221" x2="96.416" y1="255" y2="255"
			gradientUnits="userSpaceOnUse"></linearGradient>
		<linearGradient xlink:href="#c" id="r" x1="373.725" x2="373.725" y1="70.356" y2="28.961"
			gradientUnits="userSpaceOnUse"></linearGradient>
		<linearGradient xlink:href="#c" id="s" x1="126.049" x2="126.049" y1="70.356" y2="28.961"
			gradientUnits="userSpaceOnUse"></linearGradient>
		<linearGradient xlink:href="#c" id="t" x1="276.876" x2="324.746" y1="274.326" y2="274.326"
			gradientUnits="userSpaceOnUse"></linearGradient>
		<linearGradient xlink:href="#c" id="u" x1="249.887" x2="249.887" y1="457" y2="514.079"
			gradientUnits="userSpaceOnUse"></linearGradient>
		<linearGradient xlink:href="#c" id="v" x1="394.887" x2="435.679" y1="255" y2="255"
			gradientUnits="userSpaceOnUse"></linearGradient>
		<linearGradient id="d">
			<stop offset="0" stop-color="#433f43" stop-opacity="0"></stop>
			<stop offset="1"></stop>
		</linearGradient>
		<linearGradient xlink:href="#d" id="w" x1="126.049" x2="126.049" y1="238.258" y2="187.114"
			gradientUnits="userSpaceOnUse"></linearGradient>
		<linearGradient xlink:href="#d" id="x" x1="246.978" x2="215.478" y1="217.805" y2="234.305"
			gradientUnits="userSpaceOnUse"></linearGradient>
		<linearGradient xlink:href="#d" id="y" x1="293.866" x2="266.866" y1="254.467" y2="228.467"
			gradientUnits="userSpaceOnUse"></linearGradient>
		<linearGradient id="e">
			<stop offset="0" stop-color="#bbec6c"></stop>
			<stop offset="1" stop-color="#81b823"></stop>
		</linearGradient>
		<linearGradient xlink:href="#e" id="z" x1="40.307" x2="90.307" y1="426.224" y2="521.557"
			gradientTransform="scale(1 -1) rotate(-45 -682.537 -70.72)" gradientUnits="userSpaceOnUse"></linearGradient>
		<linearGradient xlink:href="#e" id="A" x1="-1942.689" x2="-1902.946" y1="78.238" y2="78.238"
			gradientTransform="rotate(60 -949.748 2260.854)" gradientUnits="userSpaceOnUse"></linearGradient>
		<linearGradient id="f">
			<stop offset="0" stop-color="#78a91f" stop-opacity="0"></stop>
			<stop offset=".163" stop-color="#73a620" stop-opacity=".163"></stop>
			<stop offset=".354" stop-color="#659e24" stop-opacity=".354"></stop>
			<stop offset=".559" stop-color="#4e912b" stop-opacity=".559"></stop>
			<stop offset=".774" stop-color="#2d8034" stop-opacity=".774"></stop>
			<stop offset=".994" stop-color="#036941" stop-opacity=".994"></stop>
			<stop offset="1" stop-color="#026841"></stop>
		</linearGradient>
		<linearGradient xlink:href="#f" id="B" x1="-1913.564" x2="-1928.865" y1="77.263" y2="78.903"
			gradientTransform="rotate(60 -949.748 2260.854)" gradientUnits="userSpaceOnUse"></linearGradient>
		<linearGradient xlink:href="#d" id="C" x1="430.084" x2="373.084" y1="401.494" y2="387.494"
			gradientUnits="userSpaceOnUse"></linearGradient>
		<linearGradient xlink:href="#e" id="D" x1="377.111" x2="448.657" y1="341.039" y2="435.878"
			gradientUnits="userSpaceOnUse"></linearGradient>
		<linearGradient xlink:href="#f" id="E" x1="425.497" x2="404.497" y1="367.398" y2="395.398"
			gradientUnits="userSpaceOnUse"></linearGradient>
		<linearGradient xlink:href="#e" id="F" x1="-2219.544" x2="-2179.801" y1="-95.296" y2="-95.296"
			gradientTransform="rotate(-30 -718.326 -4582.633)" gradientUnits="userSpaceOnUse"></linearGradient>
		<linearGradient xlink:href="#f" id="G" x1="-2190.418" x2="-2205.72" y1="-96.271" y2="-94.631"
			gradientTransform="rotate(-30 -718.326 -4582.633)" gradientUnits="userSpaceOnUse"></linearGradient>
		<linearGradient xlink:href="#a" id="H" x1="-1738.88" x2="-1699.137" y1="1118.733" y2="1118.733"
			gradientTransform="scale(-1 1) rotate(60 -124.718 1875.77)" gradientUnits="userSpaceOnUse"></linearGradient>
		<linearGradient xlink:href="#b" id="I" x1="-1709.754" x2="-1725.055" y1="1117.758" y2="1119.398"
			gradientTransform="scale(-1 1) rotate(60 -124.718 1875.77)" gradientUnits="userSpaceOnUse"></linearGradient>
		<linearGradient xlink:href="#e" id="J" x1="197.068" x2="262.573" y1="86.425" y2="149.435"
			gradientUnits="userSpaceOnUse"></linearGradient>
		<linearGradient xlink:href="#f" id="K" x1="211.539" x2="175.539" y1="130.506" y2="175.172"
			gradientUnits="userSpaceOnUse"></linearGradient>
		<linearGradient xlink:href="#e" id="L" x1="-2255.715" x2="-2154.808" y1="1103.757" y2="1103.757"
			gradientTransform="scale(-1 1) rotate(60 -312.377 2432.894)" gradientUnits="userSpaceOnUse">
		</linearGradient>
		<linearGradient xlink:href="#f" id="M" x1="-2205.262" x2="-2205.262" y1="1086.414" y2="1215.173"
			gradientTransform="scale(-1 1) rotate(60 -312.377 2432.894)" gradientUnits="userSpaceOnUse">
		</linearGradient>
		<linearGradient xlink:href="#f" id="N" x1="-2205.262" x2="-2205.262" y1="1048.489" y2="1181.227"
			gradientTransform="scale(-1 1) rotate(60 -312.377 2432.894)" gradientUnits="userSpaceOnUse">
		</linearGradient>
		<linearGradient xlink:href="#f" id="O" x1="-2205.262" x2="-2205.262" y1="1014.727" y2="1115.011"
			gradientTransform="scale(-1 1) rotate(60 -312.377 2432.894)" gradientUnits="userSpaceOnUse">
		</linearGradient>
		<linearGradient xlink:href="#f" id="P" x1="-2181.766" x2="-2220.616" y1="1101.282" y2="1105.445"
			gradientTransform="scale(-1 1) rotate(60 -312.377 2432.894)" gradientUnits="userSpaceOnUse">
		</linearGradient>
		<linearGradient xlink:href="#f" id="Q" x1="291.58" x2="326.08" y1="84.439" y2="105.939"
			gradientUnits="userSpaceOnUse"></linearGradient>
		<path fill="url(#g)"
			d="M180.676 350.084c-33.74 40.324-46.896 91.033-40.605 139.361 1.432 10.999 11.066 19.06 22.145 18.529 48.68-2.332 96.273-24.226 130.014-64.55 33.74-40.324 46.896-91.033 40.605-139.361-1.432-10.999-11.066-19.06-22.145-18.529-48.68 2.331-96.273 24.225-130.014 64.55z"
			opacity="1" data-original="url(#g)"></path>
		<path fill="url(#h)"
			d="M292.233 443.426a180.937 180.937 0 0 1-21.372 21.599l-10.059-.959c-47.84-4.55-88.585 9.458-113.278 38.969 24.693-29.512 31.294-72.089 18.377-118.376l-2.718-9.732a180.884 180.884 0 0 1 17.491-24.846c33.742-40.326 81.332-62.218 130.015-64.551 11.084-.531 20.717 7.529 22.149 18.533 6.291 48.332-6.864 99.037-40.605 139.363z"
			opacity="1" data-original="url(#h)"></path>
		<path fill="url(#i)"
			d="M192.444 449.35c24.693-29.512 65.439-43.52 113.278-38.969l8.117.774c17.528-33.468 23.704-70.943 18.999-107.091-1.432-11.004-11.065-19.064-22.149-18.533-36.411 1.745-72.209 14.434-102.061 37.591l2.193 7.853c12.917 46.287 6.316 88.864-18.377 118.375z"
			opacity="1" data-original="url(#i)"></path>
		<path fill="url(#j)"
			d="M244.637 386.973c20.329-24.296 51.543-38.072 88.633-39.648a181.617 181.617 0 0 0-.432-43.262c-1.432-11.004-11.065-19.064-22.149-18.533a181.662 181.662 0 0 0-42.659 7.206c4.99 36.786-3.064 69.941-23.393 94.237z"
			opacity="1" data-original="url(#j)"></path>
		<path fill="url(#k)"
			d="M162.216 507.974c48.68-2.332 96.273-24.226 130.014-64.55 33.74-40.324 46.896-91.033 40.605-139.361a21.248 21.248 0 0 0-7.455-13.588L147.526 503.033a21.25 21.25 0 0 0 14.69 4.941z"
			opacity="1" data-original="url(#k)"></path>
		<path fill="url(#l)"
			d="M180.676 350.084c-33.74 40.324-46.896 91.033-40.605 139.361 1.432 10.999 11.066 19.06 22.145 18.529 48.68-2.332 96.273-24.226 130.014-64.55 33.74-40.324 46.896-91.033 40.605-139.361-1.432-10.999-11.066-19.06-22.145-18.529-48.68 2.331-96.273 24.225-130.014 64.55z"
			opacity="1" data-original="url(#l)"></path>
		<path fill="url(#m)"
			d="M319.306 287.442h-81.349c-31.75 0-57.489 25.739-57.489 57.489v131.581c0 22.326-27.209 33.488-54.418 33.488s-54.418-11.163-54.418-33.488V32.791C71.631 9.768 98.84 0 126.049 0s54.418 9.768 54.418 32.791v170.93h138.838V32.791C319.306 9.768 346.515 0 373.724 0c27.21 0 54.419 9.768 54.419 32.791v443.721c0 22.326-27.209 33.488-54.419 33.488-27.209 0-54.418-11.163-54.418-33.488z"
			opacity="1" data-original="url(#m)"></path>
		<path fill="url(#n)"
			d="M180.467 228.72h138.84v33.72h-81.35c-45.49 0-82.49 37.01-82.49 82.49v131.68c-1.37 2.46-11.85 8.39-29.42 8.39-17.56 0-28.04-5.93-29.41-8.39l-.01-443.82c0-.14.01-.24.02-.3 1.32-2.01 10.75-7.49 29.4-7.49s28.08 5.48 29.41 7.49c0 .06.01.16.01.3v170.93c0 13.81 11.19 25 25 25z"
			opacity="1" data-original="url(#n)"></path>
		<path fill="url(#o)"
			d="m403.147 32.79-.01 443.82c-1.37 2.46-11.85 8.39-29.41 8.39-17.57 0-28.05-5.93-29.42-8.39V32.79c0-.14.01-.24.01-.3 1.33-2.01 10.76-7.49 29.41-7.49s28.08 5.48 29.4 7.49c.01.06.02.16.02.3z"
			opacity="1" data-original="url(#o)"></path>
		<path fill="url(#p)"
			d="m403.147 32.79-.01 443.82c-1.37 2.46-11.85 8.39-29.41 8.39-17.57 0-28.05-5.93-29.42-8.39V32.79c0-.14.01-.24.01-.3 1.33-2.01 10.76-7.49 29.41-7.49s28.08 5.48 29.4 7.49c.01.06.02.16.02.3z"
			opacity="1" data-original="url(#p)"></path>
		<path fill="url(#q)"
			d="M180.468 228.721c-13.807 0-25-11.193-25-25V32.791c0-.145-.008-.244-.014-.305C154.13 30.48 144.698 25 126.049 25s-28.081 5.479-29.404 7.486c-.006.061-.014.16-.014.305 0 0 .001 443.796.003 443.822 1.369 2.456 11.852 8.387 29.415 8.387s28.046-5.931 29.416-8.387l.002-131.682c0-23.145 9.595-44.081 25-59.076v-57.134z"
			opacity="1" data-original="url(#q)"></path>
		<path fill="url(#r)"
			d="M373.724 25c-18.648 0-28.081 5.48-29.404 7.486-.006.061-.014.16-.014.305v135.266h58.836V32.791c0-.145-.008-.244-.014-.305C401.805 30.48 392.374 25 373.724 25z"
			opacity="1" data-original="url(#r)"></path>
		<path fill="url(#s)"
			d="M126.049 25c-18.648 0-28.081 5.479-29.404 7.486-.006.061-.014.16-.014.305v135.266h58.836V32.791c0-.145-.008-.244-.014-.305C154.13 30.48 144.698 25 126.049 25z"
			opacity="1" data-original="url(#s)"></path>
		<path fill="url(#t)" d="M237.956 287.442h81.349v-83.721H180.468v141.21c0-31.75 25.738-57.489 57.488-57.489z"
			opacity="1" data-original="url(#t)"></path>
		<path fill="url(#u)"
			d="M71.631 287.179v189.333C71.631 498.837 98.84 510 126.05 510c27.209 0 54.418-11.163 54.418-33.488V344.931c0-31.75 25.739-57.489 57.489-57.489h81.349v189.07c0 22.326 27.209 33.488 54.418 33.488 27.21 0 54.419-11.163 54.419-33.488V287.179z"
			opacity="1" data-original="url(#u)"></path>
		<path fill="url(#v)"
			d="M373.727 0c-27.21 0-54.42 9.77-54.42 32.79v443.72c0 22.33 27.21 33.49 54.42 33.49s54.42-11.16 54.42-33.49V32.79c0-23.02-27.21-32.79-54.42-32.79z"
			opacity="1" data-original="url(#v)"></path>
		<path fill="url(#w)"
			d="M155.469 179.27c-31.35 0-60.33-10.15-83.84-27.34V294h108.84V177.08c-8.11 1.44-16.47 2.19-25 2.19z"
			opacity="1" data-original="url(#w)"></path>
		<path fill="url(#x)"
			d="M201.195 211.304c0 22.78 18.467 41.247 41.247 41.247s41.247-18.467 41.247-41.247c0-2.592-.25-5.124-.708-7.583h-81.078a41.364 41.364 0 0 0-.708 7.583z"
			opacity="1" data-original="url(#x)"></path>
		<path fill="url(#y)"
			d="M260.699 248.675h-49.494l38.768 38.768h69.333v-83.721h-38.122v24.469c0 11.312-9.171 20.484-20.485 20.484z"
			opacity="1" data-original="url(#y)"></path>
		<path fill="url(#z)"
			d="M279.024 248.682c15.542-15.542 15.549-40.835 0-56.385-13.018-13.018-34.203-13.018-47.221 0a7.497 7.497 0 0 0 0 10.607 7.498 7.498 0 0 0 10.607 0c7.17-7.17 18.837-7.17 26.007 0 4.702 4.702 7.283 10.946 7.29 17.586-.007 6.64-2.588 12.883-7.29 17.586-6.223 6.222-14.503 9.652-23.299 9.652-8.811 0-17.077-3.429-23.306-9.659-8.132-8.132-12.615-18.95-12.615-30.448 0-11.512 4.476-22.323 12.615-30.462a7.498 7.498 0 0 0-6.887-12.629l-11.243 11.243c-6.173 9.383-9.482 20.358-9.482 31.841 0 15.514 6.039 30.095 17.006 41.062 9.058 9.058 21.1 14.057 33.906 14.05 12.812-.001 24.854-4.986 33.912-14.044z"
			opacity="1" data-original="url(#z)"></path>
		<path fill="url(#A)"
			d="M443.925 309.609c-12.441 7.183-20.575 18.962-23.494 31.955a5.821 5.821 0 0 0 3.945 6.832c12.711 3.968 26.979 2.814 39.42-4.369s20.575-18.962 23.494-31.955a5.823 5.823 0 0 0-3.945-6.833c-12.711-3.967-26.979-2.813-39.42 4.37z"
			opacity="1" data-original="url(#A)"></path>
		<path fill="url(#B)"
			d="M424.376 348.397c12.711 3.968 26.979 2.814 39.42-4.369s20.575-18.962 23.494-31.955a5.809 5.809 0 0 0-.638-4.186l-65.582 37.864a5.806 5.806 0 0 0 3.306 2.646z"
			opacity="1" data-original="url(#B)"></path>
		<path fill="url(#C)"
			d="M428.139 341.807h-36.677c-14.894 0-26.968 12.074-26.968 26.968v27.807l63.644 63.645v-118.42z" opacity="1"
			data-original="url(#C)"></path>
		<path fill="url(#D)"
			d="M447.214 388.206c-1.77 14.13-8.5 26.86-19.07 36.21v-24.18c2.14-4.3 3.56-8.99 4.18-13.9 1.07-8.55-.4-17.03-4.18-24.56a43.5 43.5 0 0 0-4.55-7.22c-5.41-6.95-13.19-11.38-21.93-12.47-8.73-1.1-17.37 1.28-24.32 6.68-5.24 4.08-8.58 9.95-9.41 16.54-.82 6.59.97 13.11 5.04 18.35 6.23 8.01 17.81 9.46 25.81 3.23 3.27-2.54 7.99-1.95 10.53 1.32s1.95 7.98-1.32 10.53c-14.54 11.3-35.56 8.67-46.86-5.87-13.49-17.35-10.35-42.45 7-55.94 10.11-7.86 22.68-11.32 35.39-9.73 9.2 1.15 17.66 4.84 24.62 10.61 2.67 2.21 5.11 4.74 7.29 7.54 9.52 12.251 13.7 27.471 11.78 42.86z"
			opacity="1" data-original="url(#D)"></path>
		<path fill="url(#E)"
			d="M435.434 345.347c-2.18-2.8-4.62-5.33-7.29-7.54a47.514 47.514 0 0 0-20.009-9.802v15.555c6.079 2.041 11.427 5.818 15.459 10.997a43.5 43.5 0 0 1 4.55 7.22c3.78 7.53 5.25 16.01 4.18 24.56-.62 4.91-2.04 9.6-4.18 13.9v24.18c10.57-9.35 17.3-22.08 19.07-36.21 1.92-15.39-2.26-30.61-11.78-42.86z"
			opacity="1" data-original="url(#E)"></path>
		<path fill="url(#F)"
			d="M225.232 54.008c7.183 12.441 18.962 20.575 31.955 23.494a5.821 5.821 0 0 0 6.832-3.945c3.968-12.711 2.814-26.979-4.369-39.42s-18.962-20.575-31.955-23.494a5.823 5.823 0 0 0-6.833 3.945c-3.967 12.71-2.813 26.978 4.37 39.42z"
			opacity="1" data-original="url(#F)"></path>
		<path fill="url(#G)"
			d="M264.019 73.556c3.968-12.711 2.814-26.979-4.369-39.42s-18.962-20.575-31.955-23.494a5.809 5.809 0 0 0-4.186.638l37.864 65.582a5.798 5.798 0 0 0 2.646-3.306z"
			opacity="1" data-original="url(#G)"></path>
		<path fill="url(#H)"
			d="M276.23 99.303c12.441 7.183 20.575 18.962 23.494 31.955a5.821 5.821 0 0 1-3.945 6.832c-12.711 3.968-26.979 2.814-39.42-4.369s-20.575-18.962-23.494-31.955a5.823 5.823 0 0 1 3.945-6.833c12.711-3.967 26.979-2.813 39.42 4.37z"
			opacity="1" data-original="url(#H)"></path>
		<path fill="url(#I)"
			d="M295.779 138.09c-12.711 3.968-26.979 2.814-39.42-4.369s-20.575-18.962-23.494-31.955a5.809 5.809 0 0 1 .638-4.186l65.582 37.864a5.802 5.802 0 0 1-3.306 2.646z"
			opacity="1" data-original="url(#I)"></path>
		<path fill="url(#J)"
			d="M319.307 81.299v21.22l-17.65-17.66c-6.13-6.12-14.27-9.49-22.93-9.49s-16.8 3.37-22.92 9.49a32.352 32.352 0 0 0-8.06 32.48c6.22 20.19-.15 40.95-16.63 54.17-9.32 7.47-20.29 11.27-31.38 11.27-8.53 0-17.13-2.25-25.11-6.79l-29.33-16.7c-3.59-2.05-4.85-6.63-2.8-10.23s6.63-4.86 10.23-2.81l29.32 16.7c15.42 8.78 30.61 4.14 39.68-3.14 9.08-7.28 16.91-21.1 11.69-38.05-5.19-16.84-.68-35.04 11.78-47.5 18.49-18.49 48.57-18.49 67.06 0z"
			opacity="1" data-original="url(#J)"></path>
		<path fill="url(#K)"
			d="M232.622 96.639a47.386 47.386 0 0 0 .792 25.117c5.22 16.95-2.61 30.77-11.69 38.05-9.07 7.28-24.26 11.92-39.68 3.14l-29.32-16.7c-3.6-2.05-8.18-.79-10.23 2.81s-.79 8.18 2.8 10.23l29.33 16.7c7.98 4.54 16.58 6.79 25.11 6.79 11.09 0 22.06-3.8 31.38-11.27 16.48-13.22 22.85-33.98 16.63-54.17a32.343 32.343 0 0 1 .544-20.698h-15.666z"
			opacity="1" data-original="url(#K)"></path>
		<path fill="url(#L)"
			d="M133.035 85.284c31.589 18.238 52.239 48.145 59.65 81.132 1.687 7.508-2.67 15.055-10.016 17.348-32.274 10.075-68.499 7.145-100.088-11.092-31.589-18.238-52.239-48.145-59.65-81.132-1.687-7.508 2.67-15.055 10.016-17.348 32.274-10.075 68.499-7.145 100.088 11.092z"
			opacity="1" data-original="url(#L)"></path>
		<path fill="url(#L)"
			d="M133.035 85.284c31.589 18.238 52.239 48.145 59.65 81.132 1.687 7.508-2.67 15.055-10.016 17.348-32.274 10.075-68.499 7.145-100.088-11.092-31.589-18.238-52.239-48.145-59.65-81.132-1.687-7.508 2.67-15.055 10.016-17.348 32.274-10.075 68.499-7.145 100.088 11.092z"
			opacity="1" data-original="url(#L)"></path>
		<path fill="url(#M)"
			d="M82.581 172.674c6.2 3.58 12.573 6.57 19.07 8.983l6.326-3.021c30.087-14.359 59.972-14.937 83.09-1.589-23.119-13.348-37.561-39.517-40.169-72.753l-.547-6.989a125.567 125.567 0 0 0-17.315-12.023C101.446 67.044 65.224 64.114 32.947 74.19c-7.348 2.294-11.705 9.84-10.018 17.351 7.413 32.989 28.062 62.895 59.652 81.133z"
			opacity="1" data-original="url(#M)"></path>
		<path fill="url(#N)"
			d="M149.011 152.766c-23.119-13.348-53.003-12.77-83.09 1.589l-5.105 2.437C41.424 139.16 28.474 116.213 22.93 91.54c-1.688-7.511 2.669-15.057 10.018-17.351 24.14-7.536 50.487-7.794 75.453.184l.442 5.639c2.607 33.237 17.049 59.407 40.168 72.754z"
			opacity="1" data-original="url(#N)"></path>
		<path fill="url(#O)"
			d="M100.146 124.554c-19.033-10.989-42.652-12.53-67.194-4.723A126.048 126.048 0 0 1 22.929 91.54c-1.688-7.511 2.669-15.057 10.018-17.351a126.014 126.014 0 0 1 29.512-5.465c5.51 25.158 18.655 44.842 37.687 55.83z"
			opacity="1" data-original="url(#O)"></path>
		<path fill="url(#P)"
			d="M182.669 183.764c-32.274 10.075-68.499 7.145-100.088-11.092-31.589-18.238-52.238-48.145-59.65-81.132a14.741 14.741 0 0 1 1.621-10.629l166.512 96.136a14.738 14.738 0 0 1-8.395 6.717z"
			opacity="1" data-original="url(#P)"></path>
		<path fill="url(#Q)"
			d="M319.307 81.299v21.22l-17.65-17.66c-6.13-6.12-14.27-9.49-22.93-9.49s-16.8 3.37-22.92 9.49c-.37.37-.72.76-1.07 1.14v-19.12c18.16-10.65 41.95-8.19 57.52 7.38z"
			opacity="1" data-original="url(#Q)"></path>
	</g>
</svg>