<svg xmlns="http://www.w3.org/2000/svg" version="1.1" xmlns:xlink="http://www.w3.org/1999/xlink" width="512" height="512" x="0" y="0" viewBox="0 0 510 510" style="enable-background:new 0 0 512 512" xml:space="preserve" class=""><g><linearGradient id="a"><stop offset="0" stop-color="#81b823"></stop><stop offset="1" stop-color="#017b4e"></stop></linearGradient><linearGradient xlink:href="#a" id="i" x1="843.442" x2="988.895" y1="10.887" y2="10.887" gradientTransform="rotate(39.91 149.836 -811.504)" gradientUnits="userSpaceOnUse"></linearGradient><linearGradient id="b"><stop offset="0" stop-color="#017b4e" stop-opacity="0"></stop><stop offset="1" stop-color="#026841"></stop></linearGradient><linearGradient xlink:href="#b" id="j" x1="916.169" x2="916.169" y1="-14.113" y2="171.49" gradientTransform="rotate(39.91 149.836 -811.504)" gradientUnits="userSpaceOnUse"></linearGradient><linearGradient xlink:href="#b" id="k" x1="916.169" x2="916.169" y1="-68.78" y2="122.557" gradientTransform="rotate(39.91 149.836 -811.504)" gradientUnits="userSpaceOnUse"></linearGradient><linearGradient xlink:href="#b" id="l" x1="916.169" x2="916.169" y1="-117.446" y2="27.11" gradientTransform="rotate(39.91 149.836 -811.504)" gradientUnits="userSpaceOnUse"></linearGradient><linearGradient xlink:href="#b" id="m" x1="950.037" x2="894.037" y1="7.32" y2="13.32" gradientTransform="rotate(39.91 149.836 -811.504)" gradientUnits="userSpaceOnUse"></linearGradient><linearGradient id="n" x1="195.171" x2="145.171" y1="319.071" y2="347.071" gradientUnits="userSpaceOnUse"><stop offset="0" stop-color="#01525a" stop-opacity="0"></stop><stop offset="1" stop-color="#01525a"></stop></linearGradient><linearGradient xlink:href="#a" id="o" x1="-1775.128" x2="-1735.386" y1="-1060.927" y2="-1060.927" gradientTransform="scale(-1 1) rotate(60 -2299.316 797.072)" gradientUnits="userSpaceOnUse"></linearGradient><linearGradient xlink:href="#b" id="p" x1="-1746.003" x2="-1761.304" y1="-1061.901" y2="-1060.262" gradientTransform="scale(-1 1) rotate(60 -2299.316 797.072)" gradientUnits="userSpaceOnUse"></linearGradient><linearGradient id="c"><stop offset="0" stop-color="#5a5a5a"></stop><stop offset="1" stop-color="#444"></stop></linearGradient><linearGradient xlink:href="#c" id="q" x1="47.456" x2="438.456" y1="107.198" y2="370.198" gradientUnits="userSpaceOnUse"></linearGradient><linearGradient id="d"><stop offset="0" stop-color="#433f43" stop-opacity="0"></stop><stop offset="1" stop-color="#1a1a1a"></stop></linearGradient><linearGradient xlink:href="#d" id="r" x1="76.851" x2="416.346" y1="126.965" y2="355.321" gradientUnits="userSpaceOnUse"></linearGradient><linearGradient xlink:href="#d" id="s" x1="257.131" x2="220.118" y1="47.055" y2="47.055" gradientUnits="userSpaceOnUse"></linearGradient><linearGradient xlink:href="#d" id="t" x1="297.676" x2="297.676" y1="57" y2="22.941" gradientUnits="userSpaceOnUse"></linearGradient><linearGradient xlink:href="#d" id="u" x1="140.131" x2="77.123" y1="412.052" y2="412.052" gradientUnits="userSpaceOnUse"></linearGradient><linearGradient xlink:href="#d" id="v" x1="155.006" x2="155.006" y1="392" y2="340" gradientUnits="userSpaceOnUse"></linearGradient><linearGradient xlink:href="#d" id="w" x1="228.131" x2="228.131" y1="461" y2="520.009" gradientUnits="userSpaceOnUse"></linearGradient><linearGradient xlink:href="#d" id="x" x1="371.212" x2="406.288" y1="251.467" y2="251.467" gradientUnits="userSpaceOnUse"></linearGradient><linearGradient id="e"><stop offset="0" stop-color="#433f43" stop-opacity="0"></stop><stop offset="1"></stop></linearGradient><linearGradient xlink:href="#e" id="y" x1="343.53" x2="357.53" y1="256.856" y2="173.523" gradientUnits="userSpaceOnUse"></linearGradient><linearGradient xlink:href="#e" id="z" x1="356.61" x2="322.944" y1="443.963" y2="416.963" gradientUnits="userSpaceOnUse"></linearGradient><linearGradient id="f"><stop offset="0" stop-color="#bbec6c"></stop><stop offset="1" stop-color="#81b823"></stop></linearGradient><linearGradient xlink:href="#f" id="A" x1="-2680.234" x2="-2640.491" y1="-931.775" y2="-931.775" gradientTransform="scale(1 -1) rotate(-75 -675.153 -2569.662)" gradientUnits="userSpaceOnUse"></linearGradient><linearGradient id="g"><stop offset="0" stop-color="#78a91f" stop-opacity="0"></stop><stop offset=".163" stop-color="#73a620" stop-opacity=".163"></stop><stop offset=".354" stop-color="#659e24" stop-opacity=".354"></stop><stop offset=".559" stop-color="#4e912b" stop-opacity=".559"></stop><stop offset=".774" stop-color="#2d8034" stop-opacity=".774"></stop><stop offset=".994" stop-color="#036941" stop-opacity=".994"></stop><stop offset="1" stop-color="#026841"></stop></linearGradient><linearGradient xlink:href="#g" id="B" x1="-2651.108" x2="-2666.409" y1="-932.75" y2="-931.11" gradientTransform="scale(1 -1) rotate(-75 -675.153 -2569.662)" gradientUnits="userSpaceOnUse"></linearGradient><linearGradient xlink:href="#f" id="C" x1="327.869" x2="463.085" y1="178.419" y2="318.904" gradientUnits="userSpaceOnUse"></linearGradient><linearGradient xlink:href="#g" id="D" x1="343.916" x2="283.916" y1="25.388" y2="76.388" gradientTransform="rotate(90 269.587 158.175)" gradientUnits="userSpaceOnUse"></linearGradient><linearGradient xlink:href="#f" id="E" x1="351.685" x2="452.592" y1="-4226.567" y2="-4226.567" gradientTransform="scale(-1 1) rotate(53 -4299.637 -2766.077)" gradientUnits="userSpaceOnUse"></linearGradient><linearGradient xlink:href="#g" id="F" x1="402.139" x2="402.139" y1="-4243.911" y2="-4115.151" gradientTransform="scale(-1 1) rotate(53 -4299.637 -2766.077)" gradientUnits="userSpaceOnUse"></linearGradient><linearGradient xlink:href="#g" id="G" x1="402.139" x2="402.139" y1="-4281.835" y2="-4149.098" gradientTransform="scale(-1 1) rotate(53 -4299.637 -2766.077)" gradientUnits="userSpaceOnUse"></linearGradient><linearGradient xlink:href="#g" id="H" x1="402.139" x2="402.139" y1="-4315.597" y2="-4215.314" gradientTransform="scale(-1 1) rotate(53 -4299.637 -2766.077)" gradientUnits="userSpaceOnUse"></linearGradient><linearGradient xlink:href="#g" id="I" x1="425.634" x2="386.785" y1="-4229.043" y2="-4224.88" gradientTransform="scale(-1 1) rotate(53 -4299.637 -2766.077)" gradientUnits="userSpaceOnUse"></linearGradient><linearGradient xlink:href="#f" id="J" x1="272.304" x2="308.304" y1="359.183" y2="427.683" gradientUnits="userSpaceOnUse"></linearGradient><linearGradient xlink:href="#c" id="K" x1="-1245.135" x2="-1230.894" y1="-320.694" y2="-320.694" gradientTransform="rotate(-45 174.664 -1657.842)" gradientUnits="userSpaceOnUse"></linearGradient><linearGradient xlink:href="#c" id="L" x1="-1259.178" x2="-1244.937" y1="-320.694" y2="-320.694" gradientTransform="rotate(-45 174.664 -1657.842)" gradientUnits="userSpaceOnUse"></linearGradient><linearGradient xlink:href="#c" id="M" x1="-1250.108" x2="-1244.358" y1="-311.575" y2="-304.575" gradientTransform="rotate(-45 174.664 -1657.842)" gradientUnits="userSpaceOnUse"></linearGradient><linearGradient xlink:href="#c" id="N" x1="-1266.109" x2="-1223.963" y1="-279.346" y2="-279.346" gradientTransform="rotate(-45 174.664 -1657.842)" gradientUnits="userSpaceOnUse"></linearGradient><linearGradient id="h"><stop offset="0" stop-color="#fef0ae"></stop><stop offset="1" stop-color="#fac600"></stop></linearGradient><linearGradient xlink:href="#h" id="O" x1="-1260.191" x2="-1243.941" y1="-286.36" y2="-278.61" gradientTransform="rotate(-45 174.664 -1657.842)" gradientUnits="userSpaceOnUse"></linearGradient><linearGradient xlink:href="#c" id="P" x1="-1250.326" x2="-1245.326" y1="-293.342" y2="-290.426" gradientTransform="rotate(-45 174.664 -1657.842)" gradientUnits="userSpaceOnUse"></linearGradient><linearGradient xlink:href="#c" id="Q" x1="-1262.848" x2="-1249.024" y1="-264.557" y2="-264.557" gradientTransform="rotate(-45 174.664 -1657.842)" gradientUnits="userSpaceOnUse"></linearGradient><linearGradient xlink:href="#c" id="R" x1="-1267.401" x2="-1260.919" y1="-283.227" y2="-283.227" gradientTransform="rotate(-45 174.664 -1657.842)" gradientUnits="userSpaceOnUse"></linearGradient><linearGradient xlink:href="#h" id="S" x1="-1247.586" x2="-1230.086" y1="-283.656" y2="-274.656" gradientTransform="rotate(-45 174.664 -1657.842)" gradientUnits="userSpaceOnUse"></linearGradient><linearGradient xlink:href="#c" id="T" x1="-1245.656" x2="-1240.989" y1="-291.744" y2="-288.911" gradientTransform="rotate(-45 174.664 -1657.842)" gradientUnits="userSpaceOnUse"></linearGradient><linearGradient xlink:href="#c" id="U" x1="-1241.416" x2="-1227.591" y1="-264.557" y2="-264.557" gradientTransform="rotate(-45 174.664 -1657.842)" gradientUnits="userSpaceOnUse"></linearGradient><linearGradient xlink:href="#c" id="V" x1="-1229.521" x2="-1223.039" y1="-283.227" y2="-283.227" gradientTransform="rotate(-45 174.664 -1657.842)" gradientUnits="userSpaceOnUse"></linearGradient><path fill="url(#i)" d="M153.807 264.329c-33.74 40.324-46.896 91.033-40.605 139.361 1.432 10.999 11.066 19.06 22.145 18.529 48.68-2.332 96.273-24.226 130.014-64.55 33.74-40.324 46.896-91.033 40.605-139.361-1.432-10.999-11.066-19.06-22.145-18.529-48.679 2.331-96.273 24.226-130.014 64.55z" opacity="1" data-original="url(#i)" class=""></path><path fill="url(#j)" d="M265.364 357.671a180.937 180.937 0 0 1-21.372 21.599l-10.059-.959c-47.84-4.55-88.585 9.457-113.278 38.969 24.693-29.512 31.294-72.089 18.377-118.376l-2.718-9.732a180.884 180.884 0 0 1 17.491-24.846c33.742-40.326 81.332-62.218 130.015-64.551 11.084-.531 20.717 7.529 22.149 18.533 6.291 48.332-6.863 99.038-40.605 139.363z" opacity="1" data-original="url(#j)"></path><path fill="url(#k)" d="M165.575 363.596c24.693-29.512 65.439-43.52 113.278-38.969l8.117.774c17.528-33.468 23.704-70.943 18.999-107.091-1.432-11.004-11.065-19.064-22.149-18.533-36.411 1.745-72.209 14.434-102.061 37.591l2.193 7.853c12.918 46.286 6.317 88.863-18.377 118.375z" opacity="1" data-original="url(#k)"></path><path fill="url(#l)" d="M217.768 301.218c20.329-24.296 51.543-38.072 88.633-39.648a181.608 181.608 0 0 0-.432-43.261c-1.432-11.004-11.065-19.064-22.149-18.533a181.662 181.662 0 0 0-42.659 7.206c4.991 36.786-3.063 69.94-23.393 94.236z" opacity="1" data-original="url(#l)"></path><path fill="url(#m)" d="M135.348 422.219c48.68-2.332 96.273-24.226 130.014-64.55 33.74-40.324 46.896-91.033 40.605-139.361a21.248 21.248 0 0 0-7.455-13.588L120.657 417.278a21.253 21.253 0 0 0 14.691 4.941z" opacity="1" data-original="url(#m)"></path><path fill="url(#n)" d="M153.807 264.329c-33.74 40.324-46.896 91.033-40.605 139.361 1.432 10.999 11.066 19.06 22.145 18.529 48.68-2.332 96.273-24.226 130.014-64.55 33.74-40.324 46.896-91.033 40.605-139.361-1.432-10.999-11.066-19.06-22.145-18.529-48.679 2.331-96.273 24.226-130.014 64.55z" opacity="1" data-original="url(#n)"></path><path fill="url(#o)" d="M428.117 321.956c12.441 7.183 20.575 18.962 23.494 31.955a5.823 5.823 0 0 1-3.945 6.833c-12.711 3.968-26.979 2.814-39.42-4.369s-20.575-18.962-23.494-31.955a5.821 5.821 0 0 1 3.945-6.832c12.711-3.969 26.979-2.815 39.42 4.368z" opacity="1" data-original="url(#o)"></path><path fill="url(#p)" d="M447.666 360.743c-12.711 3.968-26.979 2.814-39.42-4.369s-20.575-18.962-23.494-31.955a5.809 5.809 0 0 1 .638-4.186l65.582 37.864a5.798 5.798 0 0 1-3.306 2.646z" opacity="1" data-original="url(#p)"></path><path fill="url(#q)" d="M350.96 0H229.862c-22.836 0-32.525 24.22-32.525 46.364 0 25.604 11.765 47.747 32.525 47.747h60.202v252.578c0 47.056-22.836 69.2-62.971 69.2-55.359 0-58.819-42.212-60.896-69.2-2.075-25.604-25.603-32.524-53.283-32.524-37.367 0-54.667 9.688-54.667 51.207 0 92.035 74.736 144.627 173.69 144.627 90.651 0 166.08-44.288 166.08-163.311V33.216C398.016 11.072 374.487 0 350.96 0z" opacity="1" data-original="url(#q)" class=""></path><path fill="url(#r)" d="M231.936 485c-43.605 0-82.106-11.5-108.408-32.38-26.729-21.219-40.281-50.573-40.281-87.247 0-16.987 3.421-21.202 4.47-22.089 1.817-1.538 7.508-4.119 25.197-4.119 14.991 0 21.987 2.443 24.823 3.899 2.375 1.22 3.238 1.974 3.538 5.602 1.946 25.285 7.16 92.222 85.817 92.222 55.085 0 87.972-35.215 87.972-94.2V94.111c0-13.807-11.193-25-25-25h-60.202c-2.184 0-7.525-7.971-7.525-22.748 0-7.222 1.592-14.369 4.154-18.654 1.621-2.71 2.394-2.71 3.371-2.71H350.96c7.466 0 14.593 1.675 19.064 4.481 2.992 1.877 2.992 2.951 2.992 3.735v313.473c0 48.209-13.573 84.32-40.342 107.331C309.096 474.287 274.261 485 231.936 485z" opacity="1" data-original="url(#r)"></path><path fill="url(#s)" d="M373.011 33.22v35.89h-143.15c-2.18 0-7.52-7.97-7.52-22.75 0-7.22 1.59-14.37 4.15-18.65 1.62-2.71 2.39-2.71 3.37-2.71h121.1c7.46 0 14.59 1.67 19.06 4.48 2.99 1.88 2.99 2.95 2.99 3.74z" opacity="1" data-original="url(#s)"></path><path fill="url(#t)" d="M373.011 33.22v35.89h-143.15c-2.18 0-7.52-7.97-7.52-22.75 0-7.22 1.59-14.37 4.15-18.65 1.62-2.71 2.39-2.71 3.37-2.71h121.1c7.46 0 14.59 1.67 19.06 4.48 2.99 1.88 2.99 2.95 2.99 3.74z" opacity="1" data-original="url(#t)"></path><path fill="url(#u)" d="M226.764 440.884c-78.34-.188-83.546-66.968-85.49-92.217-.3-3.628-1.163-4.382-3.538-5.602-2.836-1.456-9.832-3.899-24.823-3.899-17.689 0-23.38 2.581-25.197 4.119-1.049.887-4.47 5.102-4.47 22.089 0 36.673 13.553 66.027 40.281 87.247 25.256 20.051 61.765 31.445 103.237 32.319z" opacity="1" data-original="url(#u)"></path><path fill="url(#v)" d="M226.764 440.884c-78.34-.188-83.546-66.968-85.49-92.217-.3-3.628-1.163-4.382-3.538-5.602-2.836-1.456-9.832-3.899-24.823-3.899-17.689 0-23.38 2.581-25.197 4.119-1.049.887-4.47 5.102-4.47 22.089 0 36.673 13.553 66.027 40.281 87.247 25.256 20.051 61.765 31.445 103.237 32.319z" opacity="1" data-original="url(#v)"></path><path fill="url(#w)" d="M290.064 255v91.689c0 47.056-22.836 69.2-62.971 69.2-55.359 0-58.819-42.212-60.896-69.2-2.075-25.604-25.603-32.524-53.283-32.524-37.367 0-54.667 9.688-54.667 51.207 0 92.035 74.736 144.627 173.69 144.627 90.651 0 166.08-44.288 166.08-163.311V255z" opacity="1" data-original="url(#w)"></path><path fill="url(#x)" d="M350.96 0h-60.896v502.934c62.615-16.626 107.952-63.973 107.952-156.245V33.216C398.016 11.072 374.487 0 350.96 0z" opacity="1" data-original="url(#x)"></path><path fill="url(#y)" d="M322.584 152.96a113.001 113.001 0 0 0-32.521 4.758v188.971c0 9.965-1.035 18.801-3.031 26.558a112.865 112.865 0 0 0 35.552 5.713c28.974 0 55.397-10.91 75.398-28.84.014-1.141.034-2.276.034-3.431V181.83c-20.004-17.948-46.441-28.87-75.432-28.87z" opacity="1" data-original="url(#y)" class=""></path><path fill="url(#z)" d="M331.181 371.1v31.948c0 13.493-10.938 24.432-24.432 24.432h-22.788l53.977 53.977c19.758-13.598 35.702-32.459 46.188-57.412z" opacity="1" data-original="url(#z)"></path><path fill="url(#A)" d="M388.204 208.876c13.877-3.718 27.957-1.14 39.208 5.983a5.821 5.821 0 0 1 2.042 7.621c-6.182 11.794-17.087 21.067-30.964 24.785s-27.957 1.14-39.208-5.983a5.821 5.821 0 0 1-2.042-7.621c6.183-11.794 17.087-21.067 30.964-24.785z" opacity="1" data-original="url(#A)"></path><path fill="url(#B)" d="M429.454 222.479c-6.182 11.794-17.087 21.067-30.964 24.785s-27.957 1.14-39.208-5.983a5.809 5.809 0 0 1-2.509-3.412l73.147-19.6a5.807 5.807 0 0 1-.466 4.21z" opacity="1" data-original="url(#B)"></path><path fill="url(#C)" d="M415.621 317.89a95.87 95.87 0 0 1-17.61 15.52v-19.04a83.3 83.3 0 0 0 7.08-7.22c17.18-19.81 23.92-45.88 18.49-71.54-3.71-17.52-12.68-32.92-25.57-44.47-5.98-5.36-12.8-9.9-20.32-13.43l-22.27-10.46c-3.75-1.76-5.36-6.23-3.6-9.98a7.505 7.505 0 0 1 9.98-3.6l22.27 10.46c4.91 2.31 9.57 4.98 13.94 7.98 20.59 14.09 34.96 35.42 40.25 60.4 6.49 30.69-1.76 61.88-22.64 85.38z" opacity="1" data-original="url(#C)"></path><path fill="url(#D)" d="M427.441 301.533c11.955-20.7 15.9-45.015 10.823-69.024-6.42-30.29-26.17-55.21-54.19-68.38l-22.27-10.46a7.505 7.505 0 0 0-9.98 3.6 7.487 7.487 0 0 0-.668 2.45v1.471a7.487 7.487 0 0 0 4.268 6.058l22.27 10.46c23.74 11.15 40.46 32.25 45.89 57.9 4.931 23.302-.176 46.941-14.021 65.924h17.878z" opacity="1" data-original="url(#D)"></path><path fill="url(#E)" d="M335.189 71.851c29.138 21.942 46 54.137 49.347 87.781.762 7.657-4.48 14.618-12.05 16.002-33.259 6.078-68.86-1.233-97.998-23.174-29.138-21.942-46-54.137-49.347-87.781-.762-7.657 4.48-14.618 12.05-16.002 33.26-6.078 68.86 1.233 97.998 23.174z" opacity="1" data-original="url(#E)"></path><path fill="url(#E)" d="M335.189 71.851c29.138 21.942 46 54.137 49.347 87.781.762 7.657-4.48 14.618-12.05 16.002-33.259 6.078-68.86-1.233-97.998-23.174-29.138-21.942-46-54.137-49.347-87.781-.762-7.657 4.48-14.618 12.05-16.002 33.26-6.078 68.86 1.233 97.998 23.174z" opacity="1" data-original="url(#E)"></path><path fill="url(#F)" d="M274.487 152.461a125.497 125.497 0 0 0 17.837 11.234l6.646-2.229c31.609-10.596 61.343-7.537 82.668 8.521-21.325-16.058-32.479-43.789-31.029-77.096l.306-7.003A125.532 125.532 0 0 0 335.19 71.85c-29.139-21.943-64.737-29.253-97.999-23.175-7.573 1.384-12.814 8.344-12.052 16.005 3.349 33.645 20.209 65.838 49.348 87.781z" opacity="1" data-original="url(#F)"></path><path fill="url(#G)" d="M342.845 140.775c-21.325-16.058-51.058-19.117-82.668-8.521l-5.363 1.799c-17.105-19.858-27.17-44.209-29.674-69.373-.762-7.66 4.479-14.621 12.052-16.005 24.877-4.546 51.06-1.6 74.871 9.353l-.247 5.651c-1.45 33.306 9.704 61.037 31.029 77.096z" opacity="1" data-original="url(#G)"></path><path fill="url(#H)" d="M297.771 106.833c-17.556-13.22-40.813-17.621-66.122-12.854a126.009 126.009 0 0 1-6.51-29.299c-.762-7.66 4.479-14.621 12.052-16.005a126.05 126.05 0 0 1 29.957-1.838c2.413 25.64 13.067 46.776 30.623 59.996z" opacity="1" data-original="url(#H)"></path><path fill="url(#I)" d="M372.486 175.634c-33.259 6.078-68.86-1.233-97.998-23.174-29.138-21.942-46-54.137-49.347-87.781a14.738 14.738 0 0 1 2.901-10.353l153.593 115.66a14.742 14.742 0 0 1-9.149 5.648z" opacity="1" data-original="url(#I)"></path><path fill="url(#J)" d="M331.181 427.48c-13.01 13.02-34.2 13.02-47.22 0a7.5 7.5 0 0 1 0-10.6c2.93-2.93 7.68-2.94 10.61 0 7.17 7.17 18.84 7.17 26.01 0 4.7-4.71 7.28-10.95 7.29-17.59-.01-6.64-2.59-12.88-7.29-17.59-6.22-6.22-14.51-9.65-23.3-9.65-3.58 0-7.06.57-10.36 1.65-4.83 1.6-9.25 4.31-12.95 8.01-7.2 7.2-11.54 16.51-12.43 26.53-4.54 2.49-9.6 4.36-15.15 5.63-.02-.57-.03-1.13-.03-1.7 0-15.52 6.04-30.1 17.01-41.06 7.22-7.22 16.34-11.87 26.23-13.45 2.51-.4 5.08-.61 7.67-.61 12.81 0 24.86 4.99 33.91 14.05 15.55 15.54 15.55 40.83 0 56.38z" opacity="1" data-original="url(#J)"></path><path fill="url(#K)" d="M127.078 296.777a4 4 0 0 1-5.657 0l-1.629-1.629a19.834 19.834 0 0 1-5.847-14.116v-2.215a4.004 4.004 0 0 1 4.001-4 4.002 4.002 0 0 1 4 4.001v2.214a11.89 11.89 0 0 0 3.504 8.459l1.629 1.629a4.001 4.001 0 0 1-.001 5.657z" opacity="1" data-original="url(#K)"></path><path fill="url(#L)" d="M121.562 302.294a4 4 0 0 1-5.657 0l-1.629-1.629a11.887 11.887 0 0 0-8.46-3.504l-2.213.001a4.002 4.002 0 0 1-.001-8.001h2.214a19.832 19.832 0 0 1 14.117 5.848l1.629 1.629a4 4 0 0 1 0 5.656z" opacity="1" data-original="url(#L)"></path><path fill="url(#M)" d="m137.259 302.954-9.52 9.52c-3.107 3.107-8.314 2.43-10.523-1.368l-1.303-2.241a10.96 10.96 0 0 1 1.724-13.259l2.755-2.755a10.96 10.96 0 0 1 13.259-1.724l2.241 1.303c3.797 2.21 4.474 7.417 1.367 10.524z" opacity="1" data-original="url(#M)"></path><circle cx="145.371" cy="320.586" r="21.073" fill="url(#N)" opacity="1" data-original="url(#N)"></circle><path fill="url(#O)" d="M128.693 304.168c-8.604 8.744-8.562 22.806.128 31.497 7.863 7.863 20.123 8.646 28.863 2.352 1.482-1.068 1.638-3.219.346-4.511z" opacity="1" data-original="url(#O)"></path><path fill="url(#P)" d="M131.802 307.278a7.454 7.454 0 0 0 10.537 10.537z" opacity="1" data-original="url(#P)"></path><path fill="url(#Q)" d="M143.575 334.972a7.45 7.45 0 0 0-1.973 7.035 22.383 22.383 0 0 0 14.593-3.009 7.456 7.456 0 0 0-12.62-4.026z" opacity="1" data-original="url(#Q)"></path><path fill="url(#R)" d="M130.987 337.57a5.789 5.789 0 0 0-7.028-9.183 22.3 22.3 0 0 0 4.862 7.278c.69.69 1.414 1.324 2.166 1.905z" opacity="1" data-original="url(#R)"></path><path fill="url(#S)" d="M128.693 304.168c8.744-8.604 22.806-8.562 31.497.128 7.863 7.863 8.646 20.123 2.351 28.863-1.068 1.482-3.219 1.638-4.511.346z" opacity="1" data-original="url(#S)"></path><path fill="url(#T)" d="M131.802 307.278a7.454 7.454 0 0 1 10.537 10.537z" opacity="1" data-original="url(#T)"></path><path fill="url(#U)" d="M159.497 319.05a7.45 7.45 0 0 1 7.035-1.973 22.383 22.383 0 0 1-3.009 14.593 7.456 7.456 0 0 1-4.026-12.62z" opacity="1" data-original="url(#U)"></path><path fill="url(#V)" d="M162.095 306.462a5.789 5.789 0 0 1-9.183-7.028 22.3 22.3 0 0 1 7.278 4.862c.689.69 1.324 1.414 1.905 2.166z" opacity="1" data-original="url(#V)"></path></g></svg>