<svg xmlns="http://www.w3.org/2000/svg" version="1.1" xmlns:xlink="http://www.w3.org/1999/xlink" width="512"
	height="512" x="0" y="0" viewBox="0 0 510 510" style="enable-background:new 0 0 512 512" xml:space="preserve"
	class="">
	<g>
		<linearGradient id="a">
			<stop offset="0" stop-color="#81b823"></stop>
			<stop offset="1" stop-color="#017b4e"></stop>
		</linearGradient>
		<linearGradient xlink:href="#a" id="i" x1="651.85" x2="752.757" y1="-129.115" y2="-129.115"
			gradientTransform="rotate(32.39 -344.783 -531.095)" gradientUnits="userSpaceOnUse"></linearGradient>
		<linearGradient id="b">
			<stop offset="0" stop-color="#017b4e" stop-opacity="0"></stop>
			<stop offset="1" stop-color="#026841"></stop>
		</linearGradient>
		<linearGradient xlink:href="#b" id="j" x1="702.303" x2="702.303" y1="-146.458" y2="-17.699"
			gradientTransform="rotate(32.39 -344.783 -531.095)" gradientUnits="userSpaceOnUse"></linearGradient>
		<linearGradient xlink:href="#b" id="k" x1="702.303" x2="702.303" y1="-184.383" y2="-51.645"
			gradientTransform="rotate(32.39 -344.783 -531.095)" gradientUnits="userSpaceOnUse"></linearGradient>
		<linearGradient xlink:href="#b" id="l" x1="702.303" x2="702.303" y1="-218.145" y2="-117.861"
			gradientTransform="rotate(32.39 -344.783 -531.095)" gradientUnits="userSpaceOnUse"></linearGradient>
		<linearGradient xlink:href="#b" id="m" x1="725.799" x2="686.949" y1="-131.59" y2="-127.427"
			gradientTransform="rotate(32.39 -344.783 -531.095)" gradientUnits="userSpaceOnUse"></linearGradient>
		<linearGradient id="n" x1="320.169" x2="289.665" y1="369.152" y2="369.152" gradientUnits="userSpaceOnUse">
			<stop offset="0" stop-color="#01525a" stop-opacity="0"></stop>
			<stop offset="1" stop-color="#01525a"></stop>
		</linearGradient>
		<linearGradient id="c">
			<stop offset="0" stop-color="#5a5a5a"></stop>
			<stop offset="1" stop-color="#444"></stop>
		</linearGradient>
		<linearGradient xlink:href="#c" id="o" x1="202.159" x2="307.841" y1="255" y2="255"
			gradientUnits="userSpaceOnUse"></linearGradient>
		<linearGradient id="d">
			<stop offset="0" stop-color="#433f43" stop-opacity="0"></stop>
			<stop offset="1" stop-color="#1a1a1a"></stop>
		</linearGradient>
		<linearGradient xlink:href="#d" id="p" x1="175.796" x2="318.289" y1="238.282" y2="268.281"
			gradientUnits="userSpaceOnUse"></linearGradient>
		<linearGradient xlink:href="#d" id="q" x1="261.563" x2="222.307" y1="255" y2="255"
			gradientUnits="userSpaceOnUse"></linearGradient>
		<linearGradient xlink:href="#d" id="r" x1="255" x2="255" y1="95.625" y2="22.113" gradientUnits="userSpaceOnUse">
		</linearGradient>
		<linearGradient xlink:href="#d" id="s" x1="269" x2="315.043" y1="255" y2="255" gradientUnits="userSpaceOnUse">
		</linearGradient>
		<linearGradient xlink:href="#d" id="t" x1="255" x2="255" y1="455" y2="520.069" gradientUnits="userSpaceOnUse">
		</linearGradient>
		<linearGradient id="e">
			<stop offset="0" stop-color="#433f43" stop-opacity="0"></stop>
			<stop offset="1"></stop>
		</linearGradient>
		<linearGradient xlink:href="#e" id="u" x1="255" x2="255" y1="203" y2="151.961" gradientUnits="userSpaceOnUse">
		</linearGradient>
		<linearGradient xlink:href="#e" id="v" x1="246.743" x2="209.243" y1="385.362" y2="265.362"
			gradientUnits="userSpaceOnUse"></linearGradient>
		<linearGradient id="f">
			<stop offset="0" stop-color="#bbec6c"></stop>
			<stop offset="1" stop-color="#81b823"></stop>
		</linearGradient>
		<linearGradient xlink:href="#f" id="w" x1="-3470.896" x2="-3431.153" y1="-875.583" y2="-875.583"
			gradientTransform="rotate(-30 450.635 -7130.17)" gradientUnits="userSpaceOnUse"></linearGradient>
		<linearGradient id="g">
			<stop offset="0" stop-color="#78a91f" stop-opacity="0"></stop>
			<stop offset=".163" stop-color="#73a620" stop-opacity=".163"></stop>
			<stop offset=".354" stop-color="#659e24" stop-opacity=".354"></stop>
			<stop offset=".559" stop-color="#4e912b" stop-opacity=".559"></stop>
			<stop offset=".774" stop-color="#2d8034" stop-opacity=".774"></stop>
			<stop offset=".994" stop-color="#036941" stop-opacity=".994"></stop>
			<stop offset="1" stop-color="#026841"></stop>
		</linearGradient>
		<linearGradient xlink:href="#g" id="x" x1="-3441.77" x2="-3457.071" y1="-876.558" y2="-874.919"
			gradientTransform="rotate(-30 450.635 -7130.17)" gradientUnits="userSpaceOnUse"></linearGradient>
		<linearGradient xlink:href="#f" id="y" x1="171.113" x2="237.613" y1="272.584" y2="341.084"
			gradientUnits="userSpaceOnUse"></linearGradient>
		<linearGradient xlink:href="#b" id="z" x1="188.819" x2="212.819" y1="328.04" y2="361.54"
			gradientUnits="userSpaceOnUse"></linearGradient>
		<linearGradient xlink:href="#a" id="A" x1="940.156" x2="979.899" y1="-57.571" y2="-57.571"
			gradientTransform="scale(-1 1) rotate(60 -10.379 -787.76)" gradientUnits="userSpaceOnUse"></linearGradient>
		<linearGradient xlink:href="#b" id="B" x1="969.281" x2="953.98" y1="-58.546" y2="-56.906"
			gradientTransform="scale(-1 1) rotate(60 -10.379 -787.76)" gradientUnits="userSpaceOnUse"></linearGradient>
		<linearGradient xlink:href="#f" id="C" x1="-1353.506" x2="-1313.763" y1="-1552.041" y2="-1552.041"
			gradientTransform="rotate(60 -1996.474 777.631)" gradientUnits="userSpaceOnUse"></linearGradient>
		<linearGradient xlink:href="#g" id="D" x1="-1324.381" x2="-1339.682" y1="-1553.016" y2="-1551.376"
			gradientTransform="rotate(60 -1996.474 777.631)" gradientUnits="userSpaceOnUse"></linearGradient>
		<linearGradient xlink:href="#f" id="E" x1="167.394" x2="206.061" y1="401.135" y2="415.135"
			gradientUnits="userSpaceOnUse"></linearGradient>
		<linearGradient xlink:href="#g" id="F" x1="174.526" x2="207.072" y1="410.198" y2="414.5"
			gradientUnits="userSpaceOnUse"></linearGradient>
		<linearGradient xlink:href="#f" id="G" x1="261.362" x2="336.406" y1="149.696" y2="220.672"
			gradientUnits="userSpaceOnUse"></linearGradient>
		<linearGradient xlink:href="#g" id="H" x1="312.994" x2="288.994" y1="189.335" y2="151.336"
			gradientUnits="userSpaceOnUse"></linearGradient>
		<linearGradient xlink:href="#f" id="I" x1="-625.942" x2="-525.036" y1="200.927" y2="200.927"
			gradientTransform="scale(-1 1) rotate(60 -312.365 447.377)" gradientUnits="userSpaceOnUse"></linearGradient>
		<linearGradient xlink:href="#g" id="J" x1="-575.489" x2="-575.489" y1="183.584" y2="312.344"
			gradientTransform="scale(-1 1) rotate(60 -312.365 447.377)" gradientUnits="userSpaceOnUse"></linearGradient>
		<linearGradient xlink:href="#g" id="K" x1="-575.489" x2="-575.489" y1="145.659" y2="278.397"
			gradientTransform="scale(-1 1) rotate(60 -312.365 447.377)" gradientUnits="userSpaceOnUse"></linearGradient>
		<linearGradient xlink:href="#g" id="L" x1="-575.489" x2="-575.489" y1="111.897" y2="212.182"
			gradientTransform="scale(-1 1) rotate(60 -312.365 447.377)" gradientUnits="userSpaceOnUse"></linearGradient>
		<linearGradient xlink:href="#g" id="M" x1="-551.994" x2="-590.843" y1="198.452" y2="202.615"
			gradientTransform="scale(-1 1) rotate(60 -312.365 447.377)" gradientUnits="userSpaceOnUse"></linearGradient>
		<linearGradient xlink:href="#c" id="N" x1="193.199" x2="207.44" y1="87.773" y2="87.773"
			gradientUnits="userSpaceOnUse"></linearGradient>
		<linearGradient xlink:href="#c" id="O" x1="179.156" x2="193.397" y1="87.773" y2="87.773"
			gradientUnits="userSpaceOnUse"></linearGradient>
		<linearGradient xlink:href="#c" id="P" x1="188.226" x2="193.976" y1="96.892" y2="103.892"
			gradientUnits="userSpaceOnUse"></linearGradient>
		<linearGradient xlink:href="#c" id="Q" x1="172.225" x2="214.371" y1="129.121" y2="129.121"
			gradientUnits="userSpaceOnUse"></linearGradient>
		<linearGradient id="h">
			<stop offset="0" stop-color="#fef0ae"></stop>
			<stop offset="1" stop-color="#fac600"></stop>
		</linearGradient>
		<linearGradient xlink:href="#h" id="R" x1="178.144" x2="194.394" y1="122.107" y2="129.857"
			gradientUnits="userSpaceOnUse"></linearGradient>
		<linearGradient xlink:href="#c" id="S" x1="188.008" x2="193.008" y1="115.125" y2="118.041"
			gradientUnits="userSpaceOnUse"></linearGradient>
		<linearGradient xlink:href="#c" id="T" x1="175.486" x2="189.311" y1="143.91" y2="143.91"
			gradientUnits="userSpaceOnUse"></linearGradient>
		<linearGradient xlink:href="#c" id="U" x1="170.933" x2="177.416" y1="125.24" y2="125.24"
			gradientUnits="userSpaceOnUse"></linearGradient>
		<linearGradient xlink:href="#h" id="V" x1="190.749" x2="208.249" y1="124.811" y2="133.811"
			gradientUnits="userSpaceOnUse"></linearGradient>
		<linearGradient xlink:href="#c" id="W" x1="192.679" x2="197.345" y1="116.723" y2="119.556"
			gradientUnits="userSpaceOnUse"></linearGradient>
		<linearGradient xlink:href="#c" id="X" x1="196.918" x2="210.743" y1="143.91" y2="143.91"
			gradientUnits="userSpaceOnUse"></linearGradient>
		<linearGradient xlink:href="#c" id="Y" x1="208.813" x2="215.295" y1="125.24" y2="125.24"
			gradientUnits="userSpaceOnUse"></linearGradient>
		<path fill="url(#i)"
			d="M281.324 342.136c-19.532 30.805-23.961 66.878-15.232 99.542 1.987 7.434 9.346 12.1 16.917 10.726 33.266-6.038 64.004-25.43 83.535-56.235 19.532-30.805 23.961-66.878 15.232-99.542-1.987-7.434-9.346-12.1-16.918-10.726-33.265 6.037-64.003 25.429-83.534 56.235z"
			opacity="1" data-original="url(#i)"></path>
		<path fill="url(#j)"
			d="M366.547 396.17a125.53 125.53 0 0 1-12.731 16.801l-7.005.257c-33.315 1.228-60.061 14.573-74.356 37.118 14.294-22.545 14.956-52.428 1.857-83.085l-2.756-6.446a125.564 125.564 0 0 1 9.766-18.681c19.532-30.807 50.268-50.197 83.536-56.236 7.574-1.375 14.933 3.291 16.921 10.728 8.729 32.667 4.3 68.737-15.232 99.544z"
			opacity="1" data-original="url(#j)"></path>
		<path fill="url(#k)"
			d="M298.458 409.333c14.294-22.545 41.04-35.89 74.356-37.118l5.653-.207c9.006-24.614 9.84-50.949 3.312-75.381-1.987-7.437-9.346-12.103-16.921-10.728-24.882 4.516-48.346 16.504-66.767 35.148l2.224 5.201c13.1 30.657 12.438 60.54-1.857 83.085z"
			opacity="1" data-original="url(#k)"></path>
		<path fill="url(#l)"
			d="M328.672 361.68c11.768-18.561 31.98-30.878 57.344-35.34a126.084 126.084 0 0 0-4.237-29.713c-1.987-7.437-9.346-12.103-16.921-10.728a126.092 126.092 0 0 0-28.682 8.841c6.783 24.844 4.264 48.379-7.504 66.94z"
			opacity="1" data-original="url(#l)"></path>
		<path fill="url(#m)"
			d="M283.009 452.404c33.266-6.038 64.004-25.43 83.535-56.235s23.961-66.878 15.232-99.542a14.74 14.74 0 0 0-6.365-8.666L272.456 450.344a14.743 14.743 0 0 0 10.553 2.06z"
			opacity="1" data-original="url(#m)"></path>
		<path fill="url(#n)"
			d="M281.324 342.136c-19.532 30.805-23.961 66.878-15.232 99.542 1.987 7.434 9.346 12.1 16.917 10.726 33.266-6.038 64.004-25.43 83.535-56.235 19.532-30.805 23.961-66.878 15.232-99.542-1.987-7.434-9.346-12.1-16.918-10.726-33.265 6.037-64.003 25.429-83.534 56.235z"
			opacity="1" data-original="url(#n)"></path>
		<path fill="url(#o)"
			d="M307.841 32.045v445.227c0 16.364-23.863 32.727-53.181 32.727-30.682 0-52.5-16.364-52.5-32.727V32.045C202.16 12.954 223.978 0 254.66 0c29.318 0 53.181 12.954 53.181 32.045z"
			opacity="1" data-original="url(#o)"></path>
		<path fill="url(#p)"
			d="M254.659 490c-20.591 0-31.669-9.25-32.5-12.851V32.045c0-4.323 10.86-12.045 32.5-12.045 21.554 0 33.182 8.55 33.182 12.045v444.844C286.315 480.956 273.638 490 254.659 490z"
			opacity="1" data-original="url(#p)"></path>
		<path fill="url(#q)"
			d="M254.659 490c-20.591 0-31.669-9.25-32.5-12.851V32.045c0-4.323 10.86-12.045 32.5-12.045 21.554 0 33.182 8.55 33.182 12.045v444.844C286.315 480.956 273.638 490 254.659 490z"
			opacity="1" data-original="url(#q)"></path>
		<path fill="url(#r)"
			d="M254.659 20c-21.64 0-32.5 7.722-32.5 12.045v200.073h65.682V32.045c0-3.495-11.628-12.045-33.182-12.045z"
			opacity="1" data-original="url(#r)"></path>
		<path fill="url(#s)"
			d="M254.659 0c-30.682 0-52.5 12.954-52.5 32.045v445.227c0 16.364 21.818 32.727 52.5 32.727 29.319 0 53.182-16.364 53.182-32.727V32.045C307.841 12.954 283.978 0 254.659 0z"
			opacity="1" data-original="url(#s)"></path>
		<path fill="url(#t)"
			d="M202.159 291.251v186.021c0 16.364 21.818 32.727 52.5 32.727 29.319 0 53.182-16.364 53.182-32.727V291.251z"
			opacity="1" data-original="url(#t)"></path>
		<path fill="url(#u)" d="M202.159 124.077H307.84v192.5H202.159z" opacity="1" data-original="url(#u)"></path>
		<path fill="url(#v)"
			d="M235.146 270.682h-32.987v206.591c0 16.364 21.818 32.727 52.5 32.727 29.319 0 53.182-16.364 53.182-32.727V343.377z"
			opacity="1" data-original="url(#v)"></path>
		<path fill="url(#w)"
			d="M181.795 247.046c7.183 12.441 18.962 20.575 31.955 23.494a5.821 5.821 0 0 0 6.832-3.945c3.968-12.711 2.814-26.979-4.369-39.42s-18.962-20.575-31.955-23.494a5.823 5.823 0 0 0-6.833 3.945c-3.967 12.711-2.813 26.978 4.37 39.42z"
			opacity="1" data-original="url(#w)"></path>
		<path fill="url(#x)"
			d="M220.582 266.595c3.968-12.711 2.814-26.979-4.369-39.42s-18.962-20.575-31.955-23.494a5.809 5.809 0 0 0-4.186.638l37.864 65.582a5.812 5.812 0 0 0 2.646-3.306z"
			opacity="1" data-original="url(#x)"></path>
		<path fill="url(#y)"
			d="M215.35 328.8c-4.12.51-7.87-2.4-8.38-6.51-.52-4.11 2.4-7.86 6.51-8.38 10.06-1.25 17.23-10.47 15.97-20.53-.83-6.59-4.17-12.46-9.41-16.54-5.25-4.08-11.76-5.87-18.35-5.05-8.74 1.1-16.53 5.53-21.92 12.48-5.41 6.95-7.78 15.58-6.69 24.32.36 2.87.99 5.65 1.88 8.32 2.66 8 7.61 15.04 14.42 20.33 3.91 3.03 8.23 5.34 12.78 6.87v15.6c-7.91-1.9-15.38-5.48-21.99-10.62-12.24-9.53-20.05-23.24-21.98-38.64-.44-3.52-.5-7.03-.17-10.48.84-9.01 4.21-17.6 9.9-24.92 7.86-10.11 19.2-16.55 31.91-18.14 21.8-2.73 41.77 12.8 44.5 34.61 2.29 18.27-10.71 34.99-28.98 37.28z"
			opacity="1" data-original="url(#y)"></path>
		<path fill="url(#z)"
			d="M189.38 337.24c-6.81-5.29-11.76-12.33-14.42-20.33a43.33 43.33 0 0 1-1.88-8.32c-1.09-8.74 1.28-17.37 6.69-24.32a33.196 33.196 0 0 1 2.413-2.77h-18.495a47.496 47.496 0 0 0-5.668 18.47c-.33 3.45-.27 6.96.17 10.48 1.93 15.4 9.74 29.11 21.98 38.64 6.61 5.14 14.08 8.72 21.99 10.62v-15.6a43.507 43.507 0 0 1-12.78-6.87z"
			opacity="1" data-original="url(#z)"></path>
		<path fill="url(#A)"
			d="M167.454 400.538c12.441 7.183 20.575 18.962 23.494 31.955a5.823 5.823 0 0 1-3.945 6.833c-12.711 3.968-26.979 2.814-39.42-4.369s-20.575-18.962-23.494-31.955a5.821 5.821 0 0 1 3.945-6.832c12.711-3.969 26.979-2.815 39.42 4.368z"
			opacity="1" data-original="url(#A)"></path>
		<path fill="url(#B)"
			d="M187.003 439.325c-12.711 3.968-26.979 2.814-39.42-4.369s-20.575-18.962-23.494-31.955a5.809 5.809 0 0 1 .638-4.186l65.582 37.864a5.798 5.798 0 0 1-3.306 2.646z"
			opacity="1" data-original="url(#B)"></path>
		<path fill="url(#C)"
			d="M342.546 169.571c-12.441 7.183-20.575 18.962-23.494 31.955a5.823 5.823 0 0 0 3.945 6.833c12.711 3.968 26.979 2.814 39.42-4.369s20.575-18.962 23.494-31.955a5.823 5.823 0 0 0-3.945-6.833c-12.711-3.968-26.979-2.814-39.42 4.369z"
			opacity="1" data-original="url(#C)"></path>
		<path fill="url(#D)"
			d="M322.997 208.358c12.711 3.968 26.979 2.814 39.42-4.369s20.575-18.962 23.494-31.955a5.809 5.809 0 0 0-.638-4.186l-65.582 37.864a5.798 5.798 0 0 0 3.306 2.646z"
			opacity="1" data-original="url(#D)"></path>
		<path fill="url(#E)"
			d="M203.12 483.25c.05.16.1.32.16.49l-11.05-21.71c-8.87-15.69-13.58-33.33-13.58-51.67 0-23.68 7.85-46.21 22.38-64.85.2-.26.4-.51.61-.76.17-.21.34-.43.52-.64v28.05c-.39.83-.77 1.66-1.13 2.49-4.84 11.18-7.38 23.26-7.38 35.71 0 12.46 2.54 24.54 7.38 35.72l1.13 2.34v28.85c0 1.53.19 3.07.57 4.59.05.25.12.5.2.76.06.21.12.42.19.63z"
			opacity="1" data-original="url(#E)"></path>
		<path fill="url(#F)"
			d="M203.12 483.25c.05.16.1.32.16.49l-11.05-21.71c-8.87-15.69-13.58-33.33-13.58-51.67 0-23.68 7.85-46.21 22.38-64.85.2-.26.4-.51.61-.76.17-.21.34-.43.52-.64v28.05c-.39.83-.77 1.66-1.13 2.49-4.84 11.18-7.38 23.26-7.38 35.71 0 12.46 2.54 24.54 7.38 35.72l1.13 2.34v28.85c0 1.53.19 3.07.57 4.59.05.25.12.5.2.76.06.21.12.42.19.63z"
			opacity="1" data-original="url(#F)"></path>
		<path fill="url(#G)"
			d="M307.84 234.37c6.16-12.38 9.41-25.99 9.41-40.08s-3.25-27.71-9.41-40.08c-4.78-9.59-11.3-18.43-19.42-26.17l-14.94-14.25 10.35-10.85 14.94 14.24c3.25 3.1 6.28 6.35 9.07 9.74 15.83 19.12 24.41 42.61 24.41 67.37s-8.58 48.25-24.41 67.37z"
			opacity="1" data-original="url(#G)"></path>
		<path fill="url(#H)"
			d="M332.25 194.29c0 14.97-3.15 29.46-9.12 42.82h-15.29v-2.78a89.507 89.507 0 0 0 9.41-40.04c0-14.09-3.25-27.71-9.41-40.08-4.78-9.59-11.3-18.43-19.42-26.17l-14.94-14.25 10.35-10.85 14.94 14.24c3.25 3.1 6.28 6.35 9.07 9.74 15.83 19.12 24.41 42.61 24.41 67.37z"
			opacity="1" data-original="url(#H)"></path>
		<path fill="url(#I)"
			d="M255.726 52.569c31.589 18.238 52.239 48.145 59.65 81.132 1.687 7.508-2.67 15.055-10.016 17.348-32.274 10.075-68.499 7.145-100.088-11.092-31.589-18.238-52.239-48.145-59.65-81.132-1.687-7.508 2.67-15.055 10.016-17.348 32.274-10.076 68.5-7.146 100.088 11.092z"
			opacity="1" data-original="url(#I)"></path>
		<path fill="url(#I)"
			d="M255.726 52.569c31.589 18.238 52.239 48.145 59.65 81.132 1.687 7.508-2.67 15.055-10.016 17.348-32.274 10.075-68.499 7.145-100.088-11.092-31.589-18.238-52.239-48.145-59.65-81.132-1.687-7.508 2.67-15.055 10.016-17.348 32.274-10.076 68.5-7.146 100.088 11.092z"
			opacity="1" data-original="url(#I)"></path>
		<path fill="url(#J)"
			d="M205.272 139.958c6.2 3.58 12.573 6.57 19.07 8.983l6.326-3.021c30.087-14.359 59.972-14.937 83.09-1.589-23.119-13.348-37.561-39.517-40.169-72.753l-.547-6.989a125.567 125.567 0 0 0-17.315-12.023c-31.59-18.238-67.813-21.168-100.089-11.092-7.348 2.294-11.705 9.84-10.018 17.351 7.413 32.99 28.062 62.895 59.652 81.133z"
			opacity="1" data-original="url(#J)"></path>
		<path fill="url(#K)"
			d="M271.702 120.051c-23.119-13.348-53.003-12.77-83.09 1.589l-5.105 2.437c-19.392-17.632-32.342-40.579-37.886-65.252-1.688-7.511 2.669-15.057 10.018-17.351 24.14-7.536 50.487-7.794 75.453.184l.442 5.639c2.607 33.236 17.049 59.406 40.168 72.754z"
			opacity="1" data-original="url(#K)"></path>
		<path fill="url(#L)"
			d="M222.837 91.839c-19.033-10.989-42.652-12.53-67.194-4.723a126.048 126.048 0 0 1-10.023-28.291c-1.688-7.511 2.669-15.057 10.018-17.351a126.014 126.014 0 0 1 29.512-5.465c5.51 25.157 18.655 44.841 37.687 55.83z"
			opacity="1" data-original="url(#L)"></path>
		<path fill="url(#M)"
			d="M305.36 151.048c-32.274 10.075-68.499 7.145-100.088-11.092-31.589-18.238-52.238-48.145-59.65-81.132a14.741 14.741 0 0 1 1.621-10.629l166.512 96.136a14.738 14.738 0 0 1-8.395 6.717z"
			opacity="1" data-original="url(#M)"></path>
		<path fill="url(#N)"
			d="M197.199 99.351a4 4 0 0 1-4-4v-2.304a19.83 19.83 0 0 1 5.847-14.116l1.566-1.566a4 4 0 0 1 5.656 5.658l-1.566 1.565a11.886 11.886 0 0 0-3.503 8.459v2.304a4 4 0 0 1-4 4z"
			opacity="1" data-original="url(#N)"></path>
		<path fill="url(#O)"
			d="M189.397 99.351a4 4 0 0 1-4-4v-2.304c0-3.195-1.245-6.2-3.504-8.46l-1.565-1.564a4.001 4.001 0 0 1 5.656-5.658l1.566 1.565a19.834 19.834 0 0 1 5.847 14.117v2.304a4 4 0 0 1-4 4z"
			opacity="1" data-original="url(#O)"></path>
		<path fill="url(#P)"
			d="M200.03 110.917h-13.463c-4.394 0-7.597-4.161-6.473-8.409l.663-2.506a10.958 10.958 0 0 1 10.594-8.156h3.896c4.973 0 9.323 3.348 10.594 8.156l.663 2.506c1.123 4.249-2.08 8.409-6.474 8.409z"
			opacity="1" data-original="url(#P)"></path>
		<circle cx="193.298" cy="129.121" r="21.073" fill="url(#Q)" opacity="1" data-original="url(#Q)"></circle>
		<path fill="url(#R)"
			d="M193.115 105.719c-12.267.099-22.181 10.072-22.181 22.362 0 11.12 8.115 20.343 18.746 22.072 1.803.293 3.435-1.118 3.435-2.945z"
			opacity="1" data-original="url(#R)"></path>
		<path fill="url(#S)" d="M193.115 110.117c-4.032.098-7.271 3.395-7.271 7.45s3.239 7.352 7.271 7.45z" opacity="1"
			data-original="url(#S)"></path>
		<path fill="url(#T)"
			d="M181.856 138.024a7.45 7.45 0 0 0-6.37 3.58 22.385 22.385 0 0 0 12.446 8.191 7.454 7.454 0 0 0-6.076-11.771z"
			opacity="1" data-original="url(#T)"></path>
		<path fill="url(#U)"
			d="M171.118 130.96a5.79 5.79 0 0 0 1.524-11.463 22.29 22.29 0 0 0-1.708 8.584 22.23 22.23 0 0 0 .184 2.879z"
			opacity="1" data-original="url(#U)"></path>
		<path fill="url(#V)"
			d="M193.115 105.719c12.267.099 22.181 10.072 22.181 22.362 0 11.12-8.115 20.343-18.746 22.072-1.803.293-3.435-1.118-3.435-2.945z"
			opacity="1" data-original="url(#V)"></path>
		<path fill="url(#W)" d="M193.115 110.117c4.032.098 7.271 3.395 7.271 7.45s-3.239 7.352-7.271 7.45z" opacity="1"
			data-original="url(#W)"></path>
		<path fill="url(#X)"
			d="M204.373 138.024a7.45 7.45 0 0 1 6.37 3.58 22.385 22.385 0 0 1-12.446 8.191 7.454 7.454 0 0 1 6.076-11.771z"
			opacity="1" data-original="url(#X)"></path>
		<path fill="url(#Y)"
			d="M215.111 130.96a5.79 5.79 0 0 1-1.524-11.463 22.29 22.29 0 0 1 1.708 8.584 22.23 22.23 0 0 1-.184 2.879z"
			opacity="1" data-original="url(#Y)"></path>
	</g>
</svg>