<svg xmlns="http://www.w3.org/2000/svg" version="1.1" xmlns:xlink="http://www.w3.org/1999/xlink" width="512"
	height="512" x="0" y="0" viewBox="0 0 510 510" style="enable-background:new 0 0 512 512" xml:space="preserve"
	class="">
	<g>
		<linearGradient id="a">
			<stop offset="0" stop-color="#81b823"></stop>
			<stop offset="1" stop-color="#017b4e"></stop>
		</linearGradient>
		<linearGradient xlink:href="#a" id="i" x1="-3860.25" x2="-3820.507" y1="-575.305" y2="-575.305"
			gradientTransform="rotate(-74.99 -1288.703 -2687.945)" gradientUnits="userSpaceOnUse"></linearGradient>
		<linearGradient id="b">
			<stop offset="0" stop-color="#017b4e" stop-opacity="0"></stop>
			<stop offset="1" stop-color="#026841"></stop>
		</linearGradient>
		<linearGradient xlink:href="#b" id="j" x1="-3831.124" x2="-3846.425" y1="-576.28" y2="-574.64"
			gradientTransform="rotate(-74.99 -1288.703 -2687.945)" gradientUnits="userSpaceOnUse"></linearGradient>
		<linearGradient xlink:href="#a" id="k" x1="833.888" x2="934.794" y1="-672.214" y2="-672.214"
			gradientTransform="rotate(32.39 -876.296 -1062.499)" gradientUnits="userSpaceOnUse"></linearGradient>
		<linearGradient xlink:href="#b" id="l" x1="884.341" x2="884.341" y1="-689.557" y2="-560.797"
			gradientTransform="rotate(32.39 -876.296 -1062.499)" gradientUnits="userSpaceOnUse"></linearGradient>
		<linearGradient xlink:href="#b" id="m" x1="884.341" x2="884.341" y1="-727.482" y2="-594.744"
			gradientTransform="rotate(32.39 -876.296 -1062.499)" gradientUnits="userSpaceOnUse"></linearGradient>
		<linearGradient xlink:href="#b" id="n" x1="884.341" x2="884.341" y1="-761.244" y2="-660.959"
			gradientTransform="rotate(32.39 -876.296 -1062.499)" gradientUnits="userSpaceOnUse"></linearGradient>
		<linearGradient xlink:href="#b" id="o" x1="907.836" x2="868.987" y1="-674.689" y2="-670.526"
			gradientTransform="rotate(32.39 -876.296 -1062.499)" gradientUnits="userSpaceOnUse"></linearGradient>
		<linearGradient id="p" x1="407.732" x2="374.732" y1="204.758" y2="230.758" gradientUnits="userSpaceOnUse">
			<stop offset="0" stop-color="#01525a" stop-opacity="0"></stop>
			<stop offset="1" stop-color="#01525a"></stop>
		</linearGradient>
		<linearGradient id="c">
			<stop offset="0" stop-color="#5a5a5a"></stop>
			<stop offset="1" stop-color="#444"></stop>
		</linearGradient>
		<linearGradient xlink:href="#c" id="q" x1="117.944" x2="402.426" y1="205.056" y2="489.538"
			gradientUnits="userSpaceOnUse"></linearGradient>
		<linearGradient id="d">
			<stop offset="0" stop-color="#433f43" stop-opacity="0"></stop>
			<stop offset="1" stop-color="#1a1a1a"></stop>
		</linearGradient>
		<linearGradient xlink:href="#d" id="r" x1="81.099" x2="433.099" y1="156.803" y2="531.803"
			gradientUnits="userSpaceOnUse"></linearGradient>
		<linearGradient xlink:href="#d" id="s" x1="184" x2="120.992" y1="342.722" y2="342.722"
			gradientUnits="userSpaceOnUse"></linearGradient>
		<linearGradient xlink:href="#d" id="t" x1="250.521" x2="220.521" y1="321.551" y2="186.551"
			gradientUnits="userSpaceOnUse"></linearGradient>
		<linearGradient xlink:href="#d" id="u" x1="255" x2="255" y1="456" y2="517.131" gradientUnits="userSpaceOnUse">
		</linearGradient>
		<linearGradient xlink:href="#d" id="v" x1="365" x2="412.17" y1="342.722" y2="342.722"
			gradientUnits="userSpaceOnUse"></linearGradient>
		<linearGradient id="e">
			<stop offset="0" stop-color="#433f43" stop-opacity="0"></stop>
			<stop offset="1"></stop>
		</linearGradient>
		<linearGradient xlink:href="#e" id="w" x1="192.927" x2="142.427" y1="287.409" y2="203.909"
			gradientUnits="userSpaceOnUse"></linearGradient>
		<linearGradient xlink:href="#e" id="x" x1="358.317" x2="326.317" y1="469.515" y2="431.015"
			gradientUnits="userSpaceOnUse"></linearGradient>
		<linearGradient id="f">
			<stop offset="0" stop-color="#bbec6c"></stop>
			<stop offset="1" stop-color="#81b823"></stop>
		</linearGradient>
		<linearGradient xlink:href="#f" id="y" x1="-481.516" x2="-441.774" y1="-854.629" y2="-854.629"
			gradientTransform="rotate(-120 281.431 -422.337)" gradientUnits="userSpaceOnUse"></linearGradient>
		<linearGradient id="g">
			<stop offset="0" stop-color="#78a91f" stop-opacity="0"></stop>
			<stop offset=".163" stop-color="#73a620" stop-opacity=".163"></stop>
			<stop offset=".354" stop-color="#659e24" stop-opacity=".354"></stop>
			<stop offset=".559" stop-color="#4e912b" stop-opacity=".559"></stop>
			<stop offset=".774" stop-color="#2d8034" stop-opacity=".774"></stop>
			<stop offset=".994" stop-color="#036941" stop-opacity=".994"></stop>
			<stop offset="1" stop-color="#026841"></stop>
		</linearGradient>
		<linearGradient xlink:href="#g" id="z" x1="-452.391" x2="-467.692" y1="-855.604" y2="-853.965"
			gradientTransform="rotate(-120 281.431 -422.337)" gradientUnits="userSpaceOnUse"></linearGradient>
		<linearGradient xlink:href="#f" id="A" x1="311.003" x2="356.67" y1="358.114" y2="431.114"
			gradientUnits="userSpaceOnUse"></linearGradient>
		<linearGradient xlink:href="#g" id="B" x1="-1075.08" x2="-1118.414" y1="-1274.836" y2="-1256.836"
			gradientTransform="matrix(0 1 1 0 1586.171 1462.554)" gradientUnits="userSpaceOnUse"></linearGradient>
		<linearGradient xlink:href="#f" id="C" x1="119.647" x2="140.897" y1="195.163" y2="210.663"
			gradientUnits="userSpaceOnUse"></linearGradient>
		<linearGradient xlink:href="#f" id="D" x1="-1780.917" x2="-1741.174" y1="-1127.337" y2="-1127.337"
			gradientTransform="rotate(16.66 -5228.239 6193.655)" gradientUnits="userSpaceOnUse"></linearGradient>
		<linearGradient xlink:href="#g" id="E" x1="-1751.792" x2="-1767.093" y1="-1128.311" y2="-1126.672"
			gradientTransform="rotate(16.66 -5228.239 6193.655)" gradientUnits="userSpaceOnUse"></linearGradient>
		<linearGradient id="F" x1="182.322" x2="230.309" y1="219.237" y2="219.237" gradientUnits="userSpaceOnUse">
			<stop offset="0" stop-color="#433f43" stop-opacity="0"></stop>
			<stop offset=".317" stop-color="#3b373b" stop-opacity=".317"></stop>
			<stop offset=".818" stop-color="#242324" stop-opacity=".818"></stop>
			<stop offset="1" stop-color="#1a1a1a"></stop>
		</linearGradient>
		<linearGradient xlink:href="#f" id="G" x1="130.497" x2="166.388" y1="222.673" y2="272.564"
			gradientUnits="userSpaceOnUse"></linearGradient>
		<linearGradient xlink:href="#f" id="H" x1="-3241.374" x2="-3140.468" y1="576.142" y2="576.142"
			gradientTransform="scale(-1 1) rotate(15 188.859 12065.114)" gradientUnits="userSpaceOnUse">
		</linearGradient>
		<linearGradient xlink:href="#g" id="I" x1="-3190.921" x2="-3190.921" y1="558.798" y2="687.558"
			gradientTransform="scale(-1 1) rotate(15 188.859 12065.114)" gradientUnits="userSpaceOnUse">
		</linearGradient>
		<linearGradient xlink:href="#g" id="J" x1="-3190.921" x2="-3190.921" y1="520.874" y2="653.612"
			gradientTransform="scale(-1 1) rotate(15 188.859 12065.114)" gradientUnits="userSpaceOnUse">
		</linearGradient>
		<linearGradient xlink:href="#g" id="K" x1="-3190.921" x2="-3190.921" y1="487.112" y2="587.396"
			gradientTransform="scale(-1 1) rotate(15 188.859 12065.114)" gradientUnits="userSpaceOnUse">
		</linearGradient>
		<linearGradient xlink:href="#g" id="L" x1="-3167.426" x2="-3206.275" y1="573.667" y2="577.829"
			gradientTransform="scale(-1 1) rotate(15 188.859 12065.114)" gradientUnits="userSpaceOnUse">
		</linearGradient>
		<linearGradient xlink:href="#c" id="M" x1="1786.506" x2="1800.711" y1="1987.689" y2="1987.689"
			gradientTransform="rotate(45 3308.067 -749.131)" gradientUnits="userSpaceOnUse"></linearGradient>
		<linearGradient xlink:href="#c" id="N" x1="1772.545" x2="1786.75" y1="1987.689" y2="1987.689"
			gradientTransform="rotate(45 3308.067 -749.131)" gradientUnits="userSpaceOnUse"></linearGradient>
		<linearGradient xlink:href="#c" id="O" x1="1781.87" x2="1788.12" y1="1997.49" y2="2004.49"
			gradientTransform="rotate(45 3308.067 -749.131)" gradientUnits="userSpaceOnUse"></linearGradient>
		<linearGradient xlink:href="#c" id="P" x1="1778.591" x2="1790.841" y1="2022.511" y2="2030.511"
			gradientTransform="rotate(45 3308.067 -749.131)" gradientUnits="userSpaceOnUse"></linearGradient>
		<linearGradient xlink:href="#d" id="Q" x1="1788.419" x2="1775.919" y1="2028.082" y2="2025.832"
			gradientTransform="rotate(45 3308.067 -749.131)" gradientUnits="userSpaceOnUse"></linearGradient>
		<linearGradient xlink:href="#d" id="R" x1="1786.628" x2="1786.628" y1="2032.723" y2="2050.223"
			gradientTransform="rotate(45 3308.067 -749.131)" gradientUnits="userSpaceOnUse"></linearGradient>
		<linearGradient id="h">
			<stop offset="0" stop-color="#fd8087"></stop>
			<stop offset="1" stop-color="#e74335"></stop>
		</linearGradient>
		<linearGradient xlink:href="#h" id="S" x1="1762.861" x2="1776.194" y1="2018.414" y2="2025.081"
			gradientTransform="rotate(45 3308.067 -749.131)" gradientUnits="userSpaceOnUse"></linearGradient>
		<linearGradient xlink:href="#c" id="T" x1="1760.068" x2="1775.89" y1="2039.419" y2="2039.419"
			gradientTransform="rotate(45 3308.067 -749.131)" gradientUnits="userSpaceOnUse"></linearGradient>
		<linearGradient xlink:href="#c" id="U" x1="1765.683" x2="1772.683" y1="2010.137" y2="2015.804"
			gradientTransform="rotate(45 3308.067 -749.131)" gradientUnits="userSpaceOnUse"></linearGradient>
		<linearGradient xlink:href="#h" id="V" x1="1787.635" x2="1805.302" y1="2018.306" y2="2027.473"
			gradientTransform="rotate(45 3308.067 -749.131)" gradientUnits="userSpaceOnUse"></linearGradient>
		<linearGradient xlink:href="#c" id="W" x1="1801.028" x2="1807.278" y1="2036.403" y2="2041.153"
			gradientTransform="rotate(45 3308.067 -749.131)" gradientUnits="userSpaceOnUse"></linearGradient>
		<linearGradient xlink:href="#c" id="X" x1="1799.325" x2="1811.875" y1="2011.998" y2="2011.998"
			gradientTransform="rotate(45 3308.067 -749.131)" gradientUnits="userSpaceOnUse"></linearGradient>
		<path fill="url(#i)"
			d="M86.818 343.16c13.877 3.718 27.957 1.14 39.208-5.983a5.821 5.821 0 0 0 2.042-7.621c-6.182-11.794-17.087-21.067-30.964-24.785s-27.957-1.14-39.208 5.983a5.821 5.821 0 0 0-2.042 7.621c6.183 11.794 17.087 21.067 30.964 24.785z"
			opacity="1" data-original="url(#i)" class=""></path>
		<path fill="url(#j)"
			d="M128.068 329.556c-6.182-11.794-17.087-21.067-30.964-24.785s-27.957-1.14-39.208 5.983a5.809 5.809 0 0 0-2.509 3.412l73.147 19.6a5.807 5.807 0 0 0-.466-4.21z"
			opacity="1" data-original="url(#j)" class=""></path>
		<path fill="url(#k)"
			d="M358.309 183.109c-19.532 30.805-23.961 66.878-15.232 99.542 1.987 7.434 9.346 12.1 16.917 10.726 33.266-6.038 64.004-25.43 83.535-56.235 19.532-30.805 23.961-66.878 15.232-99.542-1.987-7.434-9.346-12.1-16.917-10.726-33.265 6.038-64.003 25.43-83.535 56.235z"
			opacity="1" data-original="url(#k)"></path>
		<path fill="url(#l)"
			d="M443.532 237.143a125.53 125.53 0 0 1-12.731 16.801l-7.005.257c-33.315 1.228-60.061 14.573-74.356 37.118 14.294-22.545 14.956-52.428 1.857-83.085l-2.756-6.446a125.564 125.564 0 0 1 9.766-18.681c19.532-30.807 50.268-50.197 83.536-56.236 7.574-1.375 14.933 3.291 16.921 10.728 8.729 32.667 4.301 68.738-15.232 99.544z"
			opacity="1" data-original="url(#l)" class=""></path>
		<path fill="url(#m)"
			d="M375.444 250.307c14.294-22.545 41.04-35.89 74.356-37.118l5.653-.207c9.006-24.614 9.84-50.949 3.312-75.381-1.987-7.437-9.346-12.103-16.921-10.728-24.882 4.516-48.346 16.504-66.767 35.148l2.224 5.201c13.099 30.656 12.437 60.539-1.857 83.085z"
			opacity="1" data-original="url(#m)"></path>
		<path fill="url(#n)"
			d="M405.658 202.654c11.768-18.561 31.98-30.878 57.344-35.34a126.084 126.084 0 0 0-4.237-29.713c-1.987-7.437-9.346-12.103-16.921-10.728a126.092 126.092 0 0 0-28.682 8.841c6.783 24.844 4.264 48.379-7.504 66.94z"
			opacity="1" data-original="url(#n)"></path>
		<path fill="url(#o)"
			d="M359.995 293.377c33.266-6.038 64.004-25.43 83.535-56.235 19.532-30.805 23.961-66.878 15.232-99.542a14.74 14.74 0 0 0-6.365-8.666L349.442 291.317a14.743 14.743 0 0 0 10.553 2.06z"
			opacity="1" data-original="url(#o)"></path>
		<path fill="url(#p)"
			d="M358.309 183.109c-19.532 30.805-23.961 66.878-15.232 99.542 1.987 7.434 9.346 12.1 16.917 10.726 33.266-6.038 64.004-25.43 83.535-56.235 19.532-30.805 23.961-66.878 15.232-99.542-1.987-7.434-9.346-12.1-16.917-10.726-33.265 6.038-64.003 25.43-83.535 56.235z"
			opacity="1" data-original="url(#p)" class=""></path>
		<path fill="url(#q)"
			d="M254.659 175.444c-84.998 0-154.357 66.639-154.357 142.798v47.6C100.302 442.002 171.7 510 254.659 510s155.039-68.679 155.039-144.158v-47.6c0-78.199-72.08-142.798-155.039-142.798zm49.64 190.398c0 27.2-22.439 52.359-49.64 52.359-27.199 0-48.959-25.159-48.959-52.359v-47.6c0-25.84 21.76-50.999 48.959-50.999 27.2 0 49.64 25.159 49.64 50.999z"
			opacity="1" data-original="url(#q)"></path>
		<path fill="url(#r)"
			d="M254.659 490c-34.354 0-68.831-13.885-94.592-38.094-25.271-23.749-39.766-55.118-39.766-86.064v-47.6c0-31.06 14.205-62.171 38.973-85.358 25.79-24.144 59.665-37.44 95.385-37.44 34.823 0 69.502 13.429 95.143 36.843 25.728 23.493 39.896 54.019 39.896 85.955v47.6c0 30.647-14.61 61.917-40.086 85.79C323.593 476.016 288.983 490 254.659 490zm0-242.757c-37.38 0-68.959 32.514-68.959 70.999v47.6c0 39.223 31.579 72.359 68.959 72.359 37.749 0 69.64-33.137 69.64-72.359v-47.6c0-37.822-32.542-70.999-69.64-70.999z"
			opacity="1" data-original="url(#r)" class=""></path>
		<path fill="url(#s)"
			d="M159.274 232.884c-24.768 23.187-38.973 54.298-38.973 85.358v47.6c0 30.946 14.494 62.315 39.766 86.064C185.828 476.115 220.306 490 254.659 490c.114 0 .227-.004.341-.004v-51.804c-.114.001-.227.009-.341.009-37.38 0-68.959-33.137-68.959-72.359v-47.6c0-38.485 31.579-70.999 68.959-70.999.114 0 .227.009.341.009v-51.804c-.114 0-.227-.004-.341-.004-35.72 0-69.595 13.297-95.385 37.44z"
			opacity="1" data-original="url(#s)" class=""></path>
		<path fill="url(#t)"
			d="M349.802 232.288c-25.641-23.415-60.319-36.843-95.143-36.843-35.72 0-69.595 13.296-95.385 37.44-24.768 23.187-38.973 54.298-38.973 85.358v47.6c0 7.399.838 14.821 2.444 22.158h66.418a72.973 72.973 0 0 1-3.463-22.158v-47.6c0-38.485 31.579-70.999 68.959-70.999 37.098 0 69.64 33.177 69.64 70.999v47.6c0 7.69-1.241 15.14-3.497 22.158h66.394c1.645-7.348 2.502-14.771 2.502-22.158v-47.6c0-31.936-14.169-62.462-39.896-85.955z"
			opacity="1" data-original="url(#t)"></path>
		<path fill="url(#u)"
			d="M304.299 339.727v26.115c0 27.2-22.439 52.359-49.64 52.359-27.199 0-48.959-25.159-48.959-52.359v-26.115H100.302v26.115C100.302 442.002 171.7 510 254.659 510s155.039-68.679 155.039-144.158v-26.115z"
			opacity="1" data-original="url(#u)"></path>
		<path fill="url(#v)"
			d="M254.659 175.444c-.58 0-1.156.015-1.734.021v91.828c.577-.023 1.152-.05 1.734-.05 27.2 0 49.64 25.159 49.64 50.999v47.6c0 27.2-22.439 52.359-49.64 52.359-.582 0-1.157-.027-1.734-.05v91.827c.578.007 1.155.022 1.734.022 82.959 0 155.039-68.679 155.039-144.158v-47.6c0-78.199-72.08-142.798-155.039-142.798z"
			opacity="1" data-original="url(#v)" class=""></path>
		<path fill="url(#w)"
			d="m212.99 181.54.43-.73c-65.1 17.28-113.12 74.06-113.12 137.43v47.6C100.3 442 171.7 510 254.66 510c78.61 0 147.45-61.66 154.45-132.35zm91.31 184.3c0 27.2-22.44 52.36-49.64 52.36s-48.96-25.16-48.96-52.36v-47.6c0-25.84 21.76-51 48.96-51s49.64 25.16 49.64 51z"
			opacity="1" data-original="url(#w)" class=""></path>
		<path fill="url(#x)"
			d="m249.098 458.903 45.693 45.693c51.583-14.013 93.883-53.784 108.969-101.2l-34.426-34.426v31.199c0 14.452-11.716 26.168-26.168 26.168H304.3z"
			opacity="1" data-original="url(#x)"></path>
		<path fill="url(#y)"
			d="M288.518 454.534c12.441-7.183 20.575-18.962 23.494-31.955a5.821 5.821 0 0 0-3.945-6.832c-12.711-3.968-26.979-2.814-39.42 4.369s-20.575 18.962-23.494 31.955a5.821 5.821 0 0 0 3.945 6.832c12.711 3.968 26.979 2.814 39.42-4.369z"
			opacity="1" data-original="url(#y)"></path>
		<path fill="url(#z)"
			d="M308.067 415.747c-12.711-3.968-26.979-2.814-39.42 4.369s-20.575 18.962-23.494 31.955a5.809 5.809 0 0 0 .638 4.186l65.582-37.864a5.801 5.801 0 0 0-3.306-2.646z"
			opacity="1" data-original="url(#z)"></path>
		<path fill="url(#A)"
			d="M285.229 375.937c1.77-14.13 8.5-26.86 19.07-36.21v24.18c-2.14 4.3-3.56 8.99-4.18 13.9-1.07 8.55.4 17.03 4.18 24.56a43.5 43.5 0 0 0 4.55 7.22c5.41 6.95 13.19 11.38 21.93 12.47 8.73 1.1 17.37-1.28 24.32-6.68 5.24-4.08 8.58-9.95 9.41-16.54.82-6.59-.97-13.11-5.04-18.35-6.23-8.01-17.81-9.46-25.81-3.23-3.27 2.54-7.99 1.95-10.53-1.32s-1.95-7.98 1.32-10.53c14.54-11.3 35.56-8.67 46.86 5.87 13.49 17.35 10.35 42.45-7 55.94-10.11 7.86-22.68 11.32-35.39 9.73-9.2-1.15-17.66-4.84-24.62-10.61a48.235 48.235 0 0 1-7.29-7.54c-9.52-12.25-13.7-27.47-11.78-42.86z"
			opacity="1" data-original="url(#A)"></path>
		<path fill="url(#B)"
			d="M297.009 418.797c2.18 2.8 4.62 5.33 7.29 7.54a47.514 47.514 0 0 0 20.009 9.802v-15.555c-6.079-2.041-11.427-5.818-15.459-10.997a43.5 43.5 0 0 1-4.55-7.22c-3.78-7.53-5.25-16.01-4.18-24.56.62-4.91 2.04-9.6 4.18-13.9v-24.18c-10.57 9.35-17.3 22.08-19.07 36.21-1.92 15.39 2.26 30.61 11.78 42.86z"
			opacity="1" data-original="url(#B)"></path>
		<path fill="url(#C)"
			d="M112.655 244.845a7.494 7.494 0 0 1-2.61-9.675c15.67-30.966 4.197-70.483-1.343-85.779a7.496 7.496 0 0 1 3.959-9.386l.024-.011c3.983-1.804 8.646.169 10.148 4.275 6.362 17.395 19.014 61.406.583 97.708-2.011 3.96-7.034 5.283-10.761 2.868z"
			opacity="1" data-original="url(#C)"></path>
		<path fill="url(#D)"
			d="M174.919 170.148c-4.118 13.763-1.947 27.912 4.847 39.364a5.821 5.821 0 0 0 7.558 2.261c11.968-5.839 21.552-16.471 25.67-30.234s1.947-27.912-4.847-39.364a5.821 5.821 0 0 0-7.558-2.261c-11.968 5.839-21.552 16.471-25.67 30.234z"
			opacity="1" data-original="url(#D)"></path>
		<path fill="url(#E)"
			d="M187.325 211.774c11.968-5.839 21.552-16.471 25.67-30.234s1.947-27.912-4.847-39.364a5.803 5.803 0 0 0-3.338-2.606l-21.705 72.55a5.81 5.81 0 0 0 4.22-.346z"
			opacity="1" data-original="url(#E)"></path>
		<path fill="url(#F)"
			d="M223.525 225.527c-2.05 3.35-6.3 4.5-9.81 2.76-23.29-11.57-51.16-10.96-74.28 1.99-1.77.99-3.47 2.04-5.11 3.13v-17.42c27.03-14.21 59.13-14.52 86.1-1.11 3.96 1.96 5.41 6.88 3.1 10.65z"
			opacity="1" data-original="url(#F)"></path>
		<path fill="url(#G)"
			d="M223.52 225.53c-2.05 3.35-6.3 4.5-9.81 2.76-13.41-6.66-28.33-9.28-42.99-7.84a79.9 79.9 0 0 0-31.29 9.83c-1.77.99-3.47 2.04-5.11 3.13a70.97 70.97 0 0 0-6.93 5.28c-10.81 9.36-17.67 21.35-19.75 34.65-.19 1.21-.34 2.42-.45 3.65-4.14 12.19-6.52 24.97-6.85 38.07-5.41-10.08-8.38-21.31-8.38-33.05 0-2.85.17-5.67.51-8.45 1.57-12.83 6.69-24.9 14.76-35.24 6.48-8.32 14.88-15.52 24.87-21.13.74-.41 1.47-.81 2.22-1.2a94.505 94.505 0 0 1 24.62-8.87c3.9-.82 7.83-1.39 11.78-1.72 16.97-1.41 34.18 1.77 49.7 9.48 3.96 1.96 5.41 6.88 3.1 10.65z"
			opacity="1" data-original="url(#G)"></path>
		<path fill="url(#H)"
			d="M148.735 80.31c9.441 35.232 2.895 70.982-15.19 99.548-4.116 6.501-12.533 8.757-19.349 5.184-29.945-15.697-53.489-43.384-62.929-78.616-9.441-35.233-2.895-70.982 15.19-99.548C70.573.377 78.991-1.879 85.806 1.694c29.945 15.696 53.489 43.383 62.929 78.616z"
			opacity="1" data-original="url(#H)"></path>
		<path fill="url(#H)"
			d="M148.735 80.31c9.441 35.232 2.895 70.982-15.19 99.548-4.116 6.501-12.533 8.757-19.349 5.184-29.945-15.697-53.489-43.384-62.929-78.616-9.441-35.233-2.895-70.982 15.19-99.548C70.573.377 78.991-1.879 85.806 1.694c29.945 15.696 53.489 43.383 62.929 78.616z"
			opacity="1" data-original="url(#H)"></path>
		<path fill="url(#I)"
			d="M51.265 106.427a125.614 125.614 0 0 0 7.132 19.836l6.609 2.337c31.428 11.121 52.968 31.844 59.878 57.63-6.909-25.786 1.384-54.502 23.041-79.848l4.555-5.329c-.65-6.9-1.889-13.829-3.742-20.745-9.441-35.234-32.983-62.919-62.93-78.617C78.99-1.883 70.573.372 66.456 6.876c-18.087 28.57-24.632 64.317-15.191 99.551z"
			opacity="1" data-original="url(#I)"></path>
		<path fill="url(#J)"
			d="M112.315 139.323c-6.909-25.786-28.449-46.509-59.878-57.63l-5.333-1.886c-1.244-26.18 5.824-51.563 19.351-72.93C70.573.373 78.989-1.882 85.807 1.692c22.398 11.741 41.211 30.189 53.223 53.484l-3.676 4.3c-21.656 25.345-29.948 54.062-23.039 79.847z"
			opacity="1" data-original="url(#J)"></path>
		<path fill="url(#K)"
			d="M97.711 84.822c-5.688-21.228-21.299-39.02-44.174-50.853A126.056 126.056 0 0 1 66.454 6.877C70.572.373 78.988-1.882 85.806 1.692a126.03 126.03 0 0 1 24.733 17.003C96.647 40.38 92.023 63.594 97.711 84.822z"
			opacity="1" data-original="url(#K)"></path>
		<path fill="url(#L)"
			d="M114.196 185.042c-29.945-15.697-53.489-43.384-62.929-78.616-9.441-35.232-2.895-70.982 15.19-99.548a14.74 14.74 0 0 1 8.662-6.37l49.763 185.72c-3.47.93-7.278.6-10.686-1.186z"
			opacity="1" data-original="url(#L)"></path>
		<path fill="url(#M)"
			d="M292.043 121.444a4 4 0 0 1 0-5.657l1.62-1.62a19.738 19.738 0 0 1 14.05-5.819h2.2a4 4 0 1 1 0 8h-2.201a11.79 11.79 0 0 0-8.393 3.476l-1.62 1.62a4 4 0 0 1-5.656 0z"
			opacity="1" data-original="url(#M)"></path>
		<path fill="url(#N)"
			d="M286.558 115.96a4 4 0 0 1 0-5.657l1.62-1.62a11.79 11.79 0 0 0 3.476-8.392v-2.202a4 4 0 0 1 8 0v2.201a19.739 19.739 0 0 1-5.819 14.049l-1.62 1.62a4 4 0 0 1-5.657.001z"
			opacity="1" data-original="url(#N)"></path>
		<path fill="url(#O)"
			d="m285.919 131.548-9.464-9.464c-3.089-3.089-2.416-8.265 1.36-10.461l2.227-1.295a10.894 10.894 0 0 1 13.18 1.714l2.739 2.738a10.894 10.894 0 0 1 1.714 13.18l-1.295 2.227c-2.196 3.776-7.372 4.45-10.461 1.361z"
			opacity="1" data-original="url(#O)"></path>
		<circle cx="269.122" cy="138.881" r="22.233" fill="url(#P)" opacity="1" data-original="url(#P)"></circle>
		<circle cx="269.122" cy="138.881" r="22.233" fill="url(#Q)" opacity="1" data-original="url(#Q)"></circle>
		<circle cx="269.122" cy="138.881" r="22.233" fill="url(#R)" opacity="1" data-original="url(#R)"></circle>
		<path fill="url(#S)"
			d="M284.845 123.158c-5.204-11.118-18.435-15.915-29.555-10.714-10.221 4.78-15.102 16.343-11.79 26.817.473 1.495 2.165 2.221 3.585 1.557z"
			opacity="1" data-original="url(#S)"></path>
		<path fill="url(#T)"
			d="m247.085 140.819 9.23-4.317a9.958 9.958 0 0 0-.938-3.937c-2.182-4.665-7.507-6.855-12.272-5.229a22.125 22.125 0 0 0 .382 11.883c.474 1.512 2.161 2.271 3.598 1.6z"
			opacity="1" data-original="url(#T)"></path>
		<path fill="url(#U)" d="M261.757 110.542a6.336 6.336 0 1 0 11.253 1.418 22.229 22.229 0 0 0-11.253-1.418z"
			opacity="1" data-original="url(#U)"></path>
		<path fill="url(#V)"
			d="M284.845 123.158c11.118 5.204 15.915 18.435 10.714 29.555-4.78 10.221-16.343 15.102-26.817 11.79-1.495-.473-2.221-2.165-1.557-3.585z"
			opacity="1" data-original="url(#V)"></path>
		<path fill="url(#W)"
			d="m267.184 160.918 4.317-9.23a9.958 9.958 0 0 1 3.937.938c4.665 2.182 6.855 7.507 5.229 12.272a22.125 22.125 0 0 1-11.883-.382c-1.512-.475-2.271-2.162-1.6-3.598z"
			opacity="1" data-original="url(#W)"></path>
		<path fill="url(#X)" d="M297.461 146.246a6.336 6.336 0 1 1-1.418-11.253 22.24 22.24 0 0 1 1.418 11.253z"
			opacity="1" data-original="url(#X)"></path>
	</g>
</svg>