<svg xmlns="http://www.w3.org/2000/svg" version="1.1" xmlns:xlink="http://www.w3.org/1999/xlink" width="512"
	height="512" x="0" y="0" viewBox="0 0 510 510" style="enable-background:new 0 0 512 512" xml:space="preserve"
	class="">
	<g>
		<linearGradient id="a">
			<stop offset="0" stop-color="#81b823"></stop>
			<stop offset="1" stop-color="#017b4e"></stop>
		</linearGradient>
		<linearGradient xlink:href="#a" id="f" x1="-1531.186" x2="-1491.443" y1="-1020.483" y2="-1020.483"
			gradientTransform="rotate(-30 1948.008 -3682.066)" gradientUnits="userSpaceOnUse"></linearGradient>
		<linearGradient id="b">
			<stop offset="0" stop-color="#017b4e" stop-opacity="0"></stop>
			<stop offset="1" stop-color="#026841"></stop>
		</linearGradient>
		<linearGradient xlink:href="#b" id="g" x1="-1502.06" x2="-1517.362" y1="-1021.458" y2="-1019.818"
			gradientTransform="rotate(-30 1948.008 -3682.066)" gradientUnits="userSpaceOnUse"></linearGradient>
		<linearGradient xlink:href="#a" id="h" x1="1299.516" x2="1444.969" y1="-25.426" y2="-25.426"
			gradientTransform="rotate(14.98 -136.138 -3584.14)" gradientUnits="userSpaceOnUse"></linearGradient>
		<linearGradient xlink:href="#b" id="i" x1="1372.242" x2="1372.242" y1="-50.426" y2="135.177"
			gradientTransform="rotate(14.98 -136.138 -3584.14)" gradientUnits="userSpaceOnUse"></linearGradient>
		<linearGradient xlink:href="#b" id="j" x1="1372.242" x2="1372.242" y1="-105.092" y2="86.245"
			gradientTransform="rotate(14.98 -136.138 -3584.14)" gradientUnits="userSpaceOnUse"></linearGradient>
		<linearGradient xlink:href="#b" id="k" x1="1372.242" x2="1372.242" y1="-153.759" y2="-9.203"
			gradientTransform="rotate(14.98 -136.138 -3584.14)" gradientUnits="userSpaceOnUse"></linearGradient>
		<linearGradient xlink:href="#b" id="l" x1="1406.11" x2="1350.11" y1="-28.993" y2="-22.993"
			gradientTransform="rotate(14.98 -136.138 -3584.14)" gradientUnits="userSpaceOnUse"></linearGradient>
		<linearGradient id="m" x1="399.747" x2="359.747" y1="243.529" y2="274.863" gradientUnits="userSpaceOnUse">
			<stop offset="0" stop-color="#01525a" stop-opacity="0"></stop>
			<stop offset="1" stop-color="#01525a"></stop>
		</linearGradient>
		<linearGradient id="n" x1="29.291" x2="422.271" y1="140.024" y2="341.014" gradientUnits="userSpaceOnUse">
			<stop offset="0" stop-color="#5a5a5a"></stop>
			<stop offset="1" stop-color="#444"></stop>
		</linearGradient>
		<linearGradient id="c">
			<stop offset="0" stop-color="#433f43" stop-opacity="0"></stop>
			<stop offset="1" stop-color="#1a1a1a"></stop>
		</linearGradient>
		<linearGradient xlink:href="#c" id="o" x1="-62.987" x2="484.486" y1="-3.702" y2="447.775"
			gradientUnits="userSpaceOnUse"></linearGradient>
		<linearGradient xlink:href="#c" id="p" x1="161.016" x2="114.006" y1="153.533" y2="153.533"
			gradientUnits="userSpaceOnUse"></linearGradient>
		<linearGradient xlink:href="#c" id="q" x1="166.646" x2="113.646" y1="435.607" y2="406.607"
			gradientUnits="userSpaceOnUse"></linearGradient>
		<linearGradient xlink:href="#c" id="r" x1="243.016" x2="243.016" y1="68" y2="25.703"
			gradientUnits="userSpaceOnUse"></linearGradient>
		<linearGradient xlink:href="#c" id="s" x1="243.016" x2="243.016" y1="450" y2="515.192"
			gradientUnits="userSpaceOnUse"></linearGradient>
		<linearGradient xlink:href="#c" id="t" x1="343.016" x2="422.022" y1="331.423" y2="331.423"
			gradientUnits="userSpaceOnUse"></linearGradient>
		<linearGradient id="u" x1="181.184" x2="164.518" y1="132.404" y2="71.738" gradientUnits="userSpaceOnUse">
			<stop offset="0" stop-color="#433f43" stop-opacity="0"></stop>
			<stop offset="1"></stop>
		</linearGradient>
		<linearGradient xlink:href="#a" id="v" x1="744.227" x2="783.97" y1="-874.429" y2="-874.429"
			gradientTransform="rotate(14.98 -4041.217 -2855.068)" gradientUnits="userSpaceOnUse"></linearGradient>
		<linearGradient xlink:href="#b" id="w" x1="773.352" x2="758.051" y1="-875.404" y2="-873.764"
			gradientTransform="rotate(14.98 -4041.217 -2855.068)" gradientUnits="userSpaceOnUse"></linearGradient>
		<linearGradient id="d">
			<stop offset="0" stop-color="#bbec6c"></stop>
			<stop offset="1" stop-color="#81b823"></stop>
		</linearGradient>
		<linearGradient xlink:href="#d" id="x" x1="2217.873" x2="2257.616" y1="-4379.198" y2="-4379.198"
			gradientTransform="matrix(.6 .8 .8 -.6 2385.577 -4000.189)" gradientUnits="userSpaceOnUse"></linearGradient>
		<linearGradient id="e">
			<stop offset="0" stop-color="#78a91f" stop-opacity="0"></stop>
			<stop offset=".163" stop-color="#73a620" stop-opacity=".163"></stop>
			<stop offset=".354" stop-color="#659e24" stop-opacity=".354"></stop>
			<stop offset=".559" stop-color="#4e912b" stop-opacity=".559"></stop>
			<stop offset=".774" stop-color="#2d8034" stop-opacity=".774"></stop>
			<stop offset=".994" stop-color="#036941" stop-opacity=".994"></stop>
			<stop offset="1" stop-color="#026841"></stop>
		</linearGradient>
		<linearGradient xlink:href="#e" id="y" x1="2246.998" x2="2231.697" y1="-4380.173" y2="-4378.533"
			gradientTransform="matrix(.6 .8 .8 -.6 2385.577 -4000.189)" gradientUnits="userSpaceOnUse"></linearGradient>
		<linearGradient xlink:href="#d" id="z" x1="133.45" x2="198.594" y1="211.865" y2="409.251"
			gradientUnits="userSpaceOnUse"></linearGradient>
		<linearGradient xlink:href="#d" id="A" x1="-3234.496" x2="-3194.753" y1="-1919.566" y2="-1919.566"
			gradientTransform="scale(-1 1) rotate(-75 -424.45 -2797.982)" gradientUnits="userSpaceOnUse">
		</linearGradient>
		<linearGradient xlink:href="#e" id="B" x1="-3205.371" x2="-3220.672" y1="-1920.54" y2="-1918.901"
			gradientTransform="scale(-1 1) rotate(-75 -424.45 -2797.982)" gradientUnits="userSpaceOnUse">
		</linearGradient>
		<linearGradient xlink:href="#d" id="C" x1="180.666" x2="273.723" y1="28.894" y2="158.25"
			gradientUnits="userSpaceOnUse"></linearGradient>
		<linearGradient xlink:href="#b" id="D" x1="237.022" x2="177.023" y1="104.97" y2="86.97"
			gradientUnits="userSpaceOnUse"></linearGradient>
		<linearGradient xlink:href="#b" id="E" x1="239.763" x2="212.464" y1="121.465" y2="121.465"
			gradientUnits="userSpaceOnUse"></linearGradient>
		<linearGradient xlink:href="#d" id="F" x1="2346.038" x2="2446.945" y1="-3763.123" y2="-3763.123"
			gradientTransform="scale(1 -1) rotate(-75 3674.7 -433.768)" gradientUnits="userSpaceOnUse"></linearGradient>
		<linearGradient xlink:href="#e" id="G" x1="2396.492" x2="2396.492" y1="-3780.466" y2="-3651.707"
			gradientTransform="scale(1 -1) rotate(-75 3674.7 -433.768)" gradientUnits="userSpaceOnUse"></linearGradient>
		<linearGradient xlink:href="#e" id="H" x1="2396.492" x2="2396.492" y1="-3818.391" y2="-3685.653"
			gradientTransform="scale(1 -1) rotate(-75 3674.7 -433.768)" gradientUnits="userSpaceOnUse"></linearGradient>
		<linearGradient xlink:href="#e" id="I" x1="2396.492" x2="2396.492" y1="-3852.153" y2="-3751.869"
			gradientTransform="scale(1 -1) rotate(-75 3674.7 -433.768)" gradientUnits="userSpaceOnUse"></linearGradient>
		<linearGradient xlink:href="#e" id="J" x1="2419.987" x2="2381.138" y1="-3765.598" y2="-3761.435"
			gradientTransform="scale(1 -1) rotate(-75 3674.7 -433.768)" gradientUnits="userSpaceOnUse"></linearGradient>
		<path fill="url(#f)"
			d="M265.779 362.436c7.183 12.441 18.962 20.575 31.955 23.494a5.821 5.821 0 0 0 6.832-3.945c3.968-12.711 2.814-26.979-4.369-39.42s-18.962-20.575-31.955-23.494a5.821 5.821 0 0 0-6.832 3.945c-3.968 12.711-2.814 26.978 4.369 39.42z"
			opacity="1" data-original="url(#f)"></path>
		<path fill="url(#g)"
			d="M304.566 381.985c3.968-12.711 2.814-26.979-4.369-39.42s-18.962-20.575-31.955-23.494a5.809 5.809 0 0 0-4.186.638l37.864 65.582a5.812 5.812 0 0 0 2.646-3.306z"
			opacity="1" data-original="url(#g)"></path>
		<path fill="url(#h)"
			d="M328.895 225.179c-13.608 50.786-4.173 102.318 21.896 143.495 5.933 9.372 18.067 12.623 27.891 7.473 43.165-22.626 77.102-62.536 90.71-113.322s4.172-102.318-21.896-143.495c-5.933-9.372-18.067-12.623-27.891-7.473-43.164 22.626-77.102 62.535-90.71 113.322z"
			opacity="1" data-original="url(#h)"></path>
		<path fill="url(#i)"
			d="M469.396 262.826a180.937 180.937 0 0 1-10.281 28.593l-9.527 3.369c-45.303 16.031-76.352 45.903-86.312 83.072 9.959-37.169-1.994-78.563-33.212-115.098l-6.566-7.681a180.946 180.946 0 0 1 5.393-29.903c13.609-50.788 47.544-90.695 90.711-113.324 9.828-5.152 21.96-1.901 27.896 7.475 26.071 41.181 35.506 92.708 21.898 143.497z"
			opacity="1" data-original="url(#i)"></path>
		<path fill="url(#j)"
			d="M381.394 310.245c9.959-37.169 41.009-67.041 86.311-83.072l7.687-2.719c1.794-37.738-8.395-74.326-27.894-105.126-5.936-9.376-18.068-12.627-27.896-7.475-32.286 16.924-59.404 43.516-76.72 77.095l5.298 6.198c31.22 36.536 43.173 77.93 33.214 115.099z"
			opacity="1" data-original="url(#j)"></path>
		<path fill="url(#k)"
			d="M402.445 231.683c8.199-30.6 30.702-56.245 63.675-73.302a181.638 181.638 0 0 0-18.62-39.052c-5.936-9.376-18.068-12.627-27.896-7.475a181.628 181.628 0 0 0-35.651 24.51c20.025 31.258 26.691 64.719 18.492 95.319z"
			opacity="1" data-original="url(#k)"></path>
		<path fill="url(#l)"
			d="M378.682 376.147c43.165-22.626 77.102-62.536 90.71-113.322s4.172-102.318-21.896-143.495a21.252 21.252 0 0 0-12.486-9.182l-71.732 267.708a21.245 21.245 0 0 0 15.404-1.709z"
			opacity="1" data-original="url(#l)"></path>
		<path fill="url(#m)"
			d="M328.895 225.179c-13.608 50.786-4.173 102.318 21.896 143.495 5.933 9.372 18.067 12.623 27.891 7.473 43.165-22.626 77.102-62.536 90.71-113.322s4.172-102.318-21.896-143.495c-5.933-9.372-18.067-12.623-27.891-7.473-43.164 22.626-77.102 62.535-90.71 113.322z"
			opacity="1" data-original="url(#m)"></path>
		<path fill="url(#n)"
			d="M194.201 131.084c0-21.164 19.799-40.964 68.273-40.964 55.984 0 68.956 25.944 93.534 25.944 30.04 0 42.329-37.55 42.329-55.984C398.337 6.827 298.659 0 262.474 0 177.132 0 87.695 38.916 87.695 141.326c0 159.759 216.426 145.421 216.426 228.032 0 32.771-34.819 45.061-66.225 45.061-63.494 0-83.976-50.522-116.065-50.522-25.943 0-46.425 34.137-46.425 57.349 0 45.06 75.101 88.755 164.538 88.755 98.996 0 170.683-53.253 170.683-151.566 0-172.05-216.426-159.078-216.426-227.351z"
			opacity="1" data-original="url(#n)"></path>
		<path fill="url(#o)"
			d="M239.944 485c-37.902 0-75.705-8.879-103.715-24.36-21.762-12.028-35.823-27.491-35.823-39.395 0-12.697 13.015-32.349 21.425-32.349 4.824 0 13.889 6.979 22.655 13.729 20.168 15.527 47.79 36.793 93.41 36.793 54.564 0 91.225-28.155 91.225-70.061 0-23.659-11.575-44.372-34.403-61.562-17.084-12.865-38.897-22.998-61.99-33.727-29.881-13.882-60.78-28.236-83.913-49.331-24.643-22.473-36.121-48.978-36.121-83.412 0-38.535 14.963-68.282 44.475-88.415C183.554 34.912 220.952 25 262.474 25c9.986 0 44.883.657 74.67 9.119 12.827 3.644 22.924 8.29 29.199 13.437 6.164 5.056 6.995 9.169 6.995 12.524 0 10.334-7.492 30.984-17.329 30.984-3.531 0-8.078-2.268-15.811-6.274-15.116-7.833-37.959-19.67-77.724-19.67-68.845 0-93.273 35.534-93.273 65.964 0 42.687 42.215 61.297 86.909 81 29.941 13.199 63.876 28.159 89.107 51.071 27.569 25.035 40.41 55.312 40.41 95.278 0 40.012-13.241 71.488-39.354 93.556C320.717 473.585 283.95 485 239.944 485z"
			opacity="1" data-original="url(#o)"></path>
		<path fill="url(#p)"
			d="M112.694 141.326c0 34.435 11.478 60.939 36.121 83.412 23.133 21.095 54.032 35.449 83.913 49.331 5.519 2.564 10.962 5.095 16.288 7.636V208.95c-41.965-18.614-79.815-37.447-79.815-77.866 0-28.356 21.219-61.138 79.815-65.476V25.36c-36.106 1.911-68.346 11.52-91.847 27.551-29.511 20.133-44.475 49.88-44.475 88.415z"
			opacity="1" data-original="url(#p)"></path>
		<path fill="url(#q)"
			d="M237.895 439.418c-45.62 0-73.241-21.266-93.41-36.793-8.766-6.75-17.831-13.729-22.655-13.729-8.41 0-21.425 19.651-21.425 32.349 0 11.903 14.062 27.366 35.823 39.395 28.01 15.481 65.813 24.36 103.715 24.36 3.061 0 6.083-.061 9.072-.171V439c-3.618.268-7.32.418-11.12.418z"
			opacity="1" data-original="url(#q)"></path>
		<path fill="url(#r)"
			d="M366.342 47.556c-6.275-5.146-16.372-9.793-29.199-13.437C307.356 25.657 272.459 25 262.474 25c-41.521 0-78.919 9.912-105.304 27.911-29.512 20.133-44.475 49.88-44.475 88.415 0 34.435 11.478 60.939 36.121 83.412 5.201 4.743 10.81 9.129 16.697 13.262H309.67c-17.551-10.026-36.221-18.273-53.559-25.916-44.694-19.703-86.909-38.313-86.909-81 0-30.43 24.428-65.964 93.273-65.964 39.765 0 62.608 11.837 77.724 19.67 7.733 4.007 12.28 6.274 15.811 6.274 9.837 0 17.329-20.65 17.329-30.984-.002-3.355-.833-7.469-6.997-12.524z"
			opacity="1" data-original="url(#r)"></path>
		<path fill="url(#s)"
			d="M304.12 369.358c0 32.771-34.819 45.061-66.225 45.061-63.494 0-83.976-50.522-116.065-50.522-25.943 0-46.425 34.137-46.425 57.349 0 45.06 75.101 88.755 164.538 88.755 98.996 0 170.683-53.253 170.683-151.566 0-31.098-7.074-56.148-18.659-76.728H190.771c55.764 28.221 113.349 45.038 113.349 87.651z"
			opacity="1" data-original="url(#s)"></path>
		<path fill="url(#t)"
			d="M203.016 152.846V287.73c51.636 24.795 101.104 42.132 101.104 81.627 0 32.771-34.819 45.061-66.225 45.061-13.364 0-24.817-2.244-34.88-5.778v98.854A272.61 272.61 0 0 0 239.943 510c98.996 0 170.683-53.253 170.683-151.566.001-151.146-167.023-159.5-207.61-205.588z"
			opacity="1" data-original="url(#t)"></path>
		<path fill="url(#u)"
			d="M263.5 188.02c-38.424-16.952-69.299-31.149-69.299-56.935 0-21.164 19.799-40.964 68.273-40.964 3.096 0 6.054.083 8.896.234-17.004-40.976-58.645-69.933-107.323-69.933-.101 0-.201.003-.302.004-44.015 21.074-76.05 59.613-76.05 120.9 0 41.836 14.846 71.729 36.756 94.554 12.351 4.334 25.686 6.699 39.596 6.699 42.332 0 79.338-21.901 99.453-54.559z"
			opacity="1" data-original="url(#u)"></path>
		<path fill="url(#v)"
			d="M68.323 297.589c-3.718 13.877-1.14 27.957 5.983 39.208a5.821 5.821 0 0 0 7.621 2.042c11.794-6.182 21.067-17.087 24.785-30.964s1.14-27.957-5.983-39.208a5.821 5.821 0 0 0-7.621-2.042c-11.794 6.183-21.067 17.088-24.785 30.964z"
			opacity="1" data-original="url(#v)"></path>
		<path fill="url(#w)"
			d="M81.927 338.839c11.794-6.182 21.067-17.087 24.785-30.964s1.14-27.957-5.983-39.208a5.809 5.809 0 0 0-3.412-2.509l-19.6 73.147a5.802 5.802 0 0 0 4.21-.466z"
			opacity="1" data-original="url(#w)"></path>
		<path fill="url(#x)"
			d="M210.976 400.658c11.497-8.615 25.525-11.461 38.619-9.035a5.822 5.822 0 0 1 4.731 6.314c-1.35 13.248-8.021 25.912-19.518 34.527s-25.525 11.461-38.619 9.035a5.822 5.822 0 0 1-4.731-6.314c1.35-13.248 8.022-25.913 19.518-34.527z"
			opacity="1" data-original="url(#x)"></path>
		<path fill="url(#y)"
			d="M254.326 397.936c-1.35 13.248-8.021 25.912-19.518 34.527s-25.525 11.461-38.619 9.035a5.806 5.806 0 0 1-3.598-2.233l60.602-45.41a5.804 5.804 0 0 1 1.133 4.081z"
			opacity="1" data-original="url(#y)"></path>
		<path fill="url(#z)"
			d="M302.826 379.73c-1.75 6.69-5.22 12.28-9.89 16.88a306.014 306.014 0 0 1-54.72 2.69c-4.17-.17-8.35-.42-12.53-.76-20.45-1.67-40.47-5.36-59.73-10.97a289.588 289.588 0 0 1-36.58-13.35 273.9 273.9 0 0 1-17.66-8.58 274.02 274.02 0 0 1-25.48-15.3c-30.04-20.36-44.81-52.31-39.52-85.46 4.62-28.97 23.93-53.48 51.96-67.23 2.02 4.67 4.3 9.13 6.81 13.38-23.77 11.6-40.12 32.09-43.96 56.21-4.35 27.25 8.04 53.68 33.13 70.68 11.03 7.48 22.65 14.07 34.72 19.76 33.78 15.94 71.07 24.84 108.84 26.45 21.57.93 43.29-.53 64.61-4.4z"
			opacity="1" data-original="url(#z)"></path>
		<path fill="url(#A)"
			d="M303.024 143.809c-13.877 3.718-27.957 1.14-39.208-5.983a5.821 5.821 0 0 1-2.042-7.621c6.182-11.794 17.087-21.067 30.964-24.785s27.957-1.14 39.208 5.983a5.821 5.821 0 0 1 2.042 7.621c-6.183 11.794-17.087 21.067-30.964 24.785z"
			opacity="1" data-original="url(#A)"></path>
		<path fill="url(#B)"
			d="M261.774 130.206c6.182-11.794 17.087-21.067 30.964-24.785s27.957-1.14 39.208 5.983a5.809 5.809 0 0 1 2.509 3.412l-73.147 19.6a5.807 5.807 0 0 1 .466-4.21z"
			opacity="1" data-original="url(#B)"></path>
		<path fill="url(#C)"
			d="M280.766 103.55c0 30.07-19.5 56.85-49.52 69.38-6.25-3.27-11.93-6.61-16.86-10.11l2.38-.68c29.31-8.4 49-31.95 49-58.59 0-2.94-.23-5.83-.68-8.67-2.76-17.71-14.01-33.1-31.79-43.06-23.12-12.95-50.99-13.57-74.28-2-3.51 1.75-7.76.59-9.81-2.75-2.31-3.77-.86-8.69 3.1-10.66 27.7-13.78 60.84-13.06 88.32 2.32 9.99 5.61 18.39 12.81 24.87 21.13 8.07 10.34 13.19 22.41 14.76 35.24.34 2.78.51 5.6.51 8.45z"
			opacity="1" data-original="url(#C)"></path>
		<path fill="url(#D)"
			d="M280.766 103.55c0 30.07-19.5 56.85-49.52 69.38-6.25-3.27-11.93-6.61-16.86-10.11l2.38-.68c29.31-8.4 49-31.95 49-58.59 0-2.94-.23-5.83-.68-8.67-2.76-17.71-14.01-33.1-31.79-43.06-23.12-12.95-50.99-13.57-74.28-2-3.51 1.75-7.76.59-9.81-2.75-2.31-3.77-.86-8.69 3.1-10.66 27.7-13.78 60.84-13.06 88.32 2.32 9.99 5.61 18.39 12.81 24.87 21.13 8.07 10.34 13.19 22.41 14.76 35.24.34 2.78.51 5.6.51 8.45z"
			opacity="1" data-original="url(#D)"></path>
		<path fill="url(#E)"
			d="M280.766 103.55c0 30.07-19.5 56.85-49.52 69.38-6.25-3.27-11.93-6.61-16.86-10.11l2.38-.68c29.31-8.4 49-31.95 49-58.59 0-2.94-.23-5.83-.68-8.67-1.41-9.04-5.04-17.46-10.61-24.88h17.69c4.25 7.8 7.01 16.27 8.09 25.1.34 2.78.51 5.6.51 8.45z"
			opacity="1" data-original="url(#E)"></path>
		<path fill="url(#F)"
			d="M114.71 11.78c35.232-9.441 70.982-2.895 99.548 15.19 6.501 4.116 8.757 12.533 5.184 19.349-15.697 29.945-43.384 53.489-78.616 62.929-35.233 9.441-70.982 2.895-99.548-15.19-6.501-4.116-8.757-12.534-5.184-19.349C51.791 44.764 79.478 21.22 114.71 11.78z"
			opacity="1" data-original="url(#F)"></path>
		<path fill="url(#F)"
			d="M114.71 11.78c35.232-9.441 70.982-2.895 99.548 15.19 6.501 4.116 8.757 12.533 5.184 19.349-15.697 29.945-43.384 53.489-78.616 62.929-35.233 9.441-70.982 2.895-99.548-15.19-6.501-4.116-8.757-12.534-5.184-19.349C51.791 44.764 79.478 21.22 114.71 11.78z"
			opacity="1" data-original="url(#F)"></path>
		<path fill="url(#G)"
			d="M140.827 109.25a125.614 125.614 0 0 0 19.836-7.132L163 95.509c11.121-31.428 31.844-52.968 57.63-59.878-25.786 6.909-54.502-1.384-79.848-23.041l-5.329-4.555c-6.9.65-13.829 1.889-20.745 3.742-35.234 9.441-62.919 32.983-78.617 62.93-3.574 6.818-1.319 15.235 5.185 19.352 28.571 18.087 64.318 24.632 99.551 15.191z"
			opacity="1" data-original="url(#G)"></path>
		<path fill="url(#H)"
			d="M173.724 48.2c-25.786 6.909-46.509 28.449-57.63 59.878l-1.886 5.333c-26.18 1.244-51.563-5.824-72.93-19.351-6.504-4.118-8.759-12.534-5.185-19.352C47.834 52.31 66.282 33.497 89.577 21.485l4.3 3.676c25.345 21.656 54.062 29.948 79.847 23.039z"
			opacity="1" data-original="url(#H)"></path>
		<path fill="url(#I)"
			d="M119.223 62.804c-21.228 5.688-39.02 21.299-50.853 44.174a126.056 126.056 0 0 1-27.092-12.917c-6.504-4.118-8.759-12.534-5.185-19.352a126.03 126.03 0 0 1 17.003-24.733c21.685 13.892 44.898 18.516 66.127 12.828z"
			opacity="1" data-original="url(#I)"></path>
		<path fill="url(#J)"
			d="M219.443 46.319c-15.697 29.945-43.384 53.489-78.616 62.929-35.232 9.441-70.982 2.895-99.548-15.19a14.74 14.74 0 0 1-6.37-8.662l185.72-49.763c.929 3.47.6 7.278-1.186 10.686z"
			opacity="1" data-original="url(#J)"></path>
	</g>
</svg>