<svg fill="#3a82f6" viewBox="0 0 32 32" id="icon" xmlns="http://www.w3.org/2000/svg"><g id="SVGRepo_bgCarrier" stroke-width="0" fill="#3a82f6"></g><g id="SVGRepo_tracerCarrier" stroke-linecap="round" stroke-linejoin="round" fill="#3a82f6"></g><g id="SVGRepo_iconCarrier" fill="#3a82f6"><defs><style>.cls-1{fill:none;}</style></defs><title>SQL</title><polygon points="24 21 24 9 22 9 22 23 30 23 30 21 24 21"></polygon><path d="M18,9H14a2,2,0,0,0-2,2V21a2,2,0,0,0,2,2h1v2a2,2,0,0,0,2,2h2V25H17V23h1a2,2,0,0,0,2-2V11A2,2,0,0,0,18,9ZM14,21V11h4V21Z"></path><path d="M8,23H2V21H8V17H4a2,2,0,0,1-2-2V11A2,2,0,0,1,4,9h6v2H4v4H8a2,2,0,0,1,2,2v4A2,2,0,0,1,8,23Z"></path><rect id="_Transparent_Rectangle_" data-name="<Transparent Rectangle>" class="cls-1" width="32" height="32"></rect></g></svg>