<svg xmlns="http://www.w3.org/2000/svg" version="1.1" xmlns:xlink="http://www.w3.org/1999/xlink" width="512"
	height="512" x="0" y="0" viewBox="0 0 512 512" style="enable-background:new 0 0 512 512" xml:space="preserve"
	class="">
	<g>
		<path
			d="M416 176v-64a15.997 15.997 0 0 0-4.64-11.36l-96-96A16.001 16.001 0 0 0 304 0H48C21.49 0 0 21.491 0 48v416c0 26.51 21.49 48 48 48h112v-32H48c-8.837 0-16-7.163-16-16V48c0-8.837 7.163-16 16-16h240v64c0 17.673 14.327 32 32 32h64v48h32z"
			fill="#3a82f6" opacity="1" data-original="#000000" class=""></path>
		<path
			d="M144 288h32c8.837 0 16 7.163 16 16h32c0-26.51-21.49-48-48-48h-32c-26.51 0-48 21.49-48 48s21.49 48 48 48h32c8.837 0 16 7.163 16 16s-7.163 16-16 16h-32c-8.837 0-16-7.163-16-16H96c0 26.51 21.49 48 48 48h32c26.51 0 48-21.49 48-48s-21.49-48-48-48h-32c-8.837 0-16-7.163-16-16s7.164-16 16-16zM368 352v-32c0-35.346-28.654-64-64-64-35.346 0-64 28.654-64 64v32c0 35.346 28.654 64 64 64h80v-32h-24.96a63.997 63.997 0 0 0 8.96-32zm-32 0c0 17.673-14.327 32-32 32-17.673 0-32-14.327-32-32v-32c0-17.673 14.327-32 32-32 17.673 0 32 14.327 32 32v32zM432 384V256h-32v144c0 8.837 7.163 16 16 16h96v-32h-80z"
			fill="#3a82f6" opacity="1" data-original="#000000" class=""></path>
	</g>
</svg>