<svg xmlns="http://www.w3.org/2000/svg" version="1.1" xmlns:xlink="http://www.w3.org/1999/xlink" width="512" height="512" x="0" y="0" viewBox="0 0 510 510" style="enable-background:new 0 0 512 512" xml:space="preserve" class=""><g><linearGradient id="a"><stop offset="0" stop-color="#81b823"></stop><stop offset="1" stop-color="#017b4e"></stop></linearGradient><linearGradient xlink:href="#a" id="g" x1="-3658.029" x2="-3618.286" y1="-3649.536" y2="-3649.536" gradientTransform="rotate(-74.99 839.139 -4284.343)" gradientUnits="userSpaceOnUse"></linearGradient><linearGradient id="b"><stop offset="0" stop-color="#017b4e" stop-opacity="0"></stop><stop offset="1" stop-color="#026841"></stop></linearGradient><linearGradient xlink:href="#b" id="h" x1="-3628.904" x2="-3644.205" y1="-3650.511" y2="-3648.872" gradientTransform="rotate(-74.99 839.139 -4284.343)" gradientUnits="userSpaceOnUse"></linearGradient><linearGradient id="i" x1="44.829" x2="433.31" y1="51.436" y2="373.919" gradientUnits="userSpaceOnUse"><stop offset="0" stop-color="#5a5a5a"></stop><stop offset="1" stop-color="#444"></stop></linearGradient><linearGradient id="c"><stop offset="0" stop-color="#433f43" stop-opacity="0"></stop><stop offset="1" stop-color="#1a1a1a"></stop></linearGradient><linearGradient xlink:href="#c" id="j" x1="19.189" x2="476.666" y1="-34.582" y2="461.894" gradientUnits="userSpaceOnUse"></linearGradient><linearGradient xlink:href="#c" id="k" x1="162.667" x2="106.667" y1="255" y2="255" gradientUnits="userSpaceOnUse"></linearGradient><linearGradient xlink:href="#c" id="l" x1="375.407" x2="375.407" y1="103.333" y2="31.222" gradientUnits="userSpaceOnUse"></linearGradient><linearGradient xlink:href="#c" id="m" x1="134.593" x2="134.593" y1="103.333" y2="31.222" gradientUnits="userSpaceOnUse"></linearGradient><linearGradient xlink:href="#c" id="n" x1="255" x2="255" y1="420" y2="509.944" gradientUnits="userSpaceOnUse"></linearGradient><linearGradient xlink:href="#c" id="o" x1="385" x2="437.039" y1="255" y2="255" gradientUnits="userSpaceOnUse"></linearGradient><linearGradient id="d"><stop offset="0" stop-color="#433f43" stop-opacity="0"></stop><stop offset="1"></stop></linearGradient><linearGradient xlink:href="#d" id="p" x1="328.016" x2="277.516" y1="383.963" y2="321.963" gradientUnits="userSpaceOnUse"></linearGradient><linearGradient xlink:href="#d" id="q" x1="388.811" x2="320.811" y1="156.79" y2="81.457" gradientUnits="userSpaceOnUse"></linearGradient><linearGradient id="e"><stop offset="0" stop-color="#bbec6c"></stop><stop offset="1" stop-color="#81b823"></stop></linearGradient><linearGradient xlink:href="#e" id="r" x1="545.768" x2="567.018" y1="226.931" y2="242.431" gradientTransform="rotate(-45 290.98 522.157)" gradientUnits="userSpaceOnUse"></linearGradient><linearGradient xlink:href="#e" id="s" x1="951.813" x2="1052.72" y1="111.966" y2="111.966" gradientTransform="scale(-1 1) rotate(60 444.715 -927.385)" gradientUnits="userSpaceOnUse"></linearGradient><linearGradient id="f"><stop offset="0" stop-color="#78a91f" stop-opacity="0"></stop><stop offset=".163" stop-color="#73a620" stop-opacity=".163"></stop><stop offset=".354" stop-color="#659e24" stop-opacity=".354"></stop><stop offset=".559" stop-color="#4e912b" stop-opacity=".559"></stop><stop offset=".774" stop-color="#2d8034" stop-opacity=".774"></stop><stop offset=".994" stop-color="#036941" stop-opacity=".994"></stop><stop offset="1" stop-color="#026841"></stop></linearGradient><linearGradient xlink:href="#f" id="t" x1="1002.266" x2="1002.266" y1="94.623" y2="223.383" gradientTransform="scale(-1 1) rotate(60 444.715 -927.385)" gradientUnits="userSpaceOnUse"></linearGradient><linearGradient xlink:href="#f" id="u" x1="1002.266" x2="1002.266" y1="56.699" y2="189.436" gradientTransform="scale(-1 1) rotate(60 444.715 -927.385)" gradientUnits="userSpaceOnUse"></linearGradient><linearGradient xlink:href="#f" id="v" x1="1002.266" x2="1002.266" y1="22.937" y2="123.221" gradientTransform="scale(-1 1) rotate(60 444.715 -927.385)" gradientUnits="userSpaceOnUse"></linearGradient><linearGradient xlink:href="#f" id="w" x1="1025.762" x2="986.912" y1="109.492" y2="113.654" gradientTransform="scale(-1 1) rotate(60 444.715 -927.385)" gradientUnits="userSpaceOnUse"></linearGradient><linearGradient xlink:href="#e" id="x" x1="-1094.864" x2="-1055.121" y1="-771.47" y2="-771.47" gradientTransform="rotate(16.66 -3102.952 4599.826)" gradientUnits="userSpaceOnUse"></linearGradient><linearGradient xlink:href="#f" id="y" x1="-1065.738" x2="-1081.039" y1="-772.445" y2="-770.806" gradientTransform="rotate(16.66 -3102.952 4599.826)" gradientUnits="userSpaceOnUse"></linearGradient><linearGradient id="z" x1="369.424" x2="417.411" y1="79.914" y2="79.914" gradientUnits="userSpaceOnUse"><stop offset="0" stop-color="#433f43" stop-opacity="0"></stop><stop offset=".317" stop-color="#3b373b" stop-opacity=".317"></stop><stop offset=".818" stop-color="#242324" stop-opacity=".818"></stop><stop offset="1" stop-color="#1a1a1a"></stop></linearGradient><linearGradient xlink:href="#e" id="A" x1="319.149" x2="382.262" y1="86.042" y2="173.774" gradientUnits="userSpaceOnUse"></linearGradient><linearGradient xlink:href="#b" id="B" x1="321.641" x2="338.974" y1="171.791" y2="190.791" gradientUnits="userSpaceOnUse"></linearGradient><linearGradient xlink:href="#a" id="C" x1="188.5" x2="365.791" y1="315.543" y2="315.543" gradientUnits="userSpaceOnUse"></linearGradient><linearGradient xlink:href="#b" id="D" x1="280.201" x2="280.201" y1="293.481" y2="421.409" gradientUnits="userSpaceOnUse"></linearGradient><linearGradient xlink:href="#b" id="E" x1="3049.735" x2="3049.735" y1="309.895" y2="501.232" gradientTransform="rotate(39.91 1745.866 -3470.205)" gradientUnits="userSpaceOnUse"></linearGradient><linearGradient xlink:href="#b" id="F" x1="3049.735" x2="3049.735" y1="261.229" y2="405.785" gradientTransform="rotate(39.91 1745.866 -3470.205)" gradientUnits="userSpaceOnUse"></linearGradient><linearGradient xlink:href="#b" id="G" x1="315.302" x2="269.302" y1="332.143" y2="303.477" gradientUnits="userSpaceOnUse"></linearGradient><linearGradient id="H" x1="239.878" x2="180.544" y1="342.599" y2="377.266" gradientUnits="userSpaceOnUse"><stop offset="0" stop-color="#01525a" stop-opacity="0"></stop><stop offset="1" stop-color="#01525a"></stop></linearGradient><path fill="url(#g)" d="M288.528 224.726c13.877 3.718 27.957 1.14 39.208-5.983a5.821 5.821 0 0 0 2.042-7.621c-6.182-11.794-17.087-21.067-30.964-24.785s-27.957-1.14-39.208 5.983a5.821 5.821 0 0 0-2.042 7.621c6.183 11.794 17.087 21.067 30.964 24.785z" opacity="1" data-original="url(#g)" class=""></path><path fill="url(#h)" d="M329.778 211.122c-6.182-11.794-17.087-21.067-30.964-24.785s-27.957-1.14-39.208 5.983a5.809 5.809 0 0 0-2.509 3.412l73.147 19.6a5.807 5.807 0 0 0-.466-4.21z" opacity="1" data-original="url(#h)"></path><path fill="url(#i)" d="M375.407 0c-27.68 0-53.976 9.688-53.976 32.524v314.165c0 47.055-24.911 69.199-66.431 69.199-41.519 0-66.431-22.144-66.431-69.199V32.524C188.568 9.688 160.889 0 134.593 0c-27.68 0-53.976 9.688-53.976 32.524v314.165C80.618 465.712 156.737 510 255 510c97.571 0 174.383-44.288 174.383-163.311V32.524C429.382 9.688 401.703 0 375.407 0z" opacity="1" data-original="url(#i)" class=""></path><path fill="url(#j)" d="M255 485c-46.684 0-83.049-10.521-108.087-31.271-27.401-22.708-41.295-58.722-41.295-107.04V32.523c0-.187.011-.311.02-.381C106.947 30.228 116.241 25 134.593 25c17.985 0 27.432 5.378 28.974 7.441l.001 314.248c0 58.984 34.18 94.199 91.432 94.199s91.431-35.215 91.431-94.199V32.523c0-.187.011-.311.02-.381C347.76 30.228 357.055 25 375.407 25c17.985 0 27.432 5.378 28.975 7.441l.001 314.248c0 48.238-13.972 84.245-41.528 107.019C337.729 474.472 301.442 485 255 485z" opacity="1" data-original="url(#j)"></path><path fill="url(#k)" d="m163.568 346.689-.001-314.248C162.025 30.378 152.579 25 134.593 25c-18.352 0-27.646 5.228-28.956 7.143-.009.07-.02.194-.02.381V346.69c0 48.318 13.894 84.332 41.295 107.04C171.951 474.479 208.316 485 255 485v-44.111c-57.251 0-91.432-35.215-91.432-94.2z" opacity="1" data-original="url(#k)"></path><path fill="url(#l)" d="M375.407 25c-18.352 0-27.646 5.228-28.956 7.143-.009.07-.02.194-.02.381v188.143h57.951l-.001-188.225C402.839 30.378 393.392 25 375.407 25z" opacity="1" data-original="url(#l)"></path><path fill="url(#m)" d="M134.593 25c-18.352 0-27.646 5.228-28.956 7.143-.009.07-.02.194-.02.381v188.143h57.95l-.001-188.225C162.025 30.378 152.579 25 134.593 25z" opacity="1" data-original="url(#m)" class=""></path><path fill="url(#n)" d="M321.431 261.04v85.65c0 47.055-24.911 69.199-66.431 69.199-41.519 0-66.431-22.144-66.431-69.199v-85.65H80.618v85.65C80.618 465.712 156.737 510 255 510c97.571 0 174.383-44.288 174.383-163.311v-85.65H321.431z" opacity="1" data-original="url(#n)"></path><path fill="url(#o)" d="M375.407 0c-27.68 0-53.976 9.688-53.976 32.524v314.165c0 47.055-24.911 69.199-66.431 69.199V510c97.571 0 174.382-44.288 174.382-163.311V32.524C429.382 9.688 401.703 0 375.407 0z" opacity="1" data-original="url(#o)" class=""></path><path fill="url(#p)" d="M429.382 346.689v-53.957L356.81 220.16h-35.379v126.529c0 47.055-24.911 69.199-66.431 69.199V510c97.571 0 174.382-44.288 174.382-163.311z" opacity="1" data-original="url(#p)"></path><path fill="url(#q)" d="M348.353 77.863h-26.922V261.04h107.951V32.524c0-18.124-17.439-27.959-37.78-31.249l-17.108 57.128a27.287 27.287 0 0 1-26.141 19.46z" opacity="1" data-original="url(#q)" class=""></path><path fill="url(#r)" d="M292.659 173.339a7.495 7.495 0 0 1-8.687-4.996c-10.816-32.976-46.871-52.807-61.604-59.705a7.496 7.496 0 0 1-3.837-9.436l.009-.025c1.541-4.092 6.233-5.994 10.199-4.153 16.798 7.801 56.866 29.975 69.502 68.678 1.377 4.222-1.239 8.709-5.582 9.637z" opacity="1" data-original="url(#r)"></path><path fill="url(#s)" d="M201.828 31.482c31.589 18.238 52.239 48.145 59.65 81.132 1.687 7.508-2.67 15.055-10.016 17.348-32.274 10.075-68.499 7.145-100.088-11.092-31.589-18.238-52.239-48.145-59.65-81.132-1.687-7.508 2.67-15.055 10.016-17.348 32.274-10.075 68.499-7.145 100.088 11.092z" opacity="1" data-original="url(#s)"></path><path fill="url(#s)" d="M201.828 31.482c31.589 18.238 52.239 48.145 59.65 81.132 1.687 7.508-2.67 15.055-10.016 17.348-32.274 10.075-68.499 7.145-100.088-11.092-31.589-18.238-52.239-48.145-59.65-81.132-1.687-7.508 2.67-15.055 10.016-17.348 32.274-10.075 68.499-7.145 100.088 11.092z" opacity="1" data-original="url(#s)"></path><path fill="url(#t)" d="M151.373 118.872c6.2 3.58 12.573 6.57 19.07 8.983l6.326-3.021c30.087-14.359 59.972-14.937 83.09-1.589-23.119-13.348-37.561-39.517-40.169-72.753l-.547-6.989a125.567 125.567 0 0 0-17.315-12.023c-31.59-18.238-67.813-21.168-100.089-11.092-7.348 2.294-11.705 9.84-10.018 17.351 7.414 32.989 28.062 62.895 59.652 81.133z" opacity="1" data-original="url(#t)" class=""></path><path fill="url(#u)" d="M217.804 98.964c-23.119-13.348-53.003-12.77-83.09 1.589l-5.105 2.437c-19.392-17.632-32.342-40.579-37.886-65.252-1.688-7.511 2.669-15.057 10.018-17.351 24.14-7.536 50.487-7.794 75.453.184l.442 5.639c2.607 33.237 17.049 59.407 40.168 72.754z" opacity="1" data-original="url(#u)" class=""></path><path fill="url(#v)" d="M168.939 70.752c-19.033-10.989-42.652-12.53-67.194-4.723a126.048 126.048 0 0 1-10.023-28.291c-1.688-7.511 2.669-15.057 10.018-17.351a126.014 126.014 0 0 1 29.512-5.465c5.51 25.158 18.654 44.842 37.687 55.83z" opacity="1" data-original="url(#v)"></path><path fill="url(#w)" d="M251.462 129.962c-32.274 10.075-68.499 7.145-100.088-11.092-31.589-18.238-52.238-48.145-59.65-81.132a14.741 14.741 0 0 1 1.621-10.629l166.512 96.136a14.741 14.741 0 0 1-8.395 6.717z" opacity="1" data-original="url(#w)"></path><path fill="url(#x)" d="M362.021 30.825c-4.118 13.763-1.947 27.912 4.847 39.364a5.821 5.821 0 0 0 7.558 2.261c11.968-5.839 21.552-16.471 25.67-30.234s1.947-27.912-4.847-39.364A5.822 5.822 0 0 0 387.69.591c-11.967 5.838-21.551 16.47-25.669 30.234z" opacity="1" data-original="url(#x)"></path><path fill="url(#y)" d="M374.427 72.45c11.968-5.839 21.552-16.471 25.67-30.234s1.947-27.912-4.847-39.364a5.803 5.803 0 0 0-3.338-2.606l-21.705 72.55a5.805 5.805 0 0 0 4.22-.346z" opacity="1" data-original="url(#y)"></path><path fill="url(#z)" d="M410.627 86.203c-2.05 3.35-6.3 4.5-9.81 2.76-23.29-11.57-51.16-10.96-74.28 1.99-1.77.99-3.47 2.04-5.11 3.13v-17.42c27.03-14.21 59.13-14.52 86.1-1.11 3.96 1.96 5.41 6.88 3.1 10.65z" opacity="1" data-original="url(#z)"></path><path fill="url(#A)" d="M410.627 86.203c-2.05 3.35-6.3 4.5-9.81 2.76-23.29-11.57-51.16-10.96-74.28 1.99-1.77.99-3.47 2.04-5.11 3.13-14.82 9.91-24.19 23.98-26.68 39.93-.45 2.84-.68 5.73-.68 8.67 0 19.37 10.41 37.1 27.36 48.57v17.46c-25.92-13.59-42.36-38.42-42.36-66.03 0-2.85.17-5.67.51-8.45 1.57-12.83 6.69-24.9 14.76-35.24 6.48-8.32 14.88-15.52 24.87-21.13.74-.41 1.47-.81 2.22-1.2 27.03-14.21 59.13-14.52 86.1-1.11 3.96 1.96 5.41 6.88 3.1 10.65z" opacity="1" data-original="url(#A)"></path><path fill="url(#B)" d="M321.427 191.253v17.46c-25.92-13.59-42.36-38.42-42.36-66.03 0-2.85.17-5.67.51-8.45 1.08-8.83 3.84-17.3 8.09-25.1h17.69c-5.57 7.42-9.2 15.85-10.61 24.88-.45 2.84-.68 5.73-.68 8.67 0 19.37 10.411 37.1 27.36 48.57z" opacity="1" data-original="url(#B)"></path><path fill="url(#C)" d="M365.58 266c-1.84 37.98-15.64 75.7-41.92 107.11-9.94 11.88-21.07 22.16-33.09 30.81-1.46 1.05-2.93 2.08-4.41 3.08-9.7 6.01-21.87 8.89-36.08 8.89-38.75 0-61.58-21.45-61.58-69.2v-30.71c6.26-12.7 14.12-24.87 23.61-36.21 33.74-40.32 81.33-62.21 130.01-64.55 11.08-.53 20.71 7.53 22.15 18.53 1.39 10.68 1.83 21.47 1.31 32.25z" opacity="1" data-original="url(#C)"></path><path fill="url(#D)" d="M365.58 266c-1.84 37.98-15.62 75.7-41.92 107.12a181.828 181.828 0 0 1-21.37 21.6l-2.61-.25-7.45-.71c-29.9-2.84-57.02 1.56-79.19 12.47-5.31-3.54-9.82-8.09-13.47-13.68 6.25-23.3 5.61-50.06-2.24-78.2l-2.72-9.73c5.04-8.63 10.87-16.93 17.5-24.85 33.74-40.32 81.33-62.22 130.01-64.55 11.08-.53 20.72 7.53 22.15 18.53 1.39 10.68 1.83 21.47 1.31 32.25z" opacity="1" data-original="url(#D)"></path><path fill="url(#E)" d="M223.876 379.04c24.693-29.512 65.439-43.52 113.278-38.969l8.117.774c17.528-33.468 23.704-70.943 18.999-107.091-1.432-11.004-11.065-19.064-22.149-18.533-36.411 1.745-72.209 14.434-102.061 37.591l2.193 7.853c12.917 46.286 6.316 88.863-18.377 118.375z" opacity="1" data-original="url(#E)"></path><path fill="url(#F)" d="M276.069 316.663c20.329-24.296 51.543-38.072 88.633-39.648a181.608 181.608 0 0 0-.432-43.261c-1.432-11.004-11.065-19.064-22.149-18.533a181.662 181.662 0 0 0-42.659 7.206c4.99 36.785-3.064 69.94-23.393 94.236z" opacity="1" data-original="url(#F)"></path><path fill="url(#G)" d="M365.58 266c-1.84 37.98-15.64 75.7-41.92 107.11-9.94 11.88-21.07 22.16-33.09 30.81-1.46 1.05-2.93 2.08-4.41 3.08-9.7 6.01-21.87 8.89-36.08 8.89-18.64 0-33.61-4.96-44.11-15.45l106.39-127.15 6.1-7.29 38.35-45.84c3.97 3.33 6.74 8.09 7.46 13.59 1.39 10.68 1.83 21.47 1.31 32.25z" opacity="1" data-original="url(#G)"></path><path fill="url(#H)" d="M365.58 266c-1.84 37.98-15.64 75.7-41.92 107.11-9.94 11.88-21.07 22.16-33.09 30.81-1.46 1.05-2.93 2.08-4.41 3.08-9.7 6.01-21.87 8.89-36.08 8.89-38.75 0-61.58-21.45-61.58-69.2v-30.71c6.26-12.7 14.12-24.87 23.61-36.21 33.74-40.32 81.33-62.21 130.01-64.55 11.08-.53 20.71 7.53 22.15 18.53 1.39 10.68 1.83 21.47 1.31 32.25z" opacity="1" data-original="url(#H)"></path></g></svg>