<svg xmlns="http://www.w3.org/2000/svg" x="0px" y="0px" width="100" height="100" viewBox="0,0,256,256">
<defs><linearGradient x1="3.381" y1="25.73" x2="44.593" y2="25.73" gradientUnits="userSpaceOnUse" id="color-1_BUnExfsRs3CW_gr1"><stop offset="0" stop-color="#69c425"></stop><stop offset="1" stop-color="#21a366"></stop></linearGradient><linearGradient x1="11.146" y1="19" x2="36.828" y2="19" gradientUnits="userSpaceOnUse" id="color-2_BUnExfsRs3CW_gr2"><stop offset="0.189" stop-color="#313437"></stop><stop offset="1" stop-color="#45494d"></stop></linearGradient></defs><g fill="none" fill-rule="nonzero" stroke="none" stroke-width="1" stroke-linecap="butt" stroke-linejoin="miter" stroke-miterlimit="10" stroke-dasharray="" stroke-dashoffset="0" font-family="none" font-weight="none" font-size="none" text-anchor="none" style="mix-blend-mode: normal"><g transform="scale(5.33333,5.33333)"><path d="M23.987,17l-5.094,-8.727c-0.098,-0.169 -0.279,-0.273 -0.475,-0.273h-14.487c-0.424,0 -0.688,0.46 -0.474,0.827l20.056,34.36c0.212,0.363 0.737,0.363 0.949,0l20.056,-34.36c0.213,-0.367 -0.051,-0.827 -0.475,-0.827h-14.487c-0.195,0 -0.376,0.104 -0.475,0.273z" fill="url(#color-1_BUnExfsRs3CW_gr1)"></path><path d="M29.24,8l-5.253,9l-5.253,-9h-7.588l12.841,22l12.841,-22z" fill="url(#color-2_BUnExfsRs3CW_gr2)"></path><path d="M23.987,30l12.841,-22h-7.588l-5.253,9l-5.253,-9h-7.588z" fill="none"></path><path d="M28.082,8h-8.19l4.095,7.016z" fill="none"></path><path d="M37.26,8.252l-12.841,22l-0.432,0.74l-0.432,-0.74l-12.841,-22l-0.147,-0.252h-0.579l0.294,0.504l12.841,22l0.864,1.48l0.864,-1.48l12.841,-22l0.294,-0.504h-0.579zM36.828,9h0.005z" fill="#000000" opacity="0.05"></path><path d="M36.828,8l-12.841,22l-12.841,-22h-0.579l0.147,0.252l12.841,22l0.432,0.74l0.432,-0.74l12.841,-22l0.147,-0.252h-0.574z" fill="#000000" opacity="0.07"></path></g></g>
</svg>