<svg xmlns="http://www.w3.org/2000/svg" version="1.1" xmlns:xlink="http://www.w3.org/1999/xlink" width="512"
	height="512" x="0" y="0" viewBox="0 0 510 510" style="enable-background:new 0 0 512 512" xml:space="preserve"
	class="">
	<g>
		<linearGradient id="a">
			<stop offset="0" stop-color="#81b823"></stop>
			<stop offset="1" stop-color="#017b4e"></stop>
		</linearGradient>
		<linearGradient xlink:href="#a" id="h" x1="1478.445" x2="1518.188" y1="-721.316" y2="-721.316"
			gradientTransform="scale(-1 1) rotate(60 -124.694 -1877.873)" gradientUnits="userSpaceOnUse">
		</linearGradient>
		<linearGradient id="b">
			<stop offset="0" stop-color="#017b4e" stop-opacity="0"></stop>
			<stop offset="1" stop-color="#026841"></stop>
		</linearGradient>
		<linearGradient xlink:href="#b" id="i" x1="1507.57" x2="1492.269" y1="-722.291" y2="-720.652"
			gradientTransform="scale(-1 1) rotate(60 -124.694 -1877.873)" gradientUnits="userSpaceOnUse">
		</linearGradient>
		<linearGradient id="c">
			<stop offset="0" stop-color="#bbec6c"></stop>
			<stop offset="1" stop-color="#81b823"></stop>
		</linearGradient>
		<linearGradient xlink:href="#c" id="j" x1="-4304.277" x2="-4264.534" y1="-350.966" y2="-350.966"
			gradientTransform="rotate(14.98 -4903.77 16874.784)" gradientUnits="userSpaceOnUse"></linearGradient>
		<linearGradient id="d">
			<stop offset="0" stop-color="#78a91f" stop-opacity="0"></stop>
			<stop offset=".163" stop-color="#73a620" stop-opacity=".163"></stop>
			<stop offset=".354" stop-color="#659e24" stop-opacity=".354"></stop>
			<stop offset=".559" stop-color="#4e912b" stop-opacity=".559"></stop>
			<stop offset=".774" stop-color="#2d8034" stop-opacity=".774"></stop>
			<stop offset=".994" stop-color="#036941" stop-opacity=".994"></stop>
			<stop offset="1" stop-color="#026841"></stop>
		</linearGradient>
		<linearGradient xlink:href="#d" id="k" x1="-4275.151" x2="-4290.453" y1="-351.94" y2="-350.301"
			gradientTransform="rotate(14.98 -4903.77 16874.784)" gradientUnits="userSpaceOnUse"></linearGradient>
		<linearGradient xlink:href="#c" id="l" x1="-4269.596" x2="-4229.853" y1="-489.47" y2="-489.47"
			gradientTransform="rotate(-30 -701.107 -8306.587)" gradientUnits="userSpaceOnUse"></linearGradient>
		<linearGradient xlink:href="#d" id="m" x1="-4240.47" x2="-4255.772" y1="-490.444" y2="-488.805"
			gradientTransform="rotate(-30 -701.107 -8306.587)" gradientUnits="userSpaceOnUse"></linearGradient>
		<linearGradient xlink:href="#c" id="n" x1="166.317" x2="331.65" y1="141.102" y2="329.102"
			gradientUnits="userSpaceOnUse"></linearGradient>
		<linearGradient xlink:href="#a" id="o" x1="2038.407" x2="2139.314" y1="-798.548" y2="-798.548"
			gradientTransform="rotate(60.6 186.042 -1685.284)" gradientUnits="userSpaceOnUse"></linearGradient>
		<linearGradient xlink:href="#b" id="p" x1="2088.861" x2="2088.861" y1="-815.891" y2="-687.131"
			gradientTransform="rotate(60.6 186.042 -1685.284)" gradientUnits="userSpaceOnUse"></linearGradient>
		<linearGradient xlink:href="#b" id="q" x1="2088.861" x2="2088.861" y1="-853.815" y2="-721.078"
			gradientTransform="rotate(60.6 186.042 -1685.284)" gradientUnits="userSpaceOnUse"></linearGradient>
		<linearGradient xlink:href="#b" id="r" x1="2088.861" x2="2088.861" y1="-887.577" y2="-787.293"
			gradientTransform="rotate(60.6 186.042 -1685.284)" gradientUnits="userSpaceOnUse"></linearGradient>
		<linearGradient xlink:href="#b" id="s" x1="2112.356" x2="2073.507" y1="-801.022" y2="-796.86"
			gradientTransform="rotate(60.6 186.042 -1685.284)" gradientUnits="userSpaceOnUse"></linearGradient>
		<linearGradient id="t" x1="339.171" x2="308.106" y1="408.499" y2="408.499"
			gradientTransform="rotate(28.24 348.453 405.69)" gradientUnits="userSpaceOnUse">
			<stop offset="0" stop-color="#01525a" stop-opacity="0"></stop>
			<stop offset="1" stop-color="#01525a"></stop>
		</linearGradient>
		<linearGradient id="e">
			<stop offset="0" stop-color="#5a5a5a"></stop>
			<stop offset="1" stop-color="#444"></stop>
		</linearGradient>
		<linearGradient xlink:href="#e" id="u" x1="117.158" x2="360.158" y1="152.786" y2="353.786"
			gradientUnits="userSpaceOnUse"></linearGradient>
		<linearGradient id="f">
			<stop offset="0" stop-color="#433f43" stop-opacity="0"></stop>
			<stop offset="1" stop-color="#1a1a1a"></stop>
		</linearGradient>
		<linearGradient xlink:href="#f" id="v" x1="44.742" x2="412.742" y1="66.181" y2="414.181"
			gradientUnits="userSpaceOnUse"></linearGradient>
		<linearGradient xlink:href="#f" id="w" x1="199.45" x2="179.95" y1="197.461" y2="205.461"
			gradientUnits="userSpaceOnUse"></linearGradient>
		<linearGradient xlink:href="#f" id="x" x1="175.876" x2="153.21" y1="107.381" y2="56.048"
			gradientUnits="userSpaceOnUse"></linearGradient>
		<linearGradient xlink:href="#f" id="y" x1="377.162" x2="391.162" y1="100.92" y2="66.253"
			gradientUnits="userSpaceOnUse"></linearGradient>
		<linearGradient xlink:href="#f" id="z" x1="175.043" x2="132.376" y1="434.28" y2="434.28"
			gradientUnits="userSpaceOnUse"></linearGradient>
		<linearGradient xlink:href="#f" id="A" x1="223.222" x2="223.222" y1="462.474" y2="514.971"
			gradientUnits="userSpaceOnUse"></linearGradient>
		<linearGradient id="B" x1="238.471" x2="233.805" y1="219.728" y2="165.728" gradientUnits="userSpaceOnUse">
			<stop offset="0" stop-color="#433f43" stop-opacity="0"></stop>
			<stop offset="1"></stop>
		</linearGradient>
		<linearGradient xlink:href="#c" id="C" x1="2705.4" x2="2755.4" y1="-5901.408" y2="-5806.075"
			gradientTransform="scale(1 -1) rotate(-45 8326.398 -70.72)" gradientUnits="userSpaceOnUse"></linearGradient>
		<linearGradient xlink:href="#c" id="D" x1="-4032.05" x2="-3992.307" y1="-587.606" y2="-587.606"
			gradientTransform="rotate(-30 -701.107 -8306.587)" gradientUnits="userSpaceOnUse"></linearGradient>
		<linearGradient xlink:href="#d" id="E" x1="-4002.925" x2="-4018.226" y1="-588.581" y2="-586.942"
			gradientTransform="rotate(-30 -701.107 -8306.587)" gradientUnits="userSpaceOnUse"></linearGradient>
		<linearGradient xlink:href="#c" id="F" x1="243.823" x2="298.832" y1="78.587" y2="131.5"
			gradientUnits="userSpaceOnUse"></linearGradient>
		<linearGradient xlink:href="#d" id="G" x1="259.99" x2="223.99" y1="120.006" y2="164.672"
			gradientUnits="userSpaceOnUse"></linearGradient>
		<linearGradient xlink:href="#c" id="H" x1="961.609" x2="1062.516" y1="-736.293" y2="-736.293"
			gradientTransform="scale(-1 1) rotate(60 -312.354 -1320.75)" gradientUnits="userSpaceOnUse">
		</linearGradient>
		<linearGradient xlink:href="#d" id="I" x1="1012.063" x2="1012.063" y1="-753.636" y2="-624.876"
			gradientTransform="scale(-1 1) rotate(60 -312.354 -1320.75)" gradientUnits="userSpaceOnUse">
		</linearGradient>
		<linearGradient xlink:href="#d" id="J" x1="1012.063" x2="1012.063" y1="-791.56" y2="-658.823"
			gradientTransform="scale(-1 1) rotate(60 -312.354 -1320.75)" gradientUnits="userSpaceOnUse">
		</linearGradient>
		<linearGradient xlink:href="#d" id="K" x1="1012.063" x2="1012.063" y1="-825.322" y2="-725.038"
			gradientTransform="scale(-1 1) rotate(60 -312.354 -1320.75)" gradientUnits="userSpaceOnUse">
		</linearGradient>
		<linearGradient xlink:href="#d" id="L" x1="1035.558" x2="996.709" y1="-738.767" y2="-734.605"
			gradientTransform="scale(-1 1) rotate(60 -312.354 -1320.75)" gradientUnits="userSpaceOnUse">
		</linearGradient>
		<linearGradient xlink:href="#e" id="M" x1="223.1" x2="237.304" y1="47.656" y2="47.656"
			gradientUnits="userSpaceOnUse"></linearGradient>
		<linearGradient xlink:href="#e" id="N" x1="209.139" x2="223.344" y1="47.656" y2="47.656"
			gradientUnits="userSpaceOnUse"></linearGradient>
		<linearGradient xlink:href="#e" id="O" x1="218.464" x2="224.714" y1="57.456" y2="64.456"
			gradientUnits="userSpaceOnUse"></linearGradient>
		<linearGradient xlink:href="#e" id="P" x1="215.185" x2="227.435" y1="82.478" y2="90.478"
			gradientUnits="userSpaceOnUse"></linearGradient>
		<linearGradient xlink:href="#f" id="Q" x1="225.012" x2="212.512" y1="88.049" y2="85.799"
			gradientUnits="userSpaceOnUse"></linearGradient>
		<linearGradient xlink:href="#f" id="R" x1="223.222" x2="223.222" y1="92.69" y2="110.19"
			gradientUnits="userSpaceOnUse"></linearGradient>
		<linearGradient id="g">
			<stop offset="0" stop-color="#fd8087"></stop>
			<stop offset="1" stop-color="#e74335"></stop>
		</linearGradient>
		<linearGradient xlink:href="#g" id="S" x1="199.455" x2="212.788" y1="78.381" y2="85.048"
			gradientUnits="userSpaceOnUse"></linearGradient>
		<linearGradient xlink:href="#e" id="T" x1="196.661" x2="212.483" y1="99.386" y2="99.386"
			gradientUnits="userSpaceOnUse"></linearGradient>
		<linearGradient xlink:href="#e" id="U" x1="202.277" x2="209.277" y1="70.104" y2="75.771"
			gradientUnits="userSpaceOnUse"></linearGradient>
		<linearGradient xlink:href="#g" id="V" x1="224.229" x2="241.895" y1="78.273" y2="87.44"
			gradientUnits="userSpaceOnUse"></linearGradient>
		<linearGradient xlink:href="#e" id="W" x1="237.622" x2="243.872" y1="96.369" y2="101.119"
			gradientUnits="userSpaceOnUse"></linearGradient>
		<linearGradient xlink:href="#e" id="X" x1="235.918" x2="248.468" y1="71.965" y2="71.965"
			gradientUnits="userSpaceOnUse"></linearGradient>
		<path fill="url(#h)"
			d="M324.682 88.803c12.441 7.183 20.575 18.962 23.494 31.955a5.823 5.823 0 0 1-3.945 6.833c-12.711 3.968-26.979 2.814-39.42-4.369s-20.575-18.962-23.494-31.955a5.823 5.823 0 0 1 3.945-6.833c12.71-3.968 26.978-2.814 39.42 4.369z"
			opacity="1" data-original="url(#h)"></path>
		<path fill="url(#i)"
			d="M344.23 127.59c-12.711 3.968-26.979 2.814-39.42-4.369s-20.575-18.962-23.494-31.955a5.809 5.809 0 0 1 .638-4.186l65.582 37.864a5.802 5.802 0 0 1-3.306 2.646z"
			opacity="1" data-original="url(#i)"></path>
		<path fill="url(#j)"
			d="M137.065 390.783c-3.718 13.877-1.14 27.957 5.983 39.208a5.821 5.821 0 0 0 7.621 2.042c11.794-6.182 21.067-17.087 24.785-30.964s1.14-27.957-5.983-39.208a5.821 5.821 0 0 0-7.621-2.042c-11.794 6.183-21.066 17.087-24.785 30.964z"
			opacity="1" data-original="url(#j)"></path>
		<path fill="url(#k)"
			d="M150.669 432.033c11.794-6.182 21.067-17.087 24.785-30.964s1.14-27.957-5.983-39.208a5.809 5.809 0 0 0-3.412-2.509l-19.6 73.147a5.807 5.807 0 0 0 4.21-.466z"
			opacity="1" data-original="url(#k)"></path>
		<path fill="url(#l)"
			d="M117.031 247.269c7.183 12.441 18.962 20.575 31.955 23.494a5.823 5.823 0 0 0 6.833-3.945c3.968-12.711 2.814-26.979-4.369-39.42s-18.962-20.575-31.955-23.494a5.823 5.823 0 0 0-6.833 3.945c-3.968 12.711-2.814 26.979 4.369 39.42z"
			opacity="1" data-original="url(#l)"></path>
		<path fill="url(#m)"
			d="M155.819 266.818c3.968-12.711 2.814-26.979-4.369-39.42s-18.962-20.575-31.955-23.494a5.809 5.809 0 0 0-4.186.638l37.864 65.582a5.809 5.809 0 0 0 2.646-3.306z"
			opacity="1" data-original="url(#m)"></path>
		<path fill="url(#n)"
			d="m178.021 462.829-55.98-45.331c-28.854-23.366-40.425-60.054-30.198-95.745 10.228-35.691 39.472-60.683 76.32-65.222l187.923-23.149c24.416-3.008 45.253-17.077 57.168-38.599s12.777-46.649 2.367-68.938l-8.226-17.611 13.59-6.348 8.226 17.611c12.467 26.69 11.434 56.779-2.834 82.552-14.269 25.771-39.22 42.618-68.457 46.22l-187.923 23.149c-30.772 3.791-55.194 24.661-63.734 54.467s1.122 60.443 25.218 79.956l55.98 45.33z"
			opacity="1" data-original="url(#n)"></path>
		<path fill="url(#o)"
			d="M322.781 364.516c-31.783 17.897-52.754 47.58-60.52 80.486-1.767 7.489 2.508 15.082 9.828 17.454 32.163 10.422 68.418 7.882 100.201-10.015s52.754-47.58 60.52-80.486c1.767-7.489-2.508-15.082-9.828-17.454-32.164-10.422-68.418-7.882-100.201 10.015z"
			opacity="1" data-original="url(#o)"></path>
		<path fill="url(#p)"
			d="M372.292 452.443a125.518 125.518 0 0 1-19.165 8.777l-6.293-3.088c-29.931-14.682-59.808-15.581-83.069-2.483 23.261-13.098 37.984-39.111 40.949-72.317l.622-6.982a125.578 125.578 0 0 1 17.443-11.836c31.784-17.897 68.036-20.437 100.202-10.015 7.323 2.373 11.599 9.965 9.83 17.458-7.766 32.907-28.735 62.589-60.519 80.486z"
			opacity="1" data-original="url(#p)"></path>
		<path fill="url(#q)"
			d="M306.08 431.822c23.261-13.098 53.138-12.199 83.069 2.483l5.078 2.492c19.581-17.422 32.777-40.228 38.586-64.841 1.768-7.492-2.507-15.085-9.83-17.458-24.057-7.795-50.4-8.337-75.451-.628l-.502 5.634c-2.967 33.207-17.689 59.22-40.95 72.318z"
			opacity="1" data-original="url(#q)"></path>
		<path fill="url(#r)"
			d="M355.245 404.137c19.15-10.783 42.784-12.07 67.241-4a126.032 126.032 0 0 0 10.327-28.181c1.768-7.492-2.507-15.085-9.83-17.458a126.003 126.003 0 0 0-29.451-5.783c-5.782 25.098-19.137 44.639-38.287 55.422z"
			opacity="1" data-original="url(#r)"></path>
		<path fill="url(#s)"
			d="M272.09 462.456c32.163 10.422 68.418 7.882 100.201-10.015s52.754-47.58 60.52-80.486a14.74 14.74 0 0 0-1.506-10.646l-167.536 94.338a14.738 14.738 0 0 0 8.321 6.809z"
			opacity="1" data-original="url(#s)"></path>
		<path fill="url(#t)"
			d="M322.781 364.516c-31.783 17.897-52.754 47.58-60.52 80.486-1.767 7.489 2.508 15.082 9.828 17.454 32.163 10.422 68.418 7.882 100.201-10.015s52.754-47.58 60.52-80.486c1.767-7.489-2.508-15.082-9.828-17.454-32.164-10.422-68.418-7.882-100.201 10.015z"
			opacity="1" data-original="url(#t)"></path>
		<path fill="url(#u)"
			d="M366.222 34.004c-10.881 0-22.44 4.761-27.2 17l-56.439 184.278-76.839-184.278c-4.76-12.239-16.32-17-29.24-17-27.199 0-71.398 23.12-71.398 50.32 0 5.439 1.359 9.52 3.399 13.6l118.999 236.637c0 85.68-72.08 87.039-96.56 87.039-19.04 0-25.839 20.4-25.839 43.52 0 40.12 21.079 44.881 48.279 44.881 138.038 0 152.318-85.68 186.317-171.359l96.56-240.717c2.039-3.4 2.72-8.16 2.72-11.561 0-29.24-48.28-52.36-72.759-52.36z"
			opacity="1" data-original="url(#u)"></path>
		<path fill="url(#v)"
			d="M153.385 490c-7.55 0-18.117-.379-22.699-3.659-4.855-3.475-5.58-14.787-5.58-21.222 0-16.414 4.04-22.745 5.069-23.47l.005.001c.037 0 .281-.051.764-.051 101.418 0 116.561-67.063 116.561-107.039a20 20 0 0 0-2.132-8.985l-119-236.637c-1.088-2.176-1.267-3.147-1.267-4.614 0-3.936 5.077-11.397 16.225-18.479 11.148-7.083 25.283-11.842 35.174-11.842 8.948 0 10.191 3.198 10.601 4.249.058.15.118.3.18.448l76.838 184.278a20.002 20.002 0 0 0 37.583-1.839l56.147-183.325c1.521-3.136 5.354-3.811 8.37-3.811 7.67 0 22.146 4.186 34.976 12.186 12.284 7.66 17.782 15.652 17.782 20.174 0 .691-.109 1.446-.208 1.859a19.966 19.966 0 0 0-1.073 2.255L321.14 331.194c-3.936 9.919-7.588 19.766-11.119 29.287-13.222 35.645-25.71 69.312-47.914 92.585C238.062 478.264 203.516 490 153.385 490z"
			opacity="1" data-original="url(#v)"></path>
		<path fill="url(#w)"
			d="M264.122 242.979 187.284 58.701a17.433 17.433 0 0 1-.18-.448c-.409-1.051-1.652-4.249-10.601-4.249-9.891 0-24.025 4.759-35.174 11.842-11.147 7.081-16.225 14.543-16.225 18.479 0 1.467.179 2.438 1.267 4.614l119 236.637a20.012 20.012 0 0 1 2.132 8.985l35.072-79.278a20.004 20.004 0 0 1-18.453-12.304z"
			opacity="1" data-original="url(#w)"></path>
		<path fill="url(#x)"
			d="M264.122 242.979 187.284 58.701a17.433 17.433 0 0 1-.18-.448c-.409-1.051-1.652-4.249-10.601-4.249-9.891 0-24.025 4.759-35.174 11.842-11.147 7.081-16.225 14.543-16.225 18.479 0 1.467.179 2.438 1.267 4.614l119 236.637a20.012 20.012 0 0 1 2.132 8.985l35.072-79.278a20.004 20.004 0 0 1-18.453-12.304z"
			opacity="1" data-original="url(#x)"></path>
		<path fill="url(#y)"
			d="M401.198 66.189c-12.829-8-27.306-12.186-34.976-12.186-3.016 0-6.849.675-8.37 3.811L302.87 237.333h55.919l58.909-146.856c.311-.773.669-1.526 1.073-2.255a8.944 8.944 0 0 0 .208-1.859c.001-4.521-5.497-12.513-17.781-20.174z"
			opacity="1" data-original="url(#y)"></path>
		<path fill="url(#z)"
			d="M240.376 378.56c-11.636 32.275-40.743 63.04-109.433 63.04-.482 0-.727.051-.764.051h-.005c-1.029.724-5.069 7.055-5.069 23.469 0 6.435.725 17.747 5.58 21.222 4.582 3.28 15.149 3.659 22.699 3.659 36.68 0 65.008-6.292 86.991-19.534V378.56z"
			opacity="1" data-original="url(#z)"></path>
		<path fill="url(#A)"
			d="M227.503 334.561c0 85.68-72.08 87.039-96.56 87.039-19.04 0-25.839 20.4-25.839 43.52 0 40.12 21.079 44.881 48.279 44.881 138.038 0 152.318-85.68 186.317-171.359l1.637-4.08H227.503z"
			opacity="1" data-original="url(#A)"></path>
		<path fill="url(#B)" d="m140.5 161.55 87.003 173.011h113.835l-58.755-99.279-30.745-73.732z" opacity="1"
			data-original="url(#B)"></path>
		<path fill="url(#C)"
			d="M327.475 238.182c15.542-15.542 15.549-40.835 0-56.385-13.018-13.018-34.203-13.018-47.221 0a7.497 7.497 0 0 0 0 10.607 7.498 7.498 0 0 0 10.607 0c7.17-7.17 18.837-7.17 26.007 0 4.702 4.702 7.283 10.946 7.29 17.586-.007 6.64-2.588 12.883-7.29 17.586-6.223 6.222-14.503 9.652-23.299 9.652-8.811 0-17.077-3.429-23.306-9.659-8.132-8.132-12.615-18.95-12.615-30.448 0-11.512 4.476-22.323 12.615-30.462a7.498 7.498 0 0 0-6.887-12.629l-11.243 11.243c-6.173 9.383-9.482 20.358-9.482 31.841 0 15.514 6.039 30.094 17.006 41.062 9.058 9.058 21.1 14.057 33.906 14.05 12.812-.001 24.854-4.986 33.912-14.044z"
			opacity="1" data-original="url(#C)"></path>
		<path fill="url(#D)"
			d="M273.683 43.508c7.183 12.441 18.962 20.575 31.955 23.494a5.821 5.821 0 0 0 6.832-3.945c3.968-12.711 2.814-26.979-4.369-39.42S289.139 3.062 276.146.143a5.821 5.821 0 0 0-6.832 3.945c-3.968 12.711-2.814 26.978 4.369 39.42z"
			opacity="1" data-original="url(#D)"></path>
		<path fill="url(#E)"
			d="M312.471 63.057c3.968-12.711 2.814-26.979-4.369-39.42S289.14 3.062 276.147.143a5.809 5.809 0 0 0-4.186.638l37.864 65.582a5.812 5.812 0 0 0 2.646-3.306z"
			opacity="1" data-original="url(#E)"></path>
		<path fill="url(#F)"
			d="m338.913 51.37-4.39 14.34c-2.38-.56-4.84-.84-7.34-.84-8.66 0-16.8 3.37-22.92 9.49a32.352 32.352 0 0 0-8.06 32.48c6.22 20.19-.15 40.95-16.63 54.17-7.11 5.7-15.18 9.26-23.53 10.63-2.59.43-5.22.64-7.85.64-8.53 0-17.13-2.25-25.11-6.79l-29.33-16.7c-3.59-2.05-4.85-6.63-2.8-10.23s6.63-4.86 10.23-2.81l29.32 16.7c6.71 3.82 13.37 5.1 19.51 4.73 7.96-.48 15.04-3.76 20.17-7.87 9.08-7.28 16.91-21.1 11.69-38.05-5.19-16.84-.68-35.04 11.78-47.5 12.25-12.25 29.58-16.38 45.26-12.39z"
			opacity="1" data-original="url(#F)"></path>
		<path fill="url(#G)"
			d="M281.074 86.139a47.386 47.386 0 0 0 .792 25.117c5.22 16.95-2.61 30.77-11.69 38.05-9.07 7.28-24.26 11.92-39.68 3.14l-29.32-16.7c-3.6-2.05-8.18-.79-10.23 2.81s-.79 8.18 2.8 10.23l29.33 16.7c7.98 4.54 16.58 6.79 25.11 6.79 11.09 0 22.06-3.8 31.38-11.27 16.48-13.22 22.85-33.98 16.63-54.17a32.343 32.343 0 0 1 .544-20.698h-15.666z"
			opacity="1" data-original="url(#G)"></path>
		<path fill="url(#H)"
			d="M181.486 74.784c31.589 18.238 52.239 48.145 59.65 81.132 1.687 7.508-2.67 15.055-10.016 17.348-32.274 10.075-68.499 7.145-100.088-11.092-31.589-18.238-52.239-48.145-59.65-81.132-1.687-7.508 2.67-15.055 10.016-17.348 32.274-10.075 68.5-7.145 100.088 11.092z"
			opacity="1" data-original="url(#H)"></path>
		<path fill="url(#H)"
			d="M181.486 74.784c31.589 18.238 52.239 48.145 59.65 81.132 1.687 7.508-2.67 15.055-10.016 17.348-32.274 10.075-68.499 7.145-100.088-11.092-31.589-18.238-52.239-48.145-59.65-81.132-1.687-7.508 2.67-15.055 10.016-17.348 32.274-10.075 68.5-7.145 100.088 11.092z"
			opacity="1" data-original="url(#H)"></path>
		<path fill="url(#I)"
			d="M131.032 162.174c6.2 3.58 12.573 6.57 19.07 8.983l6.326-3.021c30.087-14.359 59.972-14.937 83.09-1.589-23.119-13.348-37.561-39.517-40.169-72.753l-.547-6.989a125.567 125.567 0 0 0-17.315-12.023c-31.59-18.238-67.813-21.168-100.089-11.092-7.348 2.294-11.705 9.84-10.018 17.351 7.414 32.989 28.062 62.895 59.652 81.133z"
			opacity="1" data-original="url(#I)"></path>
		<path fill="url(#J)"
			d="M197.462 142.266c-23.119-13.348-53.003-12.77-83.09 1.589l-5.105 2.437C89.875 128.66 76.925 105.713 71.381 81.04c-1.687-7.51 2.669-15.056 10.018-17.35 24.14-7.536 50.487-7.794 75.453.184l.442 5.639c2.608 33.236 17.05 59.406 40.168 72.753z"
			opacity="1" data-original="url(#J)"></path>
		<path fill="url(#K)"
			d="M148.598 114.054c-19.033-10.989-42.652-12.53-67.194-4.723A126.048 126.048 0 0 1 71.381 81.04c-1.687-7.51 2.669-15.056 10.018-17.35a126.014 126.014 0 0 1 29.512-5.465c5.509 25.157 18.654 44.841 37.687 55.829z"
			opacity="1" data-original="url(#K)"></path>
		<path fill="url(#L)"
			d="M231.121 173.264c-32.274 10.075-68.499 7.145-100.088-11.092-31.589-18.238-52.238-48.145-59.65-81.132a14.741 14.741 0 0 1 1.621-10.629l166.512 96.136a14.744 14.744 0 0 1-8.395 6.717z"
			opacity="1" data-original="url(#L)"></path>
		<path fill="url(#M)"
			d="M227.1 59.19a4 4 0 0 1-4-4v-2.291a19.739 19.739 0 0 1 5.82-14.05l1.556-1.556a4 4 0 0 1 5.657 5.656l-1.557 1.557a11.791 11.791 0 0 0-3.477 8.393v2.291c.001 2.209-1.79 4-3.999 4z"
			opacity="1" data-original="url(#M)"></path>
		<path fill="url(#N)"
			d="M219.344 59.19a4 4 0 0 1-4-4v-2.291c0-3.171-1.234-6.15-3.476-8.392l-1.557-1.558a4 4 0 1 1 5.657-5.656l1.557 1.557a19.738 19.738 0 0 1 5.819 14.049v2.291a4 4 0 0 1-4 4z"
			opacity="1" data-original="url(#N)"></path>
		<path fill="url(#O)"
			d="M229.914 70.664H216.53c-4.368 0-7.553-4.136-6.435-8.359l.659-2.491a10.894 10.894 0 0 1 10.532-8.108h3.873c4.944 0 9.268 3.329 10.532 8.108l.659 2.491c1.116 4.223-2.068 8.359-6.436 8.359z"
			opacity="1" data-original="url(#O)"></path>
		<circle cx="223.222" cy="87.727" r="22.233" fill="url(#P)" opacity="1" data-original="url(#P)"></circle>
		<circle cx="223.222" cy="87.727" r="22.233" fill="url(#Q)" opacity="1" data-original="url(#Q)"></circle>
		<circle cx="223.222" cy="87.727" r="22.233" fill="url(#R)" opacity="1" data-original="url(#R)"></circle>
		<path fill="url(#S)"
			d="M223.222 65.491c-11.541-4.182-24.289 1.782-28.475 13.323-3.847 10.607.877 22.235 10.626 27.299 1.391.723 3.102.04 3.636-1.434z"
			opacity="1" data-original="url(#S)"></path>
		<path fill="url(#T)"
			d="m209.009 104.68 3.474-9.579a9.948 9.948 0 0 0-3.447-2.121c-4.842-1.756-10.155.461-12.375 4.98a22.135 22.135 0 0 0 8.672 8.133c1.406.733 3.136.077 3.676-1.413z"
			opacity="1" data-original="url(#T)"></path>
		<path fill="url(#U)" d="M197.975 72.896a6.336 6.336 0 1 0 8.96-6.954 22.231 22.231 0 0 0-8.96 6.954z"
			opacity="1" data-original="url(#U)"></path>
		<path fill="url(#V)"
			d="M223.222 65.491c11.541-4.182 24.289 1.782 28.475 13.323 3.847 10.607-.877 22.235-10.626 27.299-1.391.723-3.102.04-3.636-1.434z"
			opacity="1" data-original="url(#V)"></path>
		<path fill="url(#W)"
			d="m237.434 104.68-3.474-9.579a9.948 9.948 0 0 1 3.447-2.121c4.842-1.756 10.155.461 12.375 4.98a22.135 22.135 0 0 1-8.672 8.133c-1.406.733-3.135.077-3.676-1.413z"
			opacity="1" data-original="url(#W)"></path>
		<path fill="url(#X)" d="M248.468 72.896a6.336 6.336 0 1 1-8.96-6.954 22.224 22.224 0 0 1 8.96 6.954z"
			opacity="1" data-original="url(#X)"></path>
	</g>
</svg>